<svg width="278" height="50" viewBox="0 0 278 50" fill="none" xmlns="http://www.w3.org/2000/svg">
<path d="M102.397 25.8191C102.266 25.8191 96.4997 25.7536 96.4997 32.5033C96.4997 39.253 102.266 39.3185 102.397 39.3185C103.643 39.3185 106.591 38.8598 107.837 35.9764H119.239C117.797 44.4299 111.31 50 102.791 50C93.1576 50 85.6216 43.4469 85.6216 32.5033C85.6216 21.5596 93.1576 15.0066 102.791 15.0066C111.244 15.0066 117.732 20.0524 119.239 29.4233H107.837C106.526 25.9502 103.118 25.8191 102.397 25.8191Z" fill="white"/>
<path d="M136.383 16.1206V48.886H123.998V16.1206H136.383ZM123.735 6.48755C123.735 2.94889 126.619 0 130.157 0C133.696 0 136.645 2.94889 136.645 6.48755C136.645 10.0262 133.696 12.9096 130.157 12.9096C126.619 12.9096 123.735 10.0262 123.735 6.48755Z" fill="white"/>
<path d="M177.671 16.1206V48.886H165.679L165.286 46.0026C163.189 48.6894 159.257 50 156.177 50C146.675 50 141.236 42.6606 141.105 32.5033C141.236 22.346 146.675 15.0066 156.177 15.0066C159.257 15.0066 163.189 16.3172 165.286 19.0039L165.614 16.1206H177.671ZM159.781 40.1048C163.779 40.1048 166.793 36.8938 166.859 32.5033C166.793 28.1127 163.779 24.9017 159.781 24.9017C155.719 24.9017 152.639 27.7195 152.639 32.5033C152.639 37.287 155.719 40.1048 159.781 40.1048Z" fill="white"/>
<path d="M184.735 48.886V3.01442H197.12V19.0039C199.217 16.3172 203.149 15.0066 206.229 15.0066C215.731 15.0066 221.17 22.346 221.301 32.5033C221.17 42.6606 215.731 50 206.229 50C203.149 50 199.217 48.6894 197.12 46.0026L196.793 48.886H184.735ZM202.625 40.1048C206.688 40.1048 209.768 37.287 209.768 32.5033C209.768 27.7195 206.688 24.9017 202.625 24.9017C198.627 24.9017 195.613 28.1127 195.547 32.5033C195.613 36.8938 198.627 40.1048 202.625 40.1048Z" fill="white"/>
<path d="M226.268 1.9004H238.653V48.886H226.268V1.9004Z" fill="white"/>
<path d="M260.794 50C251.161 50 243.625 43.4469 243.625 32.5033C243.625 21.5596 251.161 15.0066 260.794 15.0066C270.427 15.0066 277.439 21.5596 277.439 32.5033C277.439 33.0275 277.373 33.8139 277.373 34.3381H254.634C254.765 40.498 259.942 40.8912 260.139 40.8912C260.139 40.8912 264.005 41.3499 265.643 38.2045H276.849C274.687 45.6094 268.527 50 260.794 50ZM260.794 23.7877C260.794 23.7877 256.01 23.7222 255.159 28.1127H266.364C265.316 23.6566 260.991 23.7877 260.794 23.7877Z" fill="white"/>
<path d="M0 33.7915H11.517C11.7595 36.9436 14.9722 38.1559 17.3968 38.1559C19.3365 38.1559 22.6704 37.4285 22.6704 34.5795C22.6704 28.3967 1.03047 33.4885 0.848624 18.2132C0.727392 8.2722 7.88008 3.78662 17.0937 3.78662C25.095 3.78662 33.7631 7.1205 34.0662 17.9708H22.6704C22.4279 14.8187 20.0033 13.9095 17.1543 13.9095C14.6085 13.9095 12.6081 14.8793 12.6081 17.4252C12.6081 22.8807 35.0967 18.6982 35.0967 34.3371C35.0967 44.9449 25.6406 48.0969 17.4574 48.2788C8.91055 48.2788 0 44.0356 0 33.7915Z" fill="white"/>
<path d="M60.7685 13.0283C43.1731 10.6638 32.8712 31.6338 44.8049 44.1338C52.0428 51.7159 60.724 49.5622 62.0451 49.6954C72.2692 49.6954 80.3842 41.3473 80.3842 31.3563C80.3952 22.1423 73.557 13.0283 60.7685 13.0283ZM74.223 25.3061C81.472 44.0338 55.3621 57.7771 43.9834 40.9034C42.074 38.0615 41.075 34.7644 41.075 31.3563C41.075 12.3622 67.5179 7.52212 74.223 25.3061Z" fill="white"/>
<path d="M54.7071 24.1629C49.7227 24.2074 47.4469 30.2241 50.9327 33.7321C56.1282 38.5944 56.3502 39.8933 58.204 39.8933C60.0578 39.8933 60.3799 38.4834 65.4752 33.7321C70.6707 28.5036 63.3549 21.2766 58.204 25.3619C57.2383 24.5847 55.018 24.2184 54.7071 24.1629Z" fill="white"/>
</svg>
