<svg width="167" height="30" viewBox="0 0 167 30" fill="none" xmlns="http://www.w3.org/2000/svg">
<path d="M61.4386 15.4915C61.3599 15.4915 57.8999 15.4522 57.8999 19.502C57.8999 23.5518 61.3599 23.5911 61.4386 23.5911C62.1856 23.5911 63.9549 23.3159 64.702 21.5858H71.5434C70.6784 26.6579 66.7859 30 61.6745 30C55.8947 30 51.373 26.0682 51.373 19.502C51.373 12.9358 55.8947 9.00393 61.6745 9.00393C66.7466 9.00393 70.6391 12.0315 71.5434 17.654H64.702C63.9156 15.5701 61.8711 15.4915 61.4386 15.4915Z" fill="#2E374F"/>
<path d="M81.8298 9.67235V29.3316H74.3986V9.67235H81.8298ZM74.2413 3.89253C74.2413 1.76933 75.9713 0 78.0945 0C80.2177 0 81.9871 1.76933 81.9871 3.89253C81.9871 6.01573 80.2177 7.74574 78.0945 7.74574C75.9713 7.74574 74.2413 6.01573 74.2413 3.89253Z" fill="#2E374F"/>
<path d="M106.603 9.67235V29.3316H99.4076L99.1717 27.6016C97.9135 29.2136 95.5544 30 93.7064 30C88.0052 30 84.7418 25.5963 84.6632 19.502C84.7418 13.4076 88.0052 9.00393 93.7064 9.00393C95.5544 9.00393 97.9135 9.7903 99.1717 11.4024L99.3683 9.67235H106.603ZM95.8689 24.0629C98.2674 24.0629 100.076 22.1363 100.115 19.502C100.076 16.8676 98.2674 14.941 95.8689 14.941C93.4312 14.941 91.5832 16.6317 91.5832 19.502C91.5832 22.3722 93.4312 24.0629 95.8689 24.0629Z" fill="#2E374F"/>
<path d="M110.841 29.3316V1.80865H118.272V11.4024C119.53 9.7903 121.889 9.00393 123.737 9.00393C129.439 9.00393 132.702 13.4076 132.781 19.502C132.702 25.5963 129.439 30 123.737 30C121.889 30 119.53 29.2136 118.272 27.6016L118.076 29.3316H110.841ZM121.575 24.0629C124.013 24.0629 125.861 22.3722 125.861 19.502C125.861 16.6317 124.013 14.941 121.575 14.941C119.176 14.941 117.368 16.8676 117.329 19.502C117.368 22.1363 119.176 24.0629 121.575 24.0629Z" fill="#2E374F"/>
<path d="M135.761 1.14024H143.192V29.3316H135.761V1.14024Z" fill="#2E374F"/>
<path d="M156.476 30C150.697 30 146.175 26.0682 146.175 19.502C146.175 12.9358 150.697 9.00393 156.476 9.00393C162.256 9.00393 166.463 12.9358 166.463 19.502C166.463 19.8165 166.424 20.2883 166.424 20.6029H152.781C152.859 24.2988 155.965 24.5347 156.083 24.5347C156.083 24.5347 158.403 24.81 159.386 22.9227H166.109C164.812 27.3657 161.116 30 156.476 30ZM156.476 14.2726C156.476 14.2726 153.606 14.2333 153.095 16.8676H159.819C159.189 14.194 156.594 14.2726 156.476 14.2726Z" fill="#2E374F"/>
<path d="M0 20.2749H6.91022C7.05569 22.1661 8.98328 22.8935 10.4381 22.8935C11.6019 22.8935 13.6022 22.4571 13.6022 20.7477C13.6022 17.038 0.618282 20.0931 0.509174 10.9279C0.436435 4.96332 4.72804 2.27197 10.2562 2.27197C15.057 2.27197 20.2578 4.2723 20.4397 10.7825H13.6022C13.4567 8.89124 12.002 8.34569 10.2926 8.34569C8.76506 8.34569 7.56487 8.92761 7.56487 10.4551C7.56487 13.7284 21.058 11.2189 21.058 20.6022C21.058 26.9669 15.3843 28.8581 10.4744 28.9673C5.34633 28.9673 0 26.4214 0 20.2749Z" fill="#2E374F"/>
<path d="M36.4612 7.81699C25.904 6.39826 19.7228 18.9803 26.883 26.4803C31.2258 31.0296 36.4345 29.7373 37.2271 29.8173C43.3616 29.8173 48.2306 24.8084 48.2306 18.8138C48.2372 13.2854 44.1343 7.81699 36.4612 7.81699ZM44.5339 15.1837C48.8833 26.4203 33.2173 34.6663 26.3901 24.542C25.2445 22.8369 24.6451 20.8586 24.6451 18.8138C24.6451 7.41734 40.5108 4.51327 44.5339 15.1837Z" fill="#5956E9"/>
<path d="M32.8243 14.4978C29.8337 14.5244 28.4682 18.1345 30.5597 20.2392C33.677 23.1567 33.8102 23.936 34.9225 23.936C36.0348 23.936 36.228 23.09 39.2852 20.2392C42.4025 17.1021 38.013 12.766 34.9225 15.2172C34.3431 14.7508 33.0109 14.531 32.8243 14.4978Z" fill="#5956E9"/>
</svg>
