<svg width="41" height="40" viewBox="0 0 41 40" fill="none" xmlns="http://www.w3.org/2000/svg">
<path d="M22.2006 38.1246C23.1783 38.1259 24.1446 37.9154 25.0331 37.5077L31.1713 34.7015C32.1447 34.2562 33.0008 33.5897 33.6713 32.7552L38.8394 26.3077C39.1421 25.9313 39.2881 25.4527 39.2471 24.9714C39.2062 24.4902 38.9813 24.0432 38.6194 23.7233L38.4731 23.5933C38.1312 23.2907 37.6901 23.1241 37.2334 23.125C36.7768 23.1259 36.3364 23.2943 35.9956 23.5983L30.1644 28.8002C29.6827 29.2306 29.1299 29.574 28.5306 29.8152L24.075 31.6065C23.9629 31.6515 23.84 31.6625 23.7218 31.6381C23.6035 31.6136 23.495 31.5548 23.41 31.469L22.7769 30.8315L26.75 29.1515C26.7762 29.1402 26.8017 29.1272 26.8263 29.1127C27.4233 28.7562 27.9212 28.2554 28.2744 27.6565C28.4591 27.3486 28.5516 26.9941 28.5408 26.6352C28.53 26.2763 28.4164 25.9281 28.2135 25.6319C28.0105 25.3356 27.7268 25.1039 27.396 24.9643C27.0653 24.8246 26.7013 24.7828 26.3475 24.844L19.6513 26.0315C18.7854 26.185 17.9576 26.5051 17.2138 26.974L14.7762 28.5071C13.889 29.0667 12.8615 29.3639 11.8125 29.3646H8V28.7496C8 28.5838 7.93415 28.4248 7.81694 28.3076C7.69973 28.1904 7.54076 28.1246 7.375 28.1246H2.375C2.20924 28.1246 2.05027 28.1904 1.93306 28.3076C1.81585 28.4248 1.75 28.5838 1.75 28.7496V38.1246C1.75 38.2903 1.81585 38.4493 1.93306 38.5665C2.05027 38.6837 2.20924 38.7496 2.375 38.7496H7.375C7.54076 38.7496 7.69973 38.6837 7.81694 38.5665C7.93415 38.4493 8 38.2903 8 38.1246V37.4371L12.4738 36.9871C13.1768 36.9156 13.8871 36.9792 14.5662 37.1746L16.9412 37.8571C17.5529 38.0327 18.1861 38.1219 18.8225 38.1221L22.2006 38.1246ZM6.75 37.4996H3V29.3746H6.75V37.4996ZM14.9119 35.9758C14.08 35.7373 13.2104 35.659 12.3494 35.7452L8.00063 36.1827V30.6146H11.8131C13.0958 30.6141 14.3521 30.2512 15.4375 29.5677L17.875 28.0346C18.4828 27.6512 19.1593 27.3897 19.8669 27.2646L26.5637 26.0771C26.6798 26.056 26.7995 26.0692 26.9082 26.1149C27.017 26.1606 27.1101 26.2369 27.1763 26.3346C27.2466 26.4345 27.2862 26.5529 27.29 26.6751C27.2937 26.7973 27.2616 26.918 27.1975 27.0221C26.9575 27.4301 26.6216 27.7734 26.2188 28.0221L21.4375 30.0402C21.3434 30.0801 21.2605 30.1424 21.196 30.2218C21.1316 30.3011 21.0876 30.3951 21.068 30.4954C21.0483 30.5957 21.0535 30.6993 21.0832 30.7971C21.1128 30.8949 21.166 30.984 21.2381 31.0565L22.5238 32.3502C22.7818 32.6106 23.1109 32.789 23.47 32.8631C23.829 32.9371 24.2019 32.9035 24.5419 32.7665L28.9944 30.9746C29.7279 30.6796 30.4047 30.2594 30.9944 29.7327L36.8256 24.5308C36.938 24.4308 37.0833 24.3755 37.2337 24.3755C37.3842 24.3755 37.5295 24.4308 37.6419 24.5308L37.7881 24.6602C37.9094 24.7676 37.9847 24.9176 37.9983 25.079C38.012 25.2404 37.9629 25.4009 37.8613 25.5271L32.6937 31.9733C32.1458 32.6544 31.4467 33.1983 30.6519 33.5621L24.5131 36.3683C23.7877 36.7014 22.9988 36.8732 22.2006 36.8721H18.82C18.3004 36.8718 17.7833 36.799 17.2838 36.6558L14.9119 35.9758Z" fill="#5956E9"/>
<path d="M4.25 35H5.5V36.25H4.25V35Z" fill="#5956E9"/>
<path d="M9.875 6.25V22.5C9.875 22.6658 9.94085 22.8247 10.0581 22.9419C10.1753 23.0592 10.3342 23.125 10.5 23.125H30.5C30.6658 23.125 30.8247 23.0592 30.9419 22.9419C31.0592 22.8247 31.125 22.6658 31.125 22.5V6.25C31.125 6.08424 31.0592 5.92527 30.9419 5.80806C30.8247 5.69085 30.6658 5.625 30.5 5.625H10.5C10.3342 5.625 10.1753 5.69085 10.0581 5.80806C9.94085 5.92527 9.875 6.08424 9.875 6.25ZM11.125 6.875H29.875V21.875H11.125V6.875Z" fill="#5956E9"/>
<path d="M25.5944 12.5766L22.4694 12.0991L21.0663 9.10912C21.0158 9.00174 20.9358 8.91096 20.8357 8.84736C20.7355 8.78377 20.6193 8.75 20.5007 8.75C20.382 8.75 20.2658 8.78377 20.1657 8.84736C20.0655 8.91096 19.9855 9.00174 19.9351 9.10912L18.5313 12.0991L15.4063 12.5766C15.2927 12.5939 15.1861 12.6422 15.0981 12.7162C15.0102 12.7902 14.9443 12.887 14.9078 12.996C14.8713 13.105 14.8656 13.2219 14.8912 13.3339C14.9169 13.446 14.9729 13.5487 15.0532 13.631L17.3332 15.9672L16.7932 19.2741C16.7743 19.3899 16.7884 19.5087 16.8338 19.6168C16.8793 19.725 16.9542 19.8182 17.0502 19.8857C17.1461 19.9533 17.2591 19.9924 17.3762 19.9988C17.4933 20.0051 17.6099 19.9784 17.7126 19.9216L20.5001 18.381L23.2882 19.9216C23.3908 19.9784 23.5074 20.0051 23.6245 19.9988C23.7417 19.9924 23.8547 19.9533 23.9506 19.8857C24.0465 19.8182 24.1215 19.725 24.1669 19.6168C24.2124 19.5087 24.2264 19.3899 24.2076 19.2741L23.6676 15.9672L25.9476 13.631C26.0278 13.5487 26.0839 13.446 26.1095 13.3339C26.1351 13.2219 26.1294 13.105 26.0929 12.996C26.0564 12.887 25.9906 12.7902 25.9026 12.7162C25.8147 12.6422 25.708 12.5939 25.5944 12.5766ZM22.5526 15.3204C22.4843 15.3904 22.4334 15.4754 22.404 15.5687C22.3746 15.6619 22.3675 15.7607 22.3832 15.8572L22.7663 18.2047L20.8019 17.1197C20.7095 17.0687 20.6056 17.042 20.5001 17.042C20.3945 17.042 20.2906 17.0687 20.1982 17.1197L18.2338 18.2047L18.6169 15.8572C18.6327 15.7607 18.6255 15.6619 18.5961 15.5687C18.5667 15.4754 18.5158 15.3904 18.4476 15.3204L16.7969 13.6285L19.0501 13.2847C19.1515 13.2692 19.2476 13.2289 19.3298 13.1674C19.412 13.106 19.4777 13.0252 19.5213 12.9322L20.5001 10.846L21.4788 12.9322C21.5224 13.0252 21.5882 13.106 21.6703 13.1674C21.7525 13.2289 21.8486 13.2692 21.9501 13.2847L24.2001 13.6285L22.5526 15.3204Z" fill="#5956E9"/>
<path d="M19.875 1.25H21.125V3.75H19.875V1.25Z" fill="#5956E9"/>
<path d="M33.625 13.75H36.125V15H33.625V13.75Z" fill="#5956E9"/>
<path d="M4.875 13.75H7.375V15H4.875V13.75Z" fill="#5956E9"/>
<path d="M6.04834 3.30859L6.93222 2.42471L8.69999 4.19248L7.81611 5.07636L6.04834 3.30859Z" fill="#5956E9"/>
<path d="M32.2954 4.19531L34.0632 2.42755L34.9471 3.31143L33.1793 5.0792L32.2954 4.19531Z" fill="#5956E9"/>
</svg>
