<svg width="61" height="61" viewBox="0 0 61 61" fill="none" xmlns="http://www.w3.org/2000/svg">
<g clip-path="url(#clip0_127_151)">
<path d="M19.7033 28.154C18.2255 27.7285 16.7477 27.5126 15.3102 27.5126C13.0904 27.5126 11.2382 28.0198 9.80196 28.6411C11.1865 23.5721 14.5128 14.8255 21.1388 13.8406C21.7525 13.7493 22.2554 13.3056 22.4227 12.7084L23.8709 7.52855C23.9931 7.0905 23.9206 6.62162 23.6708 6.24147C23.4209 5.86133 23.0194 5.60769 22.5694 5.54601C22.0804 5.47929 21.5819 5.44531 21.0879 5.44531C13.1345 5.44531 5.25788 13.7468 1.93417 25.6333C-0.016893 32.6068 -0.588991 43.091 4.21689 49.6901C6.90621 53.3826 10.8297 55.3545 15.8785 55.5514C15.8994 55.5521 15.9195 55.5527 15.9402 55.5527C22.1698 55.5527 27.6938 51.3573 29.3742 45.3511C30.378 41.7605 29.9242 37.9949 28.0953 34.7454C26.2859 31.5325 23.3058 29.1906 19.7033 28.154Z" fill="#5956E9"/>
<path d="M58.6992 34.7461C56.8898 31.5325 53.9098 29.1906 50.3072 28.154C48.8295 27.7285 47.3517 27.5126 45.9148 27.5126C43.695 27.5126 41.8422 28.0199 40.4059 28.6411C41.7905 23.5721 45.1167 14.8255 51.7435 13.8406C52.357 13.7493 52.8594 13.3056 53.0274 12.7084L54.4756 7.52855C54.5977 7.0905 54.5252 6.62162 54.2753 6.24147C54.0262 5.86133 53.6246 5.60769 53.174 5.54601C52.6856 5.47929 52.1871 5.44531 51.6924 5.44531C43.739 5.44531 35.8625 13.7468 32.5381 25.6333C30.5877 32.6068 30.0156 43.091 34.8221 49.6913C37.5108 53.3832 41.4349 55.3557 46.4831 55.5521C46.5039 55.5527 46.5241 55.5533 46.5455 55.5533C52.7744 55.5533 58.2989 51.358 59.9795 45.3517C60.982 41.7611 60.5276 37.9949 58.6992 34.7461Z" fill="#5956E9"/>
</g>
<defs>
<clipPath id="clip0_127_151">
<rect width="60" height="60" fill="white" transform="translate(0.5 0.5)"/>
</clipPath>
</defs>
</svg>
