<svg width="40" height="40" viewBox="0 0 40 40" fill="none" xmlns="http://www.w3.org/2000/svg">
<path d="M37.9977 18.2909C37.2964 17.5901 36.4691 17.0619 35.568 16.7238C36.7093 15.9506 37.4609 14.6435 37.4609 13.1641C37.4609 10.7948 35.5333 8.86719 33.164 8.86719C30.7947 8.86719 28.8671 10.7948 28.8671 13.1641C28.8671 14.6421 29.6173 15.9481 30.757 16.7216C29.4566 17.207 28.3288 18.0821 27.5288 19.2519C26.3924 17.7045 24.7915 16.5188 22.933 15.9022C25.0605 14.8263 26.5234 12.6205 26.5234 10.0781C26.5234 6.48109 23.597 3.55469 20 3.55469C16.403 3.55469 13.4766 6.48109 13.4766 10.0781C13.4766 12.6205 14.9395 14.8263 17.0669 15.9022C15.2075 16.5191 13.6059 17.7056 12.4695 19.2542C12.2334 18.9108 11.9668 18.5881 11.6697 18.291C10.9684 17.5902 10.1411 17.0619 9.23992 16.7238C10.3813 15.9506 11.1329 14.6435 11.1329 13.1641C11.1329 10.7948 9.20531 8.86719 6.83602 8.86719C4.46672 8.86719 2.53914 10.7948 2.53914 13.1641C2.53914 14.6441 3.29133 15.9517 4.43352 16.7248C4.05945 16.8651 3.69719 17.0377 3.35172 17.2427C3.07344 17.4079 2.9818 17.7673 3.14687 18.0456C3.31211 18.324 3.67156 18.4156 3.94984 18.2504C4.81992 17.7339 5.81797 17.4609 6.83594 17.4609C8.34828 17.4609 9.7707 18.0501 10.8411 19.1197C11.209 19.4876 11.5216 19.9016 11.7749 20.3525C11.0666 21.6674 10.6641 23.1703 10.6641 24.7656V25.6641C10.6641 25.9877 10.9264 26.25 11.25 26.25C11.5736 26.25 11.8359 25.9877 11.8359 25.6641V24.7656C11.8359 20.264 15.4983 16.6016 20 16.6016C24.5017 16.6016 28.1641 20.264 28.1641 24.7656V32.9297H11.8359V28.1771C11.8359 27.8534 11.5736 27.5912 11.25 27.5912C10.9264 27.5912 10.6641 27.8534 10.6641 28.1771V28.7891H1.17188V23.125C1.17188 21.9299 1.53953 20.7873 2.23508 19.8208C2.42406 19.5581 2.36438 19.192 2.10172 19.0029C1.83906 18.8138 1.47289 18.8737 1.28383 19.1362C0.443984 20.3035 0 21.6827 0 23.125V31.7188C0 32.0424 0.262344 32.3047 0.585938 32.3047H10.6641V35.8594C10.6641 36.183 10.9264 36.4453 11.25 36.4453H28.75C29.0736 36.4453 29.3359 36.183 29.3359 35.8594V33.5156V32.3047H34.9479C35.2715 32.3047 35.5338 32.0424 35.5338 31.7188C35.5338 31.3951 35.2715 31.1328 34.9479 31.1328H29.3359V29.9609H38.8281V31.1328H37.5C37.1764 31.1328 36.9141 31.3951 36.9141 31.7188C36.9141 32.0424 37.1764 32.3047 37.5 32.3047H39.4141C39.7377 32.3047 40 32.0424 40 31.7188V23.125C40 21.2998 39.289 19.5831 37.9977 18.2909ZM6.83594 16.2891C5.11281 16.2891 3.71094 14.8872 3.71094 13.1641C3.71094 11.4409 5.11281 10.0391 6.83594 10.0391C8.55906 10.0391 9.96094 11.4409 9.96094 13.1641C9.96094 14.8872 8.55906 16.2891 6.83594 16.2891ZM14.6484 10.0781C14.6484 7.12727 17.0491 4.72656 20 4.72656C22.9509 4.72656 25.3516 7.12727 25.3516 10.0781C25.3516 13.029 22.9509 15.4297 20 15.4297C17.0491 15.4297 14.6484 13.029 14.6484 10.0781ZM10.6641 31.1328H1.17188V29.9609H10.6641V31.1328ZM28.1641 35.2734H11.8359V34.1016H28.1641V35.2734ZM30.0391 13.1641C30.0391 11.4409 31.4409 10.0391 33.1641 10.0391C34.8872 10.0391 36.2891 11.4409 36.2891 13.1641C36.2891 14.8872 34.8872 16.2891 33.1641 16.2891C31.4409 16.2891 30.0391 14.8872 30.0391 13.1641ZM38.8281 28.7891H29.3359V24.7656C29.3359 23.1702 28.9334 21.6672 28.2249 20.3523C29.2282 18.5616 31.0938 17.4609 33.1641 17.4609C34.6764 17.4609 36.0988 18.0501 37.1691 19.1196C38.2389 20.1902 38.8281 21.6127 38.8281 23.125V28.7891Z" fill="#5956E9"/>
<path d="M24.5287 21.0474C23.9155 20.4788 23.2244 20.2222 22.4747 20.2822C21.4167 20.368 20.5234 21.0791 19.9997 21.6038C19.4752 21.0791 18.5801 20.3669 17.523 20.282C16.7744 20.2217 16.084 20.4793 15.4715 21.0474C14.7876 21.6816 14.459 22.4635 14.4948 23.3714C14.6073 26.2207 18.41 29.4405 19.5726 30.3594C19.6983 30.4589 19.8491 30.5087 20 30.5087C20.1506 30.5087 20.3012 30.459 20.4269 30.3598L20.427 30.3597C20.8662 30.0127 22.0056 29.0762 23.0988 27.8764C24.6445 26.18 25.4542 24.6644 25.5053 23.3716C25.5412 22.4636 25.2126 21.6816 24.5287 21.0474ZM24.3343 23.3253C24.2949 24.3205 23.5682 25.6213 22.2326 27.0871C21.3915 28.01 20.5204 28.7694 20 29.1982C19.4794 28.7693 18.608 28.0095 17.7674 27.0869C16.4318 25.6211 15.7051 24.3203 15.6658 23.3252C15.6438 22.767 15.8408 22.303 16.2683 21.9066C16.6021 21.597 16.9462 21.4455 17.3172 21.4455C17.3542 21.4455 17.3916 21.4471 17.4292 21.4501C18.5068 21.5366 19.4951 22.788 19.5387 22.8437C19.6497 22.9856 19.8203 23.0679 20.0004 23.0679C20.0008 23.0679 20.0011 23.0679 20.0014 23.0679C20.1819 23.0676 20.3526 22.9836 20.4635 22.8412C20.5048 22.788 21.4889 21.5379 22.5695 21.4502C22.9836 21.4158 23.3643 21.5658 23.7318 21.9066C24.1593 22.303 24.3563 22.7672 24.3343 23.3253Z" fill="#5956E9"/>
</svg>
