<svg width="40" height="40" viewBox="0 0 40 40" fill="none" xmlns="http://www.w3.org/2000/svg">
<g clip-path="url(#clip0_131_211)">
<path d="M16.1079 21.1045H12.2661" stroke="#5956E9" stroke-width="1.17187" stroke-miterlimit="10" stroke-linecap="round" stroke-linejoin="round"/>
<path d="M27.7339 21.1045H23.8921" stroke="#5956E9" stroke-width="1.17187" stroke-miterlimit="10" stroke-linecap="round" stroke-linejoin="round"/>
<path d="M12.1143 16.4902C12.1908 15.2059 13.0439 14.0879 14.2783 13.6824L18.3432 12.3441" stroke="#5956E9" stroke-width="1.17187" stroke-miterlimit="10" stroke-linecap="round" stroke-linejoin="round"/>
<path d="M21.6572 12.3441L25.7221 13.6824C26.9564 14.0879 27.8096 15.2059 27.8861 16.4902" stroke="#5956E9" stroke-width="1.17187" stroke-miterlimit="10" stroke-linecap="round" stroke-linejoin="round"/>
<path d="M21.6575 10.3717V12.3447C21.6575 13.26 20.9154 14.002 20.0001 14.002C19.0848 14.002 18.3428 13.26 18.3428 12.3447V10.3717" stroke="#5956E9" stroke-width="1.17187" stroke-miterlimit="10" stroke-linecap="round" stroke-linejoin="round"/>
<path d="M23.7882 4.37398C23.7882 2.28187 22.0922 0.58586 20.0001 0.58586C17.9079 0.58586 16.2119 2.28187 16.2119 4.37398V6.89937C16.2119 8.99148 17.9079 10.6875 20.0001 10.6875C22.0922 10.6875 23.7882 8.99148 23.7882 6.89937V4.37398Z" stroke="#5956E9" stroke-width="1.17187" stroke-miterlimit="10" stroke-linecap="round" stroke-linejoin="round"/>
<path d="M23.6729 29.3447C23.8628 28.1994 24.6721 27.2338 25.8002 26.8619L29.865 25.5244" stroke="#5956E9" stroke-width="1.17187" stroke-miterlimit="10" stroke-linecap="round" stroke-linejoin="round"/>
<path d="M39.414 33.4959V34.2842H31.5218H27.8921" stroke="#5956E9" stroke-width="1.17187" stroke-miterlimit="10" stroke-linecap="round" stroke-linejoin="round"/>
<path d="M33.1797 25.5241L37.2445 26.8616C38.5391 27.2882 39.4141 28.4975 39.4141 29.8608V30.7588" stroke="#5956E9" stroke-width="1.17187" stroke-miterlimit="10" stroke-linecap="round" stroke-linejoin="round"/>
<path d="M10.1353 25.5244L14.2 26.8619C15.3282 27.2338 16.1375 28.1994 16.3274 29.3447" stroke="#5956E9" stroke-width="1.17187" stroke-miterlimit="10" stroke-linecap="round" stroke-linejoin="round"/>
<path d="M12.1078 34.2842H8.47805H0.585938V33.4959" stroke="#5956E9" stroke-width="1.17187" stroke-miterlimit="10" stroke-linecap="round" stroke-linejoin="round"/>
<path d="M0.585938 30.7588V29.8608C0.585938 28.4975 1.46094 27.2882 2.75547 26.8616L6.82031 25.5241" stroke="#5956E9" stroke-width="1.17187" stroke-miterlimit="10" stroke-linecap="round" stroke-linejoin="round"/>
<path d="M33.1794 23.5514V25.5244C33.1794 26.4397 32.4373 27.1816 31.522 27.1816C30.6067 27.1816 29.8647 26.4397 29.8647 25.5244V23.5514" stroke="#5956E9" stroke-width="1.17187" stroke-miterlimit="10" stroke-linecap="round" stroke-linejoin="round"/>
<path d="M35.3101 17.5537C35.3101 15.4616 33.6141 13.7655 31.522 13.7655C29.4298 13.7655 27.7339 15.4616 27.7339 17.5537V20.0791C27.7339 22.1712 29.4299 23.8672 31.522 23.8672C33.6141 23.8672 35.3101 22.1712 35.3101 20.0791V17.5537Z" stroke="#5956E9" stroke-width="1.17187" stroke-miterlimit="10" stroke-linecap="round" stroke-linejoin="round"/>
<path d="M36.0996 32.2323V34.2842" stroke="#5956E9" stroke-width="1.17187" stroke-miterlimit="10" stroke-linecap="round" stroke-linejoin="round"/>
<path d="M10.1349 23.5514V25.5244C10.1349 26.4397 9.39297 27.1816 8.47766 27.1816C7.56234 27.1816 6.82031 26.4397 6.82031 25.5244V23.5514" stroke="#5956E9" stroke-width="1.17187" stroke-miterlimit="10" stroke-linecap="round" stroke-linejoin="round"/>
<path d="M12.2657 17.5537C12.2657 15.4616 10.5697 13.7655 8.47766 13.7655C6.38547 13.7655 4.68945 15.4616 4.68945 17.5537V20.0791C4.68945 22.1712 6.38547 23.8672 8.47766 23.8672C10.5697 23.8672 12.2657 22.1712 12.2657 20.0791V17.5537Z" stroke="#5956E9" stroke-width="1.17187" stroke-miterlimit="10" stroke-linecap="round" stroke-linejoin="round"/>
<path d="M3.90039 32.2323V34.2842" stroke="#5956E9" stroke-width="1.17187" stroke-miterlimit="10" stroke-linecap="round" stroke-linejoin="round"/>
<path d="M27.8917 38.6314V39.4141H19.9998H12.1079V33.0174C12.1079 31.6542 12.983 30.445 14.2778 30.0188L18.3425 28.6811" stroke="#5956E9" stroke-width="1.17187" stroke-miterlimit="10" stroke-linecap="round" stroke-linejoin="round"/>
<path d="M21.6572 28.6809L25.7218 30.0187C27.0168 30.4448 27.8918 31.654 27.8918 33.0172V35.8955" stroke="#5956E9" stroke-width="1.17187" stroke-miterlimit="10" stroke-linecap="round" stroke-linejoin="round"/>
<path d="M21.6575 26.7086V28.6815C21.6575 29.5968 20.9154 30.3389 20.0001 30.3389C19.0848 30.3389 18.3428 29.5968 18.3428 28.6815V26.7086" stroke="#5956E9" stroke-width="1.17187" stroke-miterlimit="10" stroke-linecap="round" stroke-linejoin="round"/>
<path d="M23.7882 20.7099C23.7882 18.6178 22.0922 16.9218 20.0001 16.9218C17.9079 16.9218 16.2119 18.6178 16.2119 20.7099V23.2353C16.2119 25.3274 17.9079 27.0234 20.0001 27.0234C22.0922 27.0234 23.7882 25.3274 23.7882 23.2353V20.7099Z" stroke="#5956E9" stroke-width="1.17187" stroke-miterlimit="10" stroke-linecap="round" stroke-linejoin="round"/>
<path d="M24.5771 35.3892V39.4141" stroke="#5956E9" stroke-width="1.17187" stroke-miterlimit="10" stroke-linecap="round" stroke-linejoin="round"/>
<path d="M15.4229 35.3892V39.4141" stroke="#5956E9" stroke-width="1.17187" stroke-miterlimit="10" stroke-linecap="round" stroke-linejoin="round"/>
</g>
<defs>
<clipPath id="clip0_131_211">
<rect width="40" height="40" fill="white"/>
</clipPath>
</defs>
</svg>
