<svg width="31" height="31" viewBox="0 0 31 31" fill="none" xmlns="http://www.w3.org/2000/svg">
<path fill-rule="evenodd" clip-rule="evenodd" d="M15.7837 26.6699C16.3012 26.6699 16.7212 27.0899 16.7212 27.6074C16.7212 28.1249 16.3012 28.5449 15.7837 28.5449H5.78369C4.87244 28.5449 3.99744 28.1824 3.35244 27.5387C2.70869 26.8937 2.34619 26.0187 2.34619 25.1074V5.10742C2.34619 4.19617 2.70869 3.32117 3.35244 2.67617C3.99744 2.03242 4.87244 1.66992 5.78369 1.66992H16.5162C17.0962 1.66992 17.6524 1.89992 18.0624 2.31117L23.5799 7.82867C23.9912 8.23867 24.2212 8.79492 24.2212 9.37492V13.8574C24.2212 14.3749 23.8012 14.7949 23.2837 14.7949C22.7662 14.7949 22.3462 14.3749 22.3462 13.8574V9.37492C22.3462 9.29242 22.3137 9.21242 22.2549 9.15367L16.7374 3.63617C16.6787 3.57742 16.5987 3.54492 16.5162 3.54492H5.78369C5.36869 3.54492 4.97244 3.70992 4.67869 4.00242C4.38619 4.29617 4.22119 4.69242 4.22119 5.10742V25.1074C4.22119 25.5224 4.38619 25.9187 4.67869 26.2124C4.97244 26.5049 5.36869 26.6699 5.78369 26.6699H15.7837Z" fill="#F4F9F9"/>
<path fill-rule="evenodd" clip-rule="evenodd" d="M16.0962 3.23242C16.0962 2.71492 16.5162 2.29492 17.0337 2.29492C17.5512 2.29492 17.9712 2.71492 17.9712 3.23242V7.60742C17.9712 7.77992 18.1112 7.91992 18.2837 7.91992H22.6587C23.1762 7.91992 23.5962 8.33992 23.5962 8.85742C23.5962 9.37492 23.1762 9.79492 22.6587 9.79492H18.2837C17.0749 9.79492 16.0962 8.81617 16.0962 7.60742V3.23242Z" fill="#F4F9F9"/>
<path fill-rule="evenodd" clip-rule="evenodd" d="M8.28369 14.1699C7.76619 14.1699 7.34619 13.7499 7.34619 13.2324C7.34619 12.7149 7.76619 12.2949 8.28369 12.2949H18.2837C18.8012 12.2949 19.2212 12.7149 19.2212 13.2324C19.2212 13.7499 18.8012 14.1699 18.2837 14.1699H8.28369Z" fill="#F4F9F9"/>
<path fill-rule="evenodd" clip-rule="evenodd" d="M8.28369 18.5449C7.76619 18.5449 7.34619 18.1249 7.34619 17.6074C7.34619 17.0899 7.76619 16.6699 8.28369 16.6699H13.9087C14.4262 16.6699 14.8462 17.0899 14.8462 17.6074C14.8462 18.1249 14.4262 18.5449 13.9087 18.5449H8.28369Z" fill="#F4F9F9"/>
<path fill-rule="evenodd" clip-rule="evenodd" d="M8.28369 22.9199C7.76619 22.9199 7.34619 22.4999 7.34619 21.9824C7.34619 21.4649 7.76619 21.0449 8.28369 21.0449H13.9087C14.4262 21.0449 14.8462 21.4649 14.8462 21.9824C14.8462 22.4999 14.4262 22.9199 13.9087 22.9199H8.28369Z" fill="#F4F9F9"/>
<path d="M23.1099 24.0137C24.1454 24.0137 24.9849 23.1742 24.9849 22.1387C24.9849 21.1031 24.1454 20.2637 23.1099 20.2637C22.0743 20.2637 21.2349 21.1031 21.2349 22.1387C21.2349 23.1742 22.0743 24.0137 23.1099 24.0137Z" fill="#F4F9F9"/>
<path fill-rule="evenodd" clip-rule="evenodd" d="M25.0288 16.4124C25.0288 16.4124 25.4726 17.4812 25.4713 17.4812C25.6401 17.5662 25.8038 17.6612 25.9626 17.7637L27.1101 17.6137C27.4201 17.5737 27.7313 17.6912 27.9376 17.9274C28.4826 18.5524 28.9013 19.2787 29.1713 20.0637C29.2726 20.3599 29.2188 20.6887 29.0276 20.9374C29.0276 20.9374 28.3251 21.8562 28.3251 21.8549C28.3351 22.0437 28.3351 22.2337 28.3251 22.4212L29.0276 23.3399C29.2188 23.5887 29.2726 23.9174 29.1713 24.2137C28.9013 24.9987 28.4826 25.7249 27.9376 26.3499C27.7313 26.5862 27.4201 26.7037 27.1101 26.6637C27.1101 26.6637 25.9626 26.5137 25.9638 26.5124C25.8051 26.6162 25.6401 26.7112 25.4726 26.7962L25.0288 27.8649C24.9088 28.1549 24.6513 28.3649 24.3438 28.4249C23.5288 28.5849 22.6913 28.5849 21.8763 28.4249C21.5688 28.3649 21.3113 28.1549 21.1913 27.8649C21.1913 27.8649 20.7476 26.7962 20.7488 26.7962C20.5801 26.7112 20.4151 26.6162 20.2576 26.5137L19.1101 26.6637C18.7988 26.7037 18.4888 26.5862 18.2826 26.3499C17.7363 25.7249 17.3176 24.9987 17.0488 24.2137C16.9476 23.9174 17.0013 23.5887 17.1913 23.3399C17.1913 23.3399 17.8951 22.4212 17.8951 22.4224C17.8851 22.2337 17.8851 22.0437 17.8951 21.8562L17.1913 20.9374C17.0013 20.6887 16.9476 20.3599 17.0488 20.0637C17.3176 19.2787 17.7363 18.5524 18.2826 17.9274C18.4888 17.6912 18.7988 17.5737 19.1101 17.6137C19.1101 17.6137 20.2576 17.7637 20.2563 17.7649C20.4151 17.6612 20.5788 17.5662 20.7476 17.4812L21.1913 16.4124C21.3113 16.1224 21.5688 15.9124 21.8763 15.8524C22.6913 15.6924 23.5288 15.6924 24.3438 15.8524C24.6513 15.9124 24.9088 16.1224 25.0288 16.4124ZM23.5013 17.6249C23.2413 17.6024 22.9788 17.6012 22.7188 17.6249L22.3388 18.5387C22.2438 18.7674 22.0613 18.9499 21.8313 19.0449C21.5588 19.1574 21.3038 19.3049 21.0701 19.4849C20.8738 19.6362 20.6238 19.7024 20.3776 19.6712L19.3963 19.5424C19.2463 19.7574 19.1151 19.9837 19.0051 20.2212L19.6063 21.0062C19.7576 21.2037 19.8238 21.4537 19.7913 21.6999C19.7526 21.9912 19.7526 22.2862 19.7913 22.5774C19.8238 22.8237 19.7576 23.0737 19.6063 23.2712C19.6063 23.2712 19.0051 24.0562 19.0051 24.0574C19.1151 24.2937 19.2463 24.5212 19.3963 24.7349L20.3776 24.6062C20.6238 24.5749 20.8738 24.6412 21.0701 24.7924C21.3038 24.9724 21.5588 25.1199 21.8313 25.2324C22.0613 25.3274 22.2438 25.5099 22.3388 25.7387L22.7188 26.6524C22.9788 26.6762 23.2413 26.6762 23.5013 26.6524L23.8813 25.7387C23.9763 25.5099 24.1588 25.3274 24.3888 25.2324C24.6601 25.1199 24.9163 24.9724 25.1501 24.7924C25.3463 24.6412 25.5963 24.5749 25.8426 24.6062L26.8238 24.7349C26.9738 24.5199 27.1051 24.2937 27.2151 24.0562L26.6138 23.2712C26.4626 23.0737 26.3963 22.8237 26.4288 22.5774C26.4663 22.2862 26.4663 21.9912 26.4288 21.6999C26.3963 21.4537 26.4626 21.2037 26.6138 21.0062C26.6138 21.0062 27.2151 20.2212 27.2151 20.2199C27.1038 19.9837 26.9738 19.7562 26.8238 19.5424L25.8426 19.6712C25.5963 19.7024 25.3463 19.6362 25.1501 19.4849C24.9163 19.3049 24.6601 19.1574 24.3888 19.0449C24.1588 18.9499 23.9763 18.7674 23.8813 18.5387L23.5013 17.6249Z" fill="#F4F9F9"/>
</svg>
