<svg width="31" height="31" viewBox="0 0 31 31" fill="none" xmlns="http://www.w3.org/2000/svg">
<g clip-path="url(#clip0_33_141)">
<path d="M18.1995 6.94142C17.4726 6.7422 16.718 6.64119 15.9565 6.64119C11.2882 6.64119 7.49027 10.4391 7.49027 15.1075C7.49027 19.7758 11.2882 23.5737 15.9565 23.5737C20.6249 23.5737 24.4228 19.7758 24.4228 15.1075C24.4228 14.346 24.3218 13.5914 24.1226 12.8645C23.9857 12.3652 24.2796 11.8495 24.7789 11.7126C25.2779 11.5758 25.794 11.8696 25.9308 12.3689C26.1743 13.2572 26.2978 14.1786 26.2978 15.1075C26.2978 20.8096 21.6587 25.4487 15.9565 25.4487C10.2544 25.4487 5.61527 20.8096 5.61527 15.1075C5.61527 9.40529 10.2544 4.76619 15.9565 4.76619C16.8854 4.76619 17.8068 4.88964 18.6951 5.13316C19.1115 5.2473 19.385 5.62499 19.385 6.03691C19.385 6.11888 19.3741 6.2022 19.3514 6.28511C19.2146 6.78445 18.6989 7.07847 18.1995 6.94142ZM29.1763 10.2114C28.6799 10.3584 28.3965 10.8799 28.5435 11.3764C28.9005 12.5823 29.0815 13.8376 29.0815 15.1075C29.0815 22.3446 23.1937 28.2325 15.9565 28.2325C8.71939 28.2325 2.83154 22.3446 2.83154 15.1075C2.83154 7.87031 8.71939 1.98245 15.9565 1.98245C17.2265 1.98245 18.4818 2.16345 19.6874 2.5204C20.1839 2.66747 20.7055 2.384 20.8525 1.88759C20.8787 1.79882 20.8913 1.70935 20.8913 1.62128C20.8914 1.21669 20.6274 0.843275 20.2196 0.722513C18.8411 0.314349 17.4068 0.107455 15.9565 0.107455C11.9499 0.107455 8.18303 1.66775 5.3499 4.50081C2.51684 7.334 0.956543 11.1008 0.956543 15.1075C0.956543 19.1141 2.51684 22.881 5.3499 25.7141C8.18297 28.5472 11.9499 30.1075 15.9565 30.1075C19.9632 30.1075 23.73 28.5472 26.5632 25.7141C29.3962 22.881 30.9565 19.1141 30.9565 15.1075C30.9565 13.6573 30.7496 12.2229 30.3414 10.8442C30.1945 10.3477 29.6728 10.0646 29.1763 10.2114ZM15.9565 11.3575C16.0944 11.3575 16.2336 11.3651 16.3704 11.3801C16.8853 11.4367 17.3481 11.0651 17.4045 10.5504C17.461 10.0358 17.0896 9.57275 16.5749 9.51632C16.3704 9.49382 16.1624 9.48246 15.9565 9.48246C12.8549 9.48246 10.3315 12.0058 10.3315 15.1075C10.3315 18.2091 12.8549 20.7325 15.9565 20.7325C19.0582 20.7325 21.5815 18.2091 21.5815 15.1075C21.5815 14.5897 21.1618 14.17 20.644 14.17C20.1262 14.17 19.7065 14.5897 19.7065 15.1075C19.7065 17.1752 18.0243 18.8575 15.9565 18.8575C13.8888 18.8575 12.2065 17.1752 12.2065 15.1075C12.2065 13.0397 13.8888 11.3575 15.9565 11.3575ZM20.7433 8.99501L21.2103 4.31062C21.2317 4.09511 21.3271 3.89378 21.4802 3.74068L24.839 0.382025C25.0978 0.123334 25.4832 0.0387828 25.8265 0.165404C26.1697 0.292025 26.4079 0.606791 26.4366 0.971537L26.7029 4.36119L30.0925 4.62743C30.4572 4.65609 30.772 4.89433 30.8986 5.23751C31.0252 5.58076 30.9407 5.9663 30.682 6.22499L27.3233 9.58365C27.1702 9.73675 26.9688 9.83214 26.7534 9.85359L22.0691 10.3208L16.6195 15.7704C16.4364 15.9534 16.1965 16.045 15.9565 16.045C15.7165 16.045 15.4767 15.9534 15.2937 15.7703C14.9275 15.4042 14.9275 14.8106 15.2937 14.4445L20.7433 8.99501ZM22.6894 8.37468L26.2341 8.02113L27.9178 6.33743L25.7576 6.16775C25.2977 6.1316 24.9325 5.76632 24.8964 5.30654L24.7267 3.14613L23.0429 4.82988L22.6894 8.37468Z" fill="#F4F9F9"/>
</g>
<defs>
<clipPath id="clip0_33_141">
<rect width="30" height="30" fill="white" transform="translate(0.956543 0.107422)"/>
</clipPath>
</defs>
</svg>
