<svg width="121" height="30" viewBox="0 0 121 30" fill="none" xmlns="http://www.w3.org/2000/svg">
<path d="M37.3118 8.9624C38.3763 8.9624 39.2971 9.13503 40.1027 9.50905C40.9084 9.85432 41.5125 10.3723 41.9441 11.034C42.3757 11.6958 42.5772 12.4726 42.5772 13.3646C42.5772 14.2565 42.3757 15.0334 41.9441 15.6951C41.5125 16.3569 40.9084 16.846 40.1027 17.2201C39.3259 17.5654 38.4051 17.738 37.3118 17.738H34.8661V21.0468H32.0752V8.9624H37.3118ZM37.168 15.4362C38.0023 15.4362 38.6353 15.2636 39.0957 14.8895C39.5273 14.5155 39.7574 13.9976 39.7574 13.3358C39.7574 12.6452 39.5273 12.1273 39.0957 11.7821C38.6641 11.4081 38.0311 11.2354 37.168 11.2354H34.8661V15.4362H37.168Z" fill="#2E374F"/>
<path d="M46.0881 12.9768C46.4046 12.5165 46.8362 12.2 47.3829 11.9698C47.9295 11.7396 48.5625 11.6245 49.2819 11.6245V14.0989C48.9941 14.0702 48.7928 14.0702 48.6776 14.0702C47.9008 14.0702 47.2966 14.3004 46.865 14.7319C46.4334 15.1635 46.2032 15.7965 46.2032 16.6597V21.0331H43.4985V11.7396H46.0594V12.9768H46.0881Z" fill="#2E374F"/>
<path d="M54.3442 21.1925C53.3659 21.1925 52.4739 20.9911 51.6971 20.5883C50.9203 20.1855 50.316 19.61 49.8844 18.8908C49.4529 18.1714 49.2227 17.337 49.2227 16.4163C49.2227 15.4956 49.4529 14.6612 49.8844 13.9419C50.316 13.2226 50.9203 12.6471 51.6971 12.2443C52.4739 11.8415 53.3659 11.6113 54.3442 11.6113C55.3224 11.6113 56.1856 11.8127 56.9625 12.2443C57.7393 12.6471 58.3435 13.2226 58.7751 13.9419C59.2067 14.6612 59.4369 15.4956 59.4369 16.4163C59.4369 17.337 59.2067 18.1714 58.7751 18.8908C58.3435 19.61 57.7393 20.1855 56.9625 20.5883C56.1856 20.9911 55.3224 21.1925 54.3442 21.1925ZM54.3442 18.977C55.0347 18.977 55.6101 18.7469 56.0417 18.2865C56.5021 17.8262 56.7035 17.1932 56.7035 16.4163C56.7035 15.6395 56.4733 15.0065 56.0417 14.5461C55.6101 14.0857 55.0347 13.8268 54.3442 13.8268C53.6536 13.8268 53.0782 14.057 52.6466 14.5461C52.1862 15.0065 51.9848 15.6395 51.9848 16.4163C51.9848 17.1932 52.215 17.8262 52.6466 18.2865C53.0782 18.7469 53.6536 18.977 54.3442 18.977Z" fill="#2E374F"/>
<path d="M71.6365 8.9624V21.0468H69.335L63.3217 13.7098V21.0468H60.5596V8.9624H62.8614L68.8745 16.2994V8.9624H71.6365Z" fill="#2E374F"/>
<path d="M77.1905 11.6113C78.6292 11.6113 79.7222 11.9566 80.499 12.6471C81.2764 13.3376 81.6501 14.3447 81.6501 15.7258V21.0487H79.1183V19.8978C78.6005 20.7609 77.6796 21.1925 76.2983 21.1925C75.579 21.1925 74.9751 21.0774 74.4279 20.8185C73.9101 20.5883 73.5077 20.243 73.2487 19.8114C72.9605 19.3798 72.8457 18.8908 72.8457 18.3728C72.8457 17.5097 73.162 16.8191 73.824 16.33C74.4859 15.8409 75.4929 15.5819 76.8448 15.5819H78.9742C78.9742 15.0065 78.8014 14.5461 78.4277 14.2296C78.082 13.9131 77.5355 13.7405 76.8161 13.7405C76.327 13.7405 75.8379 13.8268 75.3487 13.9706C74.8883 14.1145 74.4859 14.3159 74.1403 14.6036L73.162 12.7335C73.6798 12.3882 74.2844 12.1005 74.9751 11.8991C75.6944 11.7264 76.4424 11.6113 77.1905 11.6113ZM76.989 19.3798C77.4494 19.3798 77.8524 19.2648 78.2261 19.0634C78.5711 18.8332 78.8301 18.5167 78.9742 18.1139V17.1644H77.1331C76.0394 17.1644 75.4642 17.5384 75.4642 18.2578C75.4642 18.603 75.6077 18.8907 75.8666 19.0922C76.1255 19.2648 76.4998 19.3798 76.989 19.3798Z" fill="#2E374F"/>
<path d="M89.2148 20.5805C88.9559 20.782 88.6109 20.9258 88.2365 21.0409C87.8628 21.1272 87.4598 21.1848 87.028 21.1848C85.935 21.1848 85.0715 20.897 84.4676 20.3504C83.863 19.7749 83.5754 18.9693 83.5754 17.876V14.0204H82.1367V11.9488H83.5754V9.67578H86.28V11.9488H88.5822V14.0204H86.28V17.7896C86.28 18.1925 86.3667 18.4801 86.5676 18.7103C86.7691 18.9117 87.0567 19.0268 87.4311 19.0268C87.8628 19.0268 88.2078 18.9117 88.5241 18.6816L89.2148 20.5805Z" fill="#2E374F"/>
<path d="M99.2297 11.7393V21.0327H96.6686V19.9394C96.3236 20.3422 95.8919 20.6587 95.4028 20.8601C94.9136 21.0615 94.3671 21.1766 93.7912 21.1766C92.5828 21.1766 91.6045 20.8313 90.8851 20.112C90.1658 19.4215 89.8208 18.3569 89.8208 16.9758V11.7393H92.5254V16.6018C92.5254 18.098 93.1586 18.8461 94.3958 18.8461C95.0284 18.8461 95.5462 18.6446 95.9493 18.2131C96.3523 17.7815 96.5245 17.1485 96.5245 16.3428V11.7393H99.2297Z" fill="#2E374F"/>
<path d="M103.431 12.9768C103.747 12.5165 104.179 12.2 104.726 11.9698C105.272 11.7396 105.905 11.6245 106.625 11.6245V14.0989C106.337 14.0702 106.136 14.0702 106.02 14.0702C105.243 14.0702 104.64 14.3004 104.208 14.7319C103.776 15.1635 103.546 15.7965 103.546 16.6597V21.0331H100.841V11.7396H103.402V12.9768H103.431Z" fill="#2E374F"/>
<path d="M116.348 16.4451C116.348 16.4739 116.32 16.7328 116.291 17.1644H109.27C109.385 17.7398 109.702 18.2002 110.162 18.5167C110.622 18.8619 111.227 19.0058 111.918 19.0058C112.407 19.0058 112.838 18.9483 113.183 18.8044C113.557 18.6605 113.903 18.4304 114.248 18.1139L115.686 19.6676C114.824 20.6746 113.528 21.1637 111.86 21.1637C110.824 21.1637 109.874 20.9623 109.069 20.5595C108.263 20.1567 107.63 19.5813 107.198 18.8619C106.767 18.1427 106.537 17.3083 106.537 16.3875C106.537 15.4668 106.738 14.6612 107.17 13.9419C107.601 13.1938 108.205 12.6471 108.954 12.2443C109.702 11.8415 110.565 11.6113 111.486 11.6113C112.407 11.6113 113.212 11.8127 113.96 12.1867C114.708 12.5896 115.283 13.1362 115.686 13.8843C116.147 14.6324 116.348 15.4668 116.348 16.4451ZM111.543 13.6541C110.939 13.6541 110.421 13.8268 110.018 14.1721C109.615 14.5173 109.356 14.9777 109.27 15.5819H113.845C113.759 15.0065 113.5 14.5173 113.097 14.1721C112.637 13.8268 112.148 13.6541 111.543 13.6541Z" fill="#2E374F"/>
<path fill-rule="evenodd" clip-rule="evenodd" d="M16.7389 2.23123C16.3361 2.00105 15.8182 2.00105 15.4154 2.23123C12.5094 3.9288 10.524 7.06498 10.524 10.6903C10.524 11.2082 10.5529 11.6974 10.6392 12.2153C8.62511 11.5247 6.46714 11.7836 4.68325 12.7907C4.28044 13.0209 4.02148 13.4524 4.02148 13.9416C4.02148 16.4448 5.31625 18.8905 7.64685 20.214C8.79774 20.8757 10.0349 21.1922 11.2722 21.1922C11.0995 21.7101 10.9844 22.2856 10.9844 22.8898C10.9844 25.7095 13.2574 27.9825 16.0771 27.9825C18.8969 27.9825 21.1699 25.7095 21.1699 22.8898C21.1699 22.2856 21.0548 21.7101 20.8821 21.1922C22.033 21.1635 23.2127 20.847 24.2773 20.214C26.6078 18.8617 27.9026 16.4448 27.9026 13.9416C27.9026 13.4813 27.6436 13.0209 27.2408 12.7907C25.5432 11.8124 23.4717 11.5535 21.5151 12.1289C21.5727 11.6685 21.6302 11.1794 21.6302 10.6903C21.6302 7.06498 19.6737 3.9288 16.7389 2.23123ZM13.1999 10.6903C13.1999 8.33098 14.322 6.25936 16.1059 4.9646C17.861 6.25936 19.0119 8.33098 19.0119 10.6903C19.0119 13.0496 17.8898 15.1213 16.1059 16.416C14.322 15.1213 13.1999 13.0496 13.1999 10.6903ZM21.3137 15.0925C22.5509 14.3732 23.9608 14.3156 25.198 14.7472C24.9678 16.042 24.1909 17.2217 22.9538 17.941C21.7165 18.6602 20.3067 18.7178 19.0695 18.2862C19.2996 16.9627 20.0765 15.783 21.3137 15.0925ZM6.78364 14.7472C8.02088 14.2868 9.43075 14.3732 10.6679 15.0925C11.9052 15.8118 12.682 16.9915 12.9122 18.2862C11.6749 18.7466 10.2651 18.6602 9.0279 17.941C7.79072 17.2217 7.01381 16.042 6.78364 14.7472ZM13.6603 22.8898C13.6603 21.5375 14.7536 20.4441 16.1059 20.4441C17.4582 20.4441 18.5516 21.5375 18.5516 22.8898C18.5516 24.2421 17.4582 25.3354 16.1059 25.3354C14.7536 25.3354 13.6603 24.2421 13.6603 22.8898Z" fill="#2E374F"/>
</svg>
