<svg width="91" height="30" viewBox="0 0 91 30" fill="none" xmlns="http://www.w3.org/2000/svg">
<g clip-path="url(#clip0_30_32)">
<path opacity="0.5" fill-rule="evenodd" clip-rule="evenodd" d="M2.34016 10.9971C2.32508 10.9766 2.33106 10.9194 2.29635 10.9322C2.28004 10.9978 2.26364 11.0642 2.24714 11.1313C2.27986 11.1472 2.30943 11.0659 2.34016 10.9971ZM2.27303 21.4628C1.67823 20.4819 1.26014 19.4042 1.03777 18.2788C0.978987 18.2038 0.941362 18.1144 0.928811 18.02C0.886141 17.7955 0.94418 17.7747 0.886148 17.519C0.728824 17.5073 0.933659 18.235 0.756421 18.175C0.803076 18.3191 0.848397 18.4626 0.892399 18.6054C0.915157 18.6765 0.935641 18.7476 0.958971 18.8188C0.982301 18.8899 1.0082 18.959 1.03267 19.029L1.17689 19.4481C1.22668 19.5869 1.28301 19.7232 1.33535 19.8611C1.55102 20.4213 1.80364 20.9665 2.09153 21.4933C2.11574 21.5332 2.14993 21.5662 2.19072 21.5889C2.23152 21.6117 2.27753 21.6234 2.32424 21.623C2.28327 21.5442 2.2332 21.454 2.27303 21.4628ZM8.0126 27.9324C7.96432 27.8983 7.91904 27.8603 7.87718 27.8186C7.8949 27.8652 7.92239 27.9075 7.95776 27.9428C7.99313 27.978 8.03555 28.0053 8.0823 28.0229C8.0982 28.0021 8.06123 27.9691 8.0126 27.9324ZM19.0644 28.9989C19.1447 28.9578 19.2312 28.9303 19.3204 28.9176C19.2759 28.9042 19.229 28.9006 19.183 28.9073C19.137 28.914 19.093 28.9308 19.0542 28.9563C19.2388 28.9125 18.8405 29.0413 19.0638 28.9978L19.0644 28.9989ZM24.7257 26.4101C24.8395 26.3231 24.8517 26.2812 24.8162 26.2607C24.7033 26.3483 24.6913 26.3902 24.7263 26.4107L24.7257 26.4101ZM29.306 10.9137C29.3249 10.9922 29.3439 11.0716 29.3629 11.1518C29.3819 11.232 29.4022 11.3127 29.4238 11.3939C29.4349 11.4343 29.4434 11.4756 29.4522 11.5168C29.4611 11.5581 29.4693 11.5996 29.4781 11.6408C29.5126 11.8067 29.549 11.9731 29.582 12.139C29.6047 12.2838 29.6277 12.4306 29.6508 12.5785C29.6622 12.6527 29.6736 12.7271 29.6849 12.8018C29.6963 12.8767 29.7009 12.9523 29.7088 13.028C29.7242 13.1794 29.7399 13.3319 29.7555 13.4847C29.7663 13.6377 29.7731 13.7913 29.7839 13.9449L29.7976 14.1754C29.8024 14.2519 29.8007 14.329 29.803 14.4055C29.806 14.5587 29.8093 14.7113 29.8127 14.8633V14.9202V14.9771L29.8109 15.0908C29.8109 15.1663 29.8093 15.2411 29.8081 15.3159C29.807 15.3907 29.8081 15.4649 29.8081 15.5389C29.8081 15.5759 29.8081 15.6126 29.8081 15.6493C29.8081 15.686 29.805 15.7227 29.8036 15.7591C29.7979 15.9059 29.8007 16.0462 29.8036 16.1858C29.8036 16.2558 29.807 16.3261 29.8036 16.3958C29.8001 16.4655 29.7945 16.5364 29.7865 16.6077C29.7703 16.752 29.7475 16.9065 29.7222 17.0658C29.6912 17.2239 29.6539 17.3867 29.6195 17.5494C29.6024 17.6308 29.5854 17.7119 29.5683 17.7927C29.5512 17.8734 29.5323 17.9524 29.5114 18.0296C29.4753 18.1855 29.4445 18.3368 29.4232 18.4794C29.4001 18.5111 29.3806 18.5452 29.3649 18.5812C29.3556 18.6066 29.3495 18.6331 29.347 18.6601C29.3351 18.754 29.3056 18.8448 29.2599 18.9278C29.2779 18.9767 29.3003 19.0754 29.3418 19.0091C29.3695 18.9839 29.3899 18.9516 29.4007 18.9158C29.4149 18.8367 29.432 18.7631 29.4505 18.6927C29.469 18.6225 29.4898 18.5559 29.5042 18.4888C29.5393 18.3551 29.5654 18.2191 29.5822 18.082C29.6187 17.983 29.657 17.8851 29.6863 17.7855C29.7156 17.686 29.7433 17.5864 29.7683 17.4868C29.7934 17.3872 29.8183 17.2877 29.8414 17.1887L29.8582 17.1138L29.8716 17.0388L29.8963 16.8883C29.9122 16.7877 29.9272 16.6871 29.9413 16.5864C29.9546 16.4854 29.9697 16.385 29.9762 16.2828C29.9919 16.0789 30.0047 15.8735 30.0161 15.6658C30.0291 14.759 29.9884 13.8521 29.8943 12.9501C29.8742 12.8976 29.8569 12.8442 29.8423 12.7899C29.8232 12.7302 29.805 12.6633 29.7879 12.5888C29.7763 12.4924 29.7637 12.3897 29.7507 12.2833C29.7444 12.2297 29.738 12.1752 29.7316 12.1197C29.7245 12.0645 29.7143 12.009 29.7055 11.9529C29.6869 11.8391 29.6679 11.7253 29.6485 11.6115C29.6379 11.5547 29.6274 11.4977 29.6169 11.4409C29.6067 11.384 29.591 11.3288 29.5777 11.2736C29.5492 11.1635 29.5208 11.0563 29.4901 10.9538C29.4747 10.9026 29.459 10.8529 29.4431 10.8047C29.4349 10.7805 29.4266 10.757 29.4186 10.7334C29.4107 10.7097 29.3996 10.6881 29.3902 10.6656C29.3309 10.5135 29.2482 10.3716 29.1453 10.2449C29.1763 10.3851 29.213 10.5316 29.2534 10.6827C29.2702 10.7581 29.2878 10.8352 29.306 10.9137ZM26.8375 6.03956C27.3587 6.80202 27.8181 7.60494 28.2113 8.44061C28.5664 9.18642 28.8262 9.97389 28.9848 10.7845C29.0059 10.8431 29.0222 10.9032 29.0337 10.9643C29.0459 11.0212 29.0559 11.0782 29.0662 11.135C29.0817 11.2381 29.1109 11.3387 29.153 11.4341C29.0807 11.4341 29.1626 11.7834 29.2161 11.9461C29.2599 11.9919 29.3467 12.0278 29.3552 11.9717C29.3245 11.8351 29.2958 11.6946 29.2699 11.5552C29.2582 11.4855 29.2414 11.4172 29.2266 11.3496C29.2119 11.2818 29.1982 11.2153 29.186 11.1504C29.1598 11.0204 29.1407 10.8943 29.1216 10.7834C29.1026 10.6725 29.0849 10.5714 29.0767 10.4875C29.0482 10.3834 29.0226 10.2759 28.997 10.1658C28.9714 10.0557 28.9373 9.94473 28.9066 9.83177C28.8759 9.71889 28.8457 9.60252 28.8147 9.48614C28.7837 9.36977 28.7418 9.2557 28.704 9.13961C28.6662 9.02359 28.628 8.90694 28.5848 8.79287C28.5416 8.67873 28.4915 8.5678 28.4426 8.45742C28.4179 8.40224 28.3926 8.34761 28.3666 8.29354C28.341 8.23947 28.3154 8.18575 28.2853 8.13482C28.2267 8.03184 28.1658 7.93201 28.1026 7.83635C28.0679 7.75389 28.0318 7.67512 27.9948 7.59887C27.9578 7.52261 27.9131 7.45291 27.8713 7.38321C27.7859 7.2441 27.7006 7.11119 27.6107 6.98066C27.4204 6.7246 27.2369 6.46402 27.0312 6.15706C26.9575 6.09333 26.8506 5.94113 26.8375 6.03956ZM26.9533 6.59601C26.8419 6.48368 26.7199 6.38248 26.5889 6.29389C26.6571 6.37184 26.7209 6.45407 26.7829 6.53856C26.8136 6.58067 26.844 6.62324 26.8742 6.66629C26.9026 6.70982 26.9311 6.75533 26.9596 6.79999C27.0164 6.88989 27.0716 6.9801 27.1302 7.06968C27.1888 7.15933 27.2523 7.24661 27.3134 7.3371L27.3507 7.3138C27.3094 7.19205 27.2527 7.07603 27.182 6.9687C27.1121 6.85376 27.0355 6.73344 26.9533 6.59489V6.59601ZM26.7777 5.88594C26.6579 5.73656 26.5303 5.59346 26.3957 5.45721C26.454 5.55593 26.7468 5.95934 26.7777 5.88594ZM15.2383 0.354911C15.2776 0.37198 15.2682 0.38335 15.2295 0.391601C15.2039 0.396296 15.1781 0.399542 15.1521 0.401289L15.0457 0.412663C14.891 0.427171 14.6969 0.438835 14.619 0.457896C14.5698 0.426772 14.5153 0.404973 14.4583 0.393597C14.4583 0.416925 14.316 0.416362 14.3058 0.438552C14.3549 0.429755 14.4047 0.426125 14.4546 0.427735C14.4793 0.431148 14.483 0.438265 14.485 0.4468C14.485 0.463869 14.4728 0.485484 14.5703 0.490035C14.5351 0.49083 14.5001 0.495131 14.4657 0.50285C14.4329 0.51185 14.3994 0.517933 14.3655 0.521048C14.555 0.46415 14.1223 0.502564 14.1078 0.533289C14.1588 0.522477 14.2115 0.522477 14.2625 0.533289C14.2625 0.552065 14.1991 0.561731 14.2162 0.582498C14.2864 0.564575 14.3656 0.550068 14.4512 0.537265C14.5368 0.524464 14.6296 0.521624 14.7262 0.514797C14.92 0.503132 15.1305 0.483788 15.3439 0.473263C15.3877 0.404416 15.2104 0.494304 15.188 0.444803C15.2693 0.422613 15.5988 0.412098 15.5499 0.473263C15.6323 0.467572 15.714 0.463011 15.7942 0.459597C15.8346 0.457037 15.8744 0.45789 15.9143 0.459597L16.0324 0.461872L16.4875 0.473263H16.5424L16.5968 0.476666L16.704 0.482639C16.7751 0.486052 16.8463 0.488627 16.9134 0.48948C16.9805 0.490333 17.0494 0.489475 17.1156 0.487483C17.1819 0.485492 17.2471 0.479237 17.3109 0.476961C17.5126 0.560392 17.7389 0.56172 17.9416 0.480659C17.618 0.434276 17.2917 0.410792 16.9649 0.410388C16.8286 0.408681 16.698 0.406971 16.5615 0.400144C16.4247 0.398152 16.2816 0.39446 16.1203 0.381373C15.9759 0.410424 15.8272 0.409651 15.6832 0.379098C15.5372 0.350389 15.3878 0.342243 15.2395 0.354911H15.2383ZM13.9012 0.540686C13.7982 0.580799 13.9075 0.602692 14.0122 0.602692C14.0162 0.565709 14.0142 0.530729 13.9012 0.540686ZM13.6614 0.690032C13.6227 0.665246 13.5779 0.651754 13.532 0.65105C13.486 0.650346 13.4408 0.662466 13.4014 0.686055C13.4881 0.697071 13.5758 0.698789 13.6629 0.691178L13.6614 0.690032ZM12.4859 0.830572C12.6463 0.761726 12.9226 0.766282 12.9346 0.707677C12.7791 0.721826 12.6268 0.763442 12.4859 0.830572ZM12.186 0.905119C12.0822 0.927382 11.9849 0.973212 11.9016 1.03909C12.0052 1.01575 12.1019 0.970031 12.186 0.905119ZM6.57905 2.90734C6.69402 2.90233 6.80408 2.85931 6.89197 2.78501C6.78081 2.80545 6.6746 2.84697 6.57905 2.90734ZM16.3729 1.48489L16.2178 1.48944C16.1165 1.49314 16.0187 1.49827 15.9313 1.50936C15.8891 1.51417 15.8473 1.52178 15.8062 1.53213C15.7686 1.54227 15.732 1.55539 15.6966 1.57138C15.6172 1.57728 15.5374 1.57279 15.4591 1.55802L15.2215 1.58645C15.1425 1.5967 15.0631 1.61492 14.9837 1.62744L14.745 1.67095L14.6252 1.69286C14.5855 1.69997 14.5453 1.70709 14.5052 1.71732L14.0216 1.82799C13.9399 1.8442 13.8588 1.86866 13.7769 1.89029L13.5297 1.95516C12.8668 2.13325 12.1744 2.34036 11.4069 2.57876C11.2739 2.58872 11.1422 2.59697 11.0102 2.60493C10.9437 2.60749 10.8794 2.6166 10.8142 2.62314L10.6174 2.64447L10.4183 2.66781L10.3169 2.68032C10.2834 2.68516 10.2501 2.6917 10.2162 2.69767C10.0817 2.72185 9.94341 2.74889 9.80032 2.78018C9.67341 2.78815 9.55278 2.80322 9.42762 2.81972C9.30246 2.83622 9.1736 2.85557 9.03588 2.88344C8.88832 2.91822 8.74292 2.96193 8.60067 3.01431C8.52239 3.04277 8.4402 3.07404 8.35544 3.11131C8.2706 3.14858 8.18472 3.19525 8.09339 3.24475C8.00688 3.31625 7.92518 3.38718 7.84816 3.45755C7.77274 3.53038 7.70423 3.6049 7.63823 3.67659C7.5146 3.80906 7.40046 3.95014 7.29685 4.09877C7.20037 4.23732 7.11644 4.36847 7.04081 4.49052C6.96509 4.61256 6.90791 4.7349 6.85044 4.8413C6.80203 4.8911 6.75753 4.94454 6.71731 5.00117C6.68661 5.04266 6.6611 5.08777 6.64135 5.13546C6.61584 5.19805 6.59751 5.26332 6.58672 5.33004L6.41433 5.53943L6.32897 5.64072L6.25075 5.74455C6.14748 5.88167 6.04562 6.01424 5.94349 6.14682C5.84734 6.28422 5.75005 6.42107 5.64849 6.56018C5.62345 6.59517 5.59671 6.6293 5.57224 6.66572L5.49884 6.77639L5.3455 7.00396L5.26613 7.11775C5.25305 7.13652 5.23996 7.15473 5.22688 7.17321L5.18989 7.23014C5.14067 7.30438 5.09116 7.37582 5.04138 7.44524C4.99159 7.51466 4.94181 7.58149 4.89173 7.64694C4.86584 7.6791 4.84337 7.71294 4.81976 7.74566L4.74921 7.84347C4.65561 7.97268 4.55804 8.09442 4.46472 8.21645C4.37142 8.33854 4.28522 8.46287 4.19475 8.58489C4.10428 8.70691 4.02007 8.83298 3.93586 8.96156L3.8104 9.15782L3.7481 9.25828C3.72847 9.2924 3.70998 9.3277 3.6912 9.36294C3.6161 9.50519 3.54242 9.65115 3.47101 9.80617C3.45224 9.84461 3.43659 9.88473 3.42123 9.9254L3.37542 10.0492C3.34527 10.1327 3.31587 10.2188 3.28723 10.3072C3.24428 10.3578 3.20839 10.4141 3.18055 10.4745C3.18503 10.5905 3.15653 10.7054 3.09833 10.8059C3.06649 10.8551 3.04606 10.9107 3.03853 10.9688C3.031 11.0269 3.03655 11.0859 3.0548 11.1416C3.16159 10.9884 3.25108 10.8237 3.32165 10.6508C3.36375 10.5473 3.41439 10.4409 3.45935 10.3322C3.50429 10.2235 3.54468 10.1137 3.58025 10.0079C3.64924 9.93482 3.70267 9.84845 3.73728 9.75412C3.7828 9.64801 3.82633 9.52654 3.88465 9.41645C3.9206 9.34856 3.96219 9.28389 4.00897 9.22298C4.05336 9.16242 4.09888 9.10494 4.14355 9.04891C4.21865 8.9564 4.28749 8.86738 4.35349 8.77919C3.69148 9.83038 3.189 10.9739 2.86248 12.1725C2.84225 12.1376 2.81051 12.1108 2.77267 12.0967C2.73484 12.0825 2.69326 12.0821 2.65509 12.0952C2.6222 12.1577 2.58602 12.2183 2.5467 12.277C2.51057 12.3338 2.4696 12.3871 2.43575 12.4477C2.3465 12.5969 2.27545 12.7564 2.2241 12.9225C2.21016 12.8266 2.18882 12.9119 2.15213 12.9131C2.14274 12.9652 2.13021 13.0235 2.12509 13.0838C2.11997 13.1441 2.11229 13.2033 2.10489 13.2573C2.10713 13.2934 2.10219 13.3296 2.09038 13.3638C2.07856 13.3979 2.0601 13.4295 2.03605 13.4565C2.09892 12.9288 2.0076 12.8462 2.04402 12.4397C2.03323 12.3509 2.00814 12.2644 1.96975 12.1836C1.94195 12.1329 1.90546 12.0875 1.86194 12.0494C1.81248 12.0138 1.77115 11.9681 1.74069 11.9153C1.71023 11.8626 1.69133 11.8039 1.68526 11.7433C1.70746 11.6781 1.72283 11.6411 1.73449 11.601C1.74064 11.579 1.74566 11.5567 1.74956 11.5342C1.75497 11.5086 1.75981 11.4773 1.76493 11.4394C1.69153 11.3305 1.61472 11.518 1.61898 11.2417C1.57693 11.2871 1.54622 11.3417 1.52938 11.4013C1.50443 11.4809 1.48373 11.5617 1.46735 11.6434C1.34618 11.7631 1.25747 11.9116 1.2096 12.075C1.16714 12.1847 1.13049 12.2966 1.09979 12.4101L0.996806 12.7631C0.990262 12.8067 0.983725 12.8485 0.977466 12.8923C0.971208 12.9361 0.967783 12.9777 0.962948 13.0194C0.952894 13.1033 0.94342 13.1855 0.934504 13.2661C0.923697 13.3469 0.912883 13.426 0.902641 13.504C0.896955 13.5429 0.891555 13.5814 0.886148 13.6198C0.880741 13.6582 0.877887 13.6963 0.873332 13.7335C0.85769 13.8849 0.840918 14.032 0.823846 14.1765C0.815599 14.2485 0.806201 14.3187 0.799085 14.3907C0.791976 14.4627 0.788285 14.533 0.783164 14.6024C0.772636 14.7426 0.762666 14.8817 0.754702 15.0209C0.75271 15.0555 0.749877 15.0903 0.749023 15.125V15.2294V15.4391C0.749023 15.5796 0.752438 15.7215 0.76012 15.8658C0.772636 16.0098 0.788752 16.1568 0.808483 16.3068C0.783094 16.35 0.766525 16.3978 0.759737 16.4475C0.75295 16.4971 0.756084 16.5477 0.768946 16.5961C0.786932 16.7407 0.817573 16.8835 0.860536 17.0228C0.840052 17.1286 0.75186 17.0797 0.764948 17.2635C0.828108 17.4083 0.817301 17.2035 0.857132 17.1912C0.885583 17.2894 0.934218 17.4518 0.970915 17.6097C1.00516 17.7374 1.02521 17.8685 1.03066 18.0006C1.12382 18.2279 1.20268 18.4607 1.2668 18.6979C1.31146 18.8307 1.35925 18.9659 1.40705 19.0944C1.43123 19.1588 1.45569 19.2211 1.48072 19.2808C1.50359 19.3382 1.52981 19.3942 1.55924 19.4487C1.56293 19.5625 1.578 19.6757 1.60419 19.7866C1.63864 19.9469 1.68699 20.1038 1.74871 20.2557C1.78288 20.2613 1.81559 20.2737 1.84491 20.2921C1.87422 20.3105 1.89954 20.3346 1.9194 20.363C1.97886 20.4796 2.03178 20.5905 2.07985 20.697C2.12794 20.8034 2.18001 20.9024 2.2241 21.0005C2.26819 21.0987 2.30944 21.194 2.3487 21.2879L2.37714 21.3581C2.38795 21.3809 2.39848 21.4037 2.409 21.4264C2.42968 21.4719 2.45055 21.5173 2.4716 21.5624C2.51314 21.6529 2.55468 21.7433 2.5982 21.8344C2.64173 21.9254 2.68583 22.0184 2.74045 22.1094C2.79507 22.2005 2.8494 22.295 2.91113 22.3914C2.94214 22.4394 2.97429 22.4884 3.00815 22.5382L3.0602 22.6133L3.1171 22.6873C3.19042 22.8414 3.27318 22.9908 3.3649 23.1348C3.41497 23.2201 3.47585 23.3034 3.53786 23.3908L3.73131 23.6563C3.76403 23.7188 3.79703 23.784 3.83487 23.848C3.8727 23.912 3.91396 23.9763 3.95607 24.042C4.04142 24.1732 4.13045 24.3097 4.22859 24.4471C4.44026 24.731 4.66904 25.0016 4.91365 25.2576C5.16948 25.5241 5.44059 25.7756 5.72558 26.0106C6.00604 26.2377 6.29988 26.4476 6.60551 26.6394C6.66604 26.7341 6.73905 26.8202 6.82258 26.8954C6.91838 26.9786 7.0197 27.0552 7.12585 27.1247C7.23483 27.199 7.34806 27.2715 7.45816 27.3443C7.57195 27.4121 7.68085 27.4804 7.77902 27.5509C7.8573 27.6078 7.93467 27.6647 8.01204 27.7215L8.0689 27.7648L8.12841 27.8055L8.24758 27.8872C8.4072 27.9955 8.56592 28.1074 8.7312 28.2095C8.89648 28.3116 9.0686 28.4015 9.2433 28.4874C9.28739 28.5087 9.3312 28.5306 9.37613 28.5497C9.42106 28.5688 9.46718 28.5861 9.51302 28.6032C9.60518 28.6377 9.69846 28.6695 9.7932 28.6979C9.83248 28.7023 9.87211 28.7031 9.91153 28.7002C9.97753 28.7286 10.0456 28.7611 10.1178 28.7887C10.1901 28.8163 10.2646 28.8421 10.3412 28.8692C10.4942 28.9227 10.6541 28.977 10.8168 29.0305L11.3132 29.1699L11.5579 29.2396L11.7989 29.2993C11.9112 29.3278 12.0216 29.3594 12.1315 29.3921L12.2958 29.4416L12.4617 29.4837C12.5724 29.5121 12.6833 29.5384 12.7957 29.5622C12.8526 29.5741 12.9089 29.5852 12.9647 29.5955C12.9932 29.6003 13.0216 29.6055 13.05 29.6097L13.1354 29.6185C13.3737 29.6432 13.6133 29.6528 13.8528 29.647C14.042 29.6368 14.2294 29.6054 14.4116 29.5534C14.4631 29.5588 14.5154 29.5622 14.5689 29.5625C14.6224 29.5628 14.6764 29.5574 14.7311 29.5528C14.8406 29.5437 14.9515 29.5298 15.0625 29.5184C15.2783 29.4867 15.4972 29.484 15.7137 29.5104C15.7786 29.4718 15.8526 29.4511 15.9282 29.4504C15.9835 29.449 16.0386 29.4574 16.0909 29.4754C16.0841 29.4208 16.0295 29.4368 16.0878 29.3875C16.0132 29.3998 15.9481 29.4026 15.8886 29.4078L15.7228 29.4208C15.6112 29.4297 15.5003 29.4455 15.3905 29.468C15.3538 29.4658 15.3282 29.4606 15.2978 29.4567C15.2573 29.45 15.2162 29.4472 15.1751 29.4481C14.8818 29.4797 14.5604 29.5218 14.2142 29.5269L13.9493 29.5337L13.8131 29.5355L13.6753 29.5301C13.4901 29.5221 13.2984 29.5107 13.1009 29.4945C12.9117 29.4735 12.7226 29.4376 12.5362 29.4043L12.3971 29.3759C12.351 29.3671 12.3053 29.3579 12.2606 29.346L11.9949 29.2789L11.7388 29.216C11.6558 29.1955 11.5741 29.1796 11.497 29.1591C11.3542 29.1209 11.2093 29.0913 11.0629 29.0706C11.0109 29.0399 10.9651 28.9997 10.928 28.952C10.8927 28.948 10.8578 28.9417 10.8233 28.9332C10.7898 28.9244 10.7568 28.9141 10.724 28.9028C10.6592 28.8803 10.5955 28.8535 10.5306 28.8254C10.3915 28.761 10.249 28.7041 10.1039 28.6547C9.87944 28.5742 9.66602 28.5606 9.41255 28.4575C9.16083 28.3437 8.96395 28.2299 8.7582 28.113C8.65697 28.0516 8.55539 27.985 8.44327 27.9167C8.33123 27.8484 8.20864 27.7774 8.07009 27.6977C7.9406 27.5647 7.79472 27.4488 7.63592 27.3526L7.52213 27.2735C7.49039 27.2502 7.45983 27.2254 7.43053 27.199C7.41078 27.1868 7.39383 27.1708 7.38058 27.1518C7.36739 27.1328 7.35825 27.1113 7.35372 27.0886C7.43416 27.1223 7.50644 27.1728 7.56595 27.2365C7.63516 27.3041 7.71923 27.3545 7.81146 27.3836C7.73388 27.3321 7.66641 27.2668 7.61234 27.191C7.83044 27.2731 8.05516 27.3366 8.28399 27.3807C8.39123 27.4012 8.50132 27.424 8.62369 27.4593C8.68488 27.4769 8.74913 27.4974 8.81772 27.5224C8.85183 27.5346 8.88741 27.548 8.92383 27.5628C8.96025 27.5776 8.99806 27.5939 9.03762 27.6083C9.16481 27.6735 9.28425 27.7318 9.3972 27.7842C9.45413 27.8104 9.50841 27.8348 9.56165 27.8581L9.64013 27.8917C9.66637 27.9022 9.69253 27.911 9.71813 27.9202C9.89862 27.985 10.0823 28.0407 10.2683 28.0871C11.2162 28.514 12.2184 28.808 13.2466 28.9608C13.7816 29.0412 14.3213 29.0855 14.8622 29.0934L15.2506 29.0954C15.3143 29.0954 15.3775 29.0914 15.4403 29.0888L15.6272 29.0791L15.9897 29.0584C16.108 29.0476 16.2232 29.033 16.3356 29.0203C16.4474 29.0245 16.5546 29.0265 16.6613 29.0265C16.7148 29.0265 16.7674 29.0226 16.8207 29.0191C16.8738 29.0157 16.9273 29.0112 16.9814 29.006C17.0895 28.9958 17.2004 28.983 17.3176 28.967L17.407 28.9545L17.4983 28.9366L17.69 28.8962C17.7823 28.9082 17.8756 28.9118 17.9686 28.907C18.02 28.9044 18.0744 28.9025 18.1301 28.8945C18.1859 28.8865 18.2439 28.8772 18.3009 28.8661C18.5547 28.8211 18.8052 28.7591 19.0508 28.6806L19.4271 28.5643C19.5489 28.5224 19.6661 28.4789 19.7776 28.4436C19.8891 28.4083 19.9941 28.3745 20.0906 28.3494C20.1744 28.3229 20.2599 28.3021 20.3466 28.2871C20.4198 28.2153 20.5055 28.1574 20.5995 28.1164C20.6547 28.088 20.7167 28.0647 20.779 28.0351C20.8413 28.0055 20.9076 27.9799 20.9742 27.9543C21.107 27.9034 21.243 27.8587 21.3642 27.8243C21.4603 27.7912 21.5585 27.7643 21.6581 27.7437C21.7261 27.6488 21.8222 27.5775 21.9329 27.5401C22.002 27.5097 22.0735 27.4732 22.1454 27.4434C22.2174 27.4134 22.2876 27.3844 22.3483 27.3608C22.3594 27.3791 22.1744 27.5071 22.369 27.3995C22.4178 27.3758 22.4605 27.3414 22.4939 27.2988C22.5434 27.29 22.5989 27.2769 22.649 27.2667C22.6893 27.2543 22.7319 27.2514 22.7736 27.2581C22.9474 27.166 22.9557 27.1196 23.1289 27.0271C23.0981 27.0965 23.0489 27.1561 22.9866 27.1995C22.8559 27.2941 22.7082 27.3627 22.5516 27.4018C22.5753 27.4303 22.6635 27.3936 22.5334 27.4783C22.4276 27.4317 22.243 27.6604 22.0851 27.6528C22.1505 27.6222 22.2093 27.5793 22.2583 27.5264C22.1696 27.5802 22.0746 27.6442 21.9773 27.6971L21.709 27.8507C21.7596 27.826 21.8336 27.799 21.7631 27.8413C22.609 27.5228 23.4063 27.0878 24.132 26.5489C24.8537 26.0118 25.5195 25.4036 26.1194 24.7333C26.2529 24.6408 26.3764 24.5347 26.4879 24.4167C26.5086 24.3899 26.53 24.3643 26.5496 24.3384L26.6065 24.2604L26.7129 24.1148C26.78 24.0218 26.8395 23.9367 26.8884 23.8588C26.9126 23.8198 26.9348 23.7834 26.9527 23.7472C26.969 23.7137 26.9831 23.6791 26.9951 23.6437C27.0163 23.5873 27.0236 23.5266 27.0164 23.4668L26.877 23.6568C26.8313 23.7191 26.7817 23.7774 26.7348 23.8383C26.6392 23.9589 26.5428 24.0813 26.4387 24.2129C26.1749 24.5288 25.8943 24.8302 25.5982 25.1159C25.5414 25.1698 25.4743 25.2117 25.4011 25.2394C25.3278 25.2671 25.2498 25.2798 25.1716 25.277C25.2071 25.2403 25.2429 25.2041 25.2796 25.168L25.3345 25.1136L25.3878 25.0568C25.4594 24.9823 25.5325 24.9084 25.6068 24.8354L25.8318 24.6172C25.9045 24.5414 25.9771 24.4662 26.0497 24.3916L26.2671 24.1674C26.3038 24.1307 26.3365 24.0906 26.3704 24.052L26.4705 23.9351C26.5365 23.8571 26.6011 23.7791 26.6634 23.7009C26.6944 23.6614 26.726 23.623 26.7547 23.5829C26.7835 23.5428 26.8116 23.5014 26.8375 23.4608C26.8992 23.3672 26.91 23.3185 26.9718 23.2332L27.1075 23.0486C27.1513 22.9917 27.1871 22.9348 27.2249 22.8818C27.299 22.7763 27.3672 22.6827 27.4318 22.5954L27.5277 22.4676C27.5596 22.4261 27.5868 22.3823 27.6164 22.3404C27.6747 22.2551 27.7331 22.1698 27.7942 22.0779C27.8226 22.0332 27.8529 21.988 27.8827 21.9428C27.9126 21.8975 27.9422 21.852 27.968 21.8042C28.0221 21.7094 28.0758 21.6139 28.1291 21.5177L28.2884 21.2264C28.3362 21.1263 28.3841 21.026 28.4323 20.9257C28.4805 20.8254 28.5279 20.7251 28.5746 20.6247C28.5993 20.5749 28.619 20.5231 28.6409 20.4722C28.6628 20.4213 28.6839 20.3704 28.7051 20.3198C28.7905 20.1161 28.8819 19.9178 28.9558 19.7164C28.9905 19.6284 29.0395 19.5456 29.0815 19.4603C29.1038 19.4167 29.1228 19.3716 29.1385 19.3252C29.1547 19.2767 29.1635 19.2261 29.1643 19.175C29.1438 19.2296 29.1182 19.2831 29.0946 19.3377C29.071 19.3924 29.0474 19.4473 29.024 19.5022C28.9777 19.6119 28.9331 19.7214 28.8915 19.8282C28.8812 19.8549 28.8713 19.8814 28.8611 19.9075L28.8283 19.9841C28.807 20.0344 28.7868 20.0839 28.7677 20.1317C28.7296 20.2273 28.6963 20.3169 28.6696 20.3977C28.6412 20.4509 28.6098 20.5092 28.5783 20.5718C28.5467 20.6344 28.5071 20.6978 28.4699 20.7658C28.3954 20.9018 28.3171 21.0503 28.2389 21.2002C28.1536 21.3476 28.0682 21.4981 27.986 21.6429C27.9442 21.7152 27.9063 21.7877 27.8648 21.8549L27.7447 22.0486C27.6574 22.1624 27.5741 22.2762 27.4973 22.3874C27.4204 22.4986 27.3342 22.6019 27.2574 22.7086C27.219 22.7621 27.1806 22.815 27.1436 22.8682C27.1066 22.9214 27.0691 22.9752 27.0298 23.0264L26.7925 23.3393L26.6725 23.5003C26.6315 23.5541 26.5871 23.6056 26.5436 23.6593L26.2716 23.9874C26.2255 24.0443 26.1743 24.0989 26.1223 24.1544L25.9624 24.3251C25.8529 24.4388 25.7405 24.5604 25.6102 24.6747C25.4577 24.7258 25.3243 24.8223 25.2281 24.9512C25.1812 24.8778 25.0315 24.9675 24.8353 25.1307C24.7439 25.2426 24.9411 25.1157 24.8452 25.2201C24.8042 25.2584 24.756 25.2881 24.7034 25.3077C24.6508 25.3272 24.5949 25.3361 24.5388 25.3339C24.5923 25.292 24.6438 25.24 24.6927 25.1988C24.7301 25.1636 24.7714 25.1329 24.8159 25.1074C24.7345 25.0864 24.5095 25.3012 24.4541 25.2329C24.5021 25.1922 24.5454 25.1475 24.5898 25.1032L24.7203 24.972C24.8057 24.8844 24.891 24.7981 24.9729 24.7105L25.2071 24.44L25.3229 24.306C25.3613 24.2614 25.4005 24.2181 25.4367 24.1711C25.5095 24.079 25.5829 23.9874 25.6569 23.8963L25.769 23.7606C25.7875 23.7379 25.8071 23.716 25.8258 23.6929L25.8799 23.6227C25.9522 23.5294 26.0265 23.4367 26.1029 23.3447C26.1409 23.2986 26.1798 23.2527 26.2199 23.2068C26.2592 23.1609 26.2958 23.1123 26.3351 23.0645C26.4449 23.0042 26.5506 22.9364 26.6512 22.8617C26.6653 22.7408 26.4193 23.0113 26.3422 23.0062C26.3769 22.9404 26.4202 22.8688 26.4665 22.7945L26.5385 22.6807C26.5633 22.6426 26.5882 22.6044 26.6104 22.5646C26.6953 22.4257 26.7705 22.2811 26.8355 22.1319C26.8574 22.1198 26.8803 22.1097 26.9041 22.1018C26.944 22.0771 26.975 22.0403 26.9928 21.9968C27.0571 21.8993 27.1177 21.8045 27.1746 21.7123C27.203 21.6659 27.2315 21.6207 27.2577 21.5761C27.2838 21.5314 27.312 21.4879 27.3342 21.4423C27.4278 21.2628 27.5111 21.0924 27.5902 20.9271C27.6105 20.8861 27.6275 20.8438 27.6443 20.8019L27.695 20.6773L27.7942 20.4307L27.8437 20.3081L27.8688 20.2467L27.8909 20.1838C27.9205 20.1001 27.9512 20.0157 27.9828 19.9303L28.0557 19.7377C28.0796 19.6737 28.1069 19.6114 28.127 19.5468C28.1709 19.4185 28.2153 19.2908 28.2605 19.1659L28.3288 18.977C28.3507 18.9138 28.3689 18.8495 28.3894 18.7858C28.4295 18.6578 28.4699 18.5298 28.5103 18.4009C28.5205 18.3684 28.5305 18.336 28.5408 18.3038C28.5509 18.2717 28.5583 18.2381 28.5672 18.2051L28.6181 18.006C28.6517 17.8723 28.6864 17.7372 28.7185 17.5989C28.7447 17.4595 28.7702 17.3173 28.7948 17.1721C28.8067 17.0997 28.8188 17.0264 28.8309 16.9522C28.8411 16.8777 28.8474 16.802 28.8551 16.7247C28.8772 16.6478 28.9239 16.7471 28.9342 16.5861C28.9501 16.4951 28.9654 16.3989 28.9805 16.2999C28.9956 16.2009 29.0019 16.0974 29.0129 15.9936C29.0326 15.7853 29.0588 15.5731 29.0699 15.3699C29.0778 15.2687 29.0875 15.1708 29.0983 15.0755C29.1092 14.9802 29.1242 14.8914 29.1342 14.8075C29.1495 14.6648 29.1872 14.5254 29.246 14.3944C29.2414 14.315 29.244 14.2505 29.244 14.1953C29.2444 14.1468 29.2472 14.0982 29.2525 14.0499C29.2619 13.9646 29.2761 13.89 29.2792 13.7854C29.271 13.7387 29.2631 13.6926 29.2545 13.6431L29.2303 13.4837C29.2495 13.3843 29.2495 13.282 29.2303 13.1825L29.2053 12.9777C29.2013 12.943 29.1973 12.9082 29.1936 12.8741C29.1899 12.84 29.1842 12.807 29.1805 12.7748C29.1677 12.6397 29.1632 12.5039 29.1671 12.3683C29.1671 12.3023 29.17 12.2351 29.1671 12.1666C29.1643 12.098 29.1569 12.0281 29.1472 11.9541C29.1262 11.7579 29.0852 11.5644 29.0249 11.3766C28.9777 11.2343 28.9308 11.1311 28.8864 11.0201C28.8727 10.9857 28.8579 10.9492 28.8448 10.9114C28.8318 10.8736 28.8133 10.8352 28.7974 10.7957C28.7649 10.7166 28.7314 10.6352 28.6972 10.5575C28.6483 10.4233 28.5754 10.299 28.4822 10.1908C28.4849 10.2352 28.4904 10.2804 28.4921 10.3254C28.4938 10.3703 28.4938 10.4136 28.4921 10.4528C28.5657 10.6007 28.6573 10.7572 28.745 10.9325C28.8336 11.1235 28.9042 11.3225 28.9555 11.5268C28.9777 11.6517 28.989 11.7783 28.9894 11.9051C28.9919 11.9646 28.9956 12.0238 29.0044 12.0858C29.015 12.1529 29.0295 12.2194 29.0477 12.2849L29.0047 12.2926C29.0411 12.4824 29.069 12.6624 29.09 12.8309C29.0926 12.8519 29.0949 12.8733 29.0974 12.894C29.1 12.9148 29.1003 12.9361 29.1015 12.9569C29.1037 12.9984 29.106 13.0394 29.108 13.0801C29.1117 13.1611 29.114 13.2403 29.1154 13.3176C29.1168 13.395 29.1154 13.471 29.1154 13.5452C29.1154 13.6194 29.1069 13.6935 29.1018 13.7657C29.0909 13.9108 29.0784 14.0502 29.0653 14.1924C29.0522 14.3347 29.0272 14.4718 29.0099 14.6132C28.9925 14.7546 28.9786 14.8977 28.9529 15.0465C28.9273 15.1952 28.9146 15.3488 28.9015 15.5116C28.8998 15.5318 28.8983 15.5523 28.8966 15.5731C28.8949 15.5938 28.8918 15.6143 28.8892 15.6351C28.8846 15.6769 28.8804 15.719 28.8759 15.7619C28.8673 15.8473 28.8602 15.9366 28.8542 16.0285C28.8415 16.0749 28.8283 16.121 28.8159 16.1665L28.7962 16.2342L28.7732 16.3008C28.7424 16.3887 28.7114 16.4743 28.6798 16.5568C28.6243 16.7131 28.5577 16.8652 28.4807 17.012C28.4941 16.9503 28.5092 16.8939 28.5145 16.8413C28.52 16.7887 28.5268 16.7378 28.5308 16.6905C28.5387 16.5961 28.5419 16.5121 28.545 16.4285C28.5481 16.3448 28.5521 16.2627 28.5558 16.1702C28.5595 16.0777 28.5646 15.9762 28.5786 15.8553C28.5664 15.6999 28.5641 15.5392 28.5521 15.3717C28.5401 15.2041 28.5416 15.0348 28.5382 14.8596C28.5296 14.6849 28.5245 14.5068 28.5216 14.3258V14.2579C28.5216 14.2351 28.5191 14.2123 28.5179 14.1896L28.5103 14.0528C28.5057 13.9612 28.5012 13.8691 28.4966 13.7768C28.4658 13.0461 28.3546 12.3209 28.1646 11.6147C28.1238 11.3684 28.0668 11.1251 27.9939 10.8864C27.9584 10.77 27.9217 10.6554 27.8844 10.5416C27.8471 10.4278 27.7991 10.3191 27.7544 10.2084L27.6876 10.0434C27.6645 9.98882 27.644 9.93308 27.6176 9.87956L27.4659 9.55501L27.3902 9.39084C27.3653 9.33594 27.3353 9.2827 27.308 9.2278C27.2511 9.11889 27.1974 9.00852 27.1428 8.89556C27.1289 8.75756 27.0856 8.62417 27.0156 8.50438C26.9775 8.42303 26.9348 8.33735 26.8933 8.25259C26.8517 8.16782 26.8045 8.08814 26.7678 8.01252C26.7036 7.98761 26.6509 7.93961 26.6201 7.87794C26.5752 7.80028 26.5407 7.72828 26.5081 7.66452C26.4783 7.60724 26.4516 7.54849 26.4279 7.48849C26.3914 7.39375 26.3629 7.29621 26.3425 7.19687C26.3325 7.15221 26.3245 7.10812 26.3141 7.06459C26.3035 7.02105 26.2907 6.97926 26.2756 6.93371C26.2408 6.82857 26.1943 6.72769 26.1368 6.63301C26.1035 6.58195 26.0662 6.53363 26.0253 6.48848C25.9775 6.43699 25.9269 6.38323 25.8876 6.33344C25.8306 6.26175 25.7542 6.15222 25.6793 6.04668C25.6426 5.99291 25.6022 5.94396 25.5655 5.89987C25.5288 5.85577 25.4976 5.81823 25.4723 5.79148C25.3804 5.69532 25.2873 5.60343 25.1912 5.51524C25.095 5.42705 24.992 5.34769 24.8899 5.26376L24.7385 5.13631C24.6882 5.09307 24.6336 5.05353 24.5812 5.01028C24.4757 4.92494 24.3704 4.83532 24.2654 4.73717C23.6084 4.14337 22.8957 3.61424 22.1372 3.15711C21.9693 3.03763 21.7952 2.9271 21.6157 2.82597C21.5167 2.77334 21.412 2.72328 21.3056 2.67151C21.1992 2.61972 21.0899 2.56625 20.9776 2.51646L20.6337 2.37422C20.5181 2.32699 20.4061 2.27322 20.2869 2.23197C20.1677 2.19072 20.0545 2.14206 19.9412 2.09484C19.8843 2.07132 19.8282 2.04732 19.7728 2.02286L19.6061 1.95658C19.5142 1.94065 19.4169 1.91959 19.3156 1.89456C19.2143 1.86952 19.1094 1.83767 18.9989 1.81434C18.8886 1.79101 18.7765 1.76029 18.6627 1.73127L18.492 1.68716C18.4351 1.67124 18.3759 1.66242 18.3179 1.6499C18.2016 1.62658 18.0855 1.6041 17.9711 1.58333L17.8004 1.55489C17.7436 1.54777 17.6883 1.54294 17.6337 1.53782C17.5242 1.52843 17.4186 1.52217 17.3188 1.52017C17.2247 1.5165 17.1304 1.52126 17.0372 1.5344C16.9774 1.50695 16.9148 1.48614 16.8505 1.47238C16.7455 1.48062 16.638 1.48205 16.5316 1.48092C16.4773 1.4812 16.4241 1.48377 16.3714 1.48519L16.3729 1.48489ZM5.24195 7.44468C5.2667 7.40366 5.29117 7.36298 5.31591 7.32119C5.32844 7.3004 5.34067 7.27933 5.35348 7.2577L5.39529 7.19401C5.45218 7.10666 5.51534 7.01107 5.59073 6.89673C5.62942 6.83982 5.6667 6.78008 5.70681 6.72347L5.82999 6.55676L6.07152 6.22646C6.15516 6.12206 6.23652 6.01851 6.3139 5.91723L6.4277 5.76644C6.46525 5.71751 6.50422 5.67171 6.54149 5.6242C6.7878 5.35355 6.9786 5.03721 7.10311 4.69309C7.23378 4.58653 7.33788 4.45104 7.40723 4.29734C7.43939 4.23191 7.46778 4.16507 7.5042 4.09821C7.54495 4.02725 7.5933 3.96095 7.64841 3.90049C7.74518 3.82369 7.81118 3.76791 7.86211 3.7224C7.91304 3.67687 7.94744 3.64189 7.98588 3.61088C8.09834 3.51727 8.21834 3.43305 8.34462 3.35911C8.40665 3.34289 8.46637 3.32612 8.52727 3.3136C8.58811 3.30108 8.64902 3.29027 8.70846 3.27974C8.82762 3.25869 8.94372 3.24076 9.05806 3.22284C9.17248 3.20492 9.28795 3.19611 9.40258 3.18473L9.74653 3.15086L9.83192 3.14147L9.92039 3.13493L10.0996 3.11985C10.2202 3.10876 10.3428 3.09481 10.4695 3.07717C10.5978 3.06409 10.7303 3.04874 10.8678 3.02854C10.9366 3.01801 11.0062 3.00663 11.0777 2.99383C11.1491 2.98103 11.2245 2.97306 11.2998 2.96054C11.4322 2.90649 11.5624 2.85386 11.6817 2.8183C11.7847 2.78709 11.8917 2.77108 11.9994 2.77079C11.8549 2.84561 11.6891 2.91303 11.5138 2.99695C11.4252 3.03678 11.3332 3.07643 11.2378 3.11587L11.1659 3.14432C11.1417 3.15456 11.1181 3.16622 11.0939 3.17703L10.9471 3.2436C10.8479 3.28798 10.7462 3.33217 10.6419 3.37618C10.5392 3.4234 10.4362 3.4749 10.3306 3.52412L10.1716 3.59864L10.0914 3.63592L10.0128 3.67746L9.69595 3.84359C9.07641 4.16323 8.50188 4.56337 7.98727 5.03361C6.80313 5.82895 5.76282 6.81981 4.9108 7.96382C5.04736 7.74447 5.15091 7.59461 5.24195 7.44468ZM4.47069 8.55273C4.52902 8.4674 4.59162 8.39282 4.65619 8.31203L4.69061 8.27135C4.60071 8.39994 4.51319 8.53033 4.42803 8.66254C4.44738 8.61531 4.45875 8.56926 4.46984 8.55273H4.47069ZM2.44032 13.1091C2.44921 13.0669 2.46879 13.0277 2.4972 12.9953C2.54215 12.9478 2.59166 12.962 2.60105 13.0676C2.59479 13.0974 2.58681 13.1085 2.57999 13.1062C2.57492 13.1007 2.57151 13.0937 2.57016 13.0863C2.5688 13.0789 2.56955 13.0712 2.57232 13.0642C2.55152 13.1086 2.54176 13.1574 2.54385 13.2064C2.52934 13.1755 2.52496 13.1409 2.53133 13.1074C2.5385 13.0741 2.53544 13.0395 2.52253 13.0081C2.48259 13.0994 2.45272 13.1948 2.43347 13.2926C2.42488 13.2315 2.4269 13.1694 2.43944 13.1091H2.44032ZM1.98 15.8934C1.96975 15.8471 1.96094 15.799 1.95156 15.7511C1.94217 15.7033 1.9413 15.657 1.93789 15.6137C1.93186 15.5475 1.9293 15.4811 1.93022 15.4146C1.93648 15.2556 1.98967 14.9879 2.04742 15.1586C2.07768 15.3179 2.0882 15.4803 2.07873 15.6422C2.07834 15.7434 2.08374 15.8445 2.09493 15.9451C2.10222 16.0327 2.11795 16.1193 2.14188 16.2038C2.07588 16.2359 2.01926 16.0792 1.97915 15.8934H1.98ZM2.70432 18.3656C2.69947 18.3442 2.6952 18.3235 2.69065 18.3033C2.68609 18.2831 2.68411 18.2623 2.6807 18.2424C2.67444 18.2026 2.66846 18.1636 2.6622 18.1243C2.64997 18.0458 2.63717 17.9656 2.61982 17.8726C2.60247 17.7795 2.57742 17.6734 2.55637 17.5434C2.56273 17.5382 2.57041 17.5349 2.57857 17.5337C2.63356 17.8764 2.70194 18.2143 2.78368 18.5474C2.78648 18.5855 2.78408 18.6237 2.77656 18.6612C2.74498 18.5454 2.72252 18.451 2.70346 18.3656H2.70432ZM2.76291 19.1374C2.78823 19.0899 2.82408 19.2211 2.85168 19.2122C2.8662 19.2982 2.87144 19.3854 2.86732 19.4725C2.79706 19.313 2.82209 19.2837 2.76206 19.1374H2.76291ZM2.91853 19.6142L2.95949 19.5983C3.05109 19.7858 3.21553 20.1229 3.14839 20.1707C3.04731 19.9962 2.96974 19.8091 2.91768 19.6142H2.91853ZM3.12762 20.2347C3.135 20.2471 3.1468 20.2561 3.16064 20.2602C3.17446 20.2642 3.18931 20.2628 3.20217 20.2563C3.30316 20.4529 3.20358 20.4461 3.12677 20.2356L3.12762 20.2347ZM5.73155 25.4858C5.60687 25.4364 5.48577 25.3784 5.36912 25.3123C5.24151 25.232 5.11973 25.1428 5.00469 25.0454C4.94125 24.9919 4.87581 24.9336 4.80782 24.8696C4.73982 24.8055 4.67554 24.7302 4.60527 24.6508C4.535 24.5714 4.46303 24.4852 4.38593 24.3919C4.36687 24.3683 4.34723 24.3447 4.32902 24.32C4.31082 24.2952 4.29175 24.269 4.27212 24.2429C4.23419 24.1903 4.1955 24.1358 4.15605 24.0795C4.08955 23.9806 4.02878 23.8779 3.97399 23.772C3.94554 23.72 3.91964 23.6648 3.89205 23.6121C3.86445 23.5595 3.83515 23.508 3.8067 23.4588C3.58347 23.1747 3.39528 22.8648 3.24625 22.5357C3.34043 22.5631 3.42298 22.6208 3.48125 22.6998C3.52734 22.7484 3.57627 22.8056 3.62663 22.8679C3.67698 22.9302 3.72762 22.9988 3.78509 23.0648C3.89689 23.1984 4.01268 23.339 4.11851 23.4599C4.14696 23.4898 4.17113 23.5194 4.19788 23.5453C4.22462 23.5711 4.25107 23.5962 4.27667 23.619C4.32027 23.6591 4.3673 23.6954 4.41722 23.7274C4.47078 23.8012 4.51165 23.8836 4.53812 23.9709C4.56638 24.0041 4.59227 24.0357 4.61579 24.0656L4.68464 24.1492C4.72703 24.2022 4.76287 24.2508 4.79559 24.2972C4.86131 24.3905 4.91421 24.4755 4.98277 24.5706C5.00468 24.599 5.02744 24.6275 5.05389 24.6559L5.13925 24.745C5.19843 24.8061 5.26299 24.871 5.33099 24.9379L5.54265 25.1438L5.76882 25.3447C6.02091 25.5508 6.25382 25.7793 6.46469 26.0274C6.22629 25.7865 5.96626 25.7646 5.7307 25.4858H5.73155ZM7.48285 26.1754C7.41678 26.1426 7.3473 26.1171 7.27579 26.0991C7.26406 26.0949 7.25171 26.0932 7.2393 26.0941C7.22695 26.095 7.21488 26.0985 7.20392 26.1043C7.19297 26.1101 7.18341 26.1181 7.17574 26.1278C7.16806 26.1376 7.16248 26.1488 7.15941 26.1608C7.0327 26.0731 6.91094 25.9858 6.79411 25.8991L6.7506 25.8667L6.70877 25.8326C6.68032 25.8095 6.65358 25.787 6.62655 25.7643L6.46581 25.6291L6.30963 25.496C6.28403 25.4738 6.25871 25.4519 6.2331 25.4303C6.2075 25.4087 6.18446 25.3845 6.16028 25.362L5.8758 25.0926L5.73582 24.9615C5.69002 24.9174 5.64649 24.8715 5.60183 24.8272C5.51278 24.7381 5.42317 24.6508 5.33185 24.5649C5.28662 24.5214 5.23853 24.4795 5.19471 24.4357C5.15091 24.3919 5.10482 24.3481 5.05902 24.3046C4.96685 24.2192 4.87184 24.1324 4.77255 24.0486C4.71167 23.9828 4.65875 23.9114 4.60612 23.8437C4.55349 23.776 4.50171 23.7072 4.45108 23.6392C4.40044 23.5711 4.35007 23.5035 4.30114 23.4343C4.25221 23.3652 4.20811 23.2921 4.16117 23.2207L4.01892 23.0025L3.94553 22.8904C3.92021 22.8531 3.89803 22.8127 3.87385 22.7734C3.77827 22.6147 3.6747 22.4497 3.56261 22.2722C3.45336 22.0847 3.34527 21.8975 3.2457 21.7169C3.15182 21.5328 3.07045 21.353 3.00302 21.188C2.98633 21.1469 2.97069 21.1065 2.95608 21.0668C2.94272 21.0267 2.93105 20.9872 2.92052 20.9491C2.90026 20.8781 2.88411 20.806 2.87215 20.7331C2.84818 20.6233 2.8521 20.5093 2.88354 20.4014C2.90978 20.5195 2.95709 20.6321 3.02322 20.7334C3.05425 20.8197 3.07878 20.9081 3.09661 20.998C3.11499 21.0791 3.14129 21.1582 3.17513 21.2341C3.23363 21.3558 3.30487 21.471 3.38765 21.5778C3.48782 21.7005 3.57721 21.8316 3.65479 21.9698C3.6878 22.0181 3.73813 22.0518 3.79533 22.064C4.34067 22.8407 4.94652 23.5732 5.60723 24.2545C6.31515 24.9899 7.07583 25.6725 7.88318 26.2971C7.74044 26.2963 7.60111 26.254 7.48202 26.1754H7.48285ZM15.9971 28.0994C15.7006 28.1039 15.4056 28.1002 15.112 28.0883C15.52 28.0809 15.9229 28.0541 16.3208 28.0081C16.2067 28.0399 16.0946 28.0707 15.9956 28.0994H15.9971ZM23.5719 25.1592C23.477 25.2691 23.3739 25.3717 23.2635 25.4659C23.2299 25.4943 23.1946 25.5259 23.1588 25.5572C23.1229 25.5885 23.0825 25.6164 23.0427 25.6465C22.9627 25.7062 22.8789 25.7671 22.7935 25.8271C22.6257 25.9453 22.4512 26.0535 22.2709 26.1515L22.1474 26.2194C22.1076 26.2411 22.0689 26.2619 22.0299 26.2783C21.9531 26.3134 21.8826 26.3432 21.8208 26.3669C21.5374 26.5552 21.2291 26.7031 20.9048 26.8061C20.9005 26.8249 20.9196 26.8252 20.9478 26.8158C20.9759 26.8064 21.0134 26.7873 21.0482 26.7714C20.9528 26.835 20.8479 26.8831 20.7375 26.9136C20.6268 26.9478 20.5113 26.9728 20.3961 26.997C20.3392 27.0103 20.2789 27.0186 20.22 27.0285C20.1611 27.0385 20.1019 27.0493 20.0436 27.0618C19.9267 27.0856 19.8124 27.1206 19.7023 27.1663C19.6604 27.1745 19.6567 27.1568 19.6502 27.1409C19.8546 27.0552 20.0566 26.9646 20.2562 26.869L20.2709 26.863L20.3406 26.8291C20.4057 26.7964 20.4687 26.7643 20.5303 26.7327L20.5825 26.7059C20.6749 26.6587 20.7648 26.6135 20.8541 26.5723C21.008 26.494 21.183 26.4585 21.3881 26.3657C21.5226 26.3 21.6655 26.1996 21.7947 26.1233C21.8524 26.0881 21.9125 26.0567 21.9745 26.0294C22.0171 26.0067 22.0654 25.9968 22.1136 26.001C22.1746 25.9452 22.2407 25.8952 22.311 25.8516C22.3494 25.8266 22.3901 25.8015 22.4322 25.7765L22.4959 25.7384L22.5588 25.6974C22.7194 25.601 22.8694 25.4878 23.0062 25.3598C23.0373 25.4274 22.6735 25.7404 22.9628 25.636C22.9962 25.6019 23.0196 25.5594 23.0307 25.5131C23.0409 25.469 23.0603 25.4277 23.0877 25.3916C23.3238 25.2101 23.499 25.1145 23.571 25.1592H23.5719ZM23.7121 25.1043C23.5886 25.1657 23.6122 25.0892 23.6402 25.0118C23.7229 24.9549 23.7796 24.9375 23.8538 24.8937C23.8469 24.9372 23.8307 24.9786 23.8061 25.015C23.7814 25.0513 23.7491 25.0818 23.7112 25.1043H23.7121ZM25.7035 7.23301C25.7413 7.26768 25.7792 7.30152 25.8173 7.33396C25.8554 7.3664 25.8916 7.39717 25.9251 7.42787C26.024 7.53391 26.1531 7.6071 26.2949 7.63752L26.3926 7.78208C26.4227 7.83126 26.4529 7.87989 26.4828 7.92887C26.5425 8.02612 26.6019 8.12275 26.6608 8.21875C26.722 8.31405 26.7718 8.41563 26.8241 8.51603C26.8765 8.61649 26.9263 8.71919 26.9746 8.82356C27.0406 8.97635 27.0756 9.08303 27.1291 9.21049C27.1555 9.27419 27.1859 9.34333 27.2241 9.42726C27.2622 9.51119 27.3012 9.61333 27.3564 9.73794C27.3814 9.7948 27.4076 9.84859 27.4343 9.90266L27.4748 9.98254C27.4881 10.0093 27.4995 10.0366 27.512 10.0631C27.5607 10.1704 27.6085 10.2759 27.6489 10.3831C27.843 10.9658 27.9897 11.5631 28.0873 12.1694C28.1 12.2321 28.1137 12.2946 28.1279 12.3567C28.1422 12.4187 28.1512 12.4813 28.1635 12.5429C28.1868 12.6667 28.2099 12.7888 28.232 12.9071C28.2372 12.937 28.2423 12.9663 28.2471 12.9956C28.252 13.0249 28.2539 13.0542 28.2571 13.0829C28.2629 13.141 28.2676 13.1978 28.271 13.2536C28.2783 13.3591 28.2783 13.4651 28.271 13.5705C28.2796 13.6212 28.2838 13.673 28.2878 13.7253C28.2918 13.7777 28.2955 13.8311 28.2992 13.8849C28.3063 13.9921 28.312 14.1017 28.3171 14.2123C28.3211 14.2693 28.3171 14.3236 28.3171 14.3794L28.3154 14.5469C28.3154 14.659 28.3154 14.7708 28.3134 14.882C28.3029 15.104 28.2935 15.3224 28.2952 15.5304C28.2846 15.7256 28.2875 15.9214 28.304 16.1161C28.2918 16.1881 28.273 16.2601 28.2599 16.3326C28.2468 16.4052 28.2338 16.4783 28.223 16.5514C28.2122 16.6245 28.2027 16.6979 28.1945 16.7713L28.1882 16.826L28.1794 16.8803L28.1632 16.9887C28.143 17.1329 28.1234 17.2732 28.1043 17.4112C28.0963 17.4797 28.081 17.5457 28.0679 17.6103C28.0548 17.6749 28.0395 17.738 28.0261 17.7989C27.9952 17.8513 27.9635 17.906 27.9311 17.963L27.8827 18.0504C27.8667 18.0788 27.85 18.1107 27.8312 18.1409C27.7589 18.2632 27.6861 18.3954 27.6161 18.5392C27.5462 18.6828 27.4696 18.8367 27.3996 19.0046C27.3641 19.0884 27.3299 19.1752 27.2975 19.2674C27.2651 19.3596 27.2249 19.4506 27.1911 19.5488C27.1626 19.6279 27.1405 19.7044 27.1209 19.7789C27.1112 19.8159 27.1021 19.8526 27.0941 19.8887C27.0861 19.9249 27.0759 19.9596 27.0657 19.994C27.0316 20.1323 27.0087 20.2642 26.9874 20.3923C26.976 20.4566 26.9686 20.5215 26.9553 20.5835C26.9419 20.6455 26.9291 20.7072 26.9146 20.7692C26.8858 20.8961 26.8489 21.0209 26.8042 21.1431C26.7814 21.1715 26.7587 21.2 26.7379 21.2264C26.7172 21.2528 26.6986 21.2816 26.681 21.3092C26.6474 21.3644 26.6169 21.4214 26.5894 21.4799C26.561 21.5368 26.5343 21.5968 26.5041 21.658C26.4887 21.6884 26.4733 21.72 26.4549 21.7507C26.4364 21.7815 26.4153 21.8122 26.3928 21.8438C26.3251 21.9388 26.2506 22.0338 26.1721 22.1316C26.132 22.1803 26.0942 22.2318 26.0494 22.2804L25.9163 22.4315C25.8253 22.5345 25.7357 22.6463 25.6404 22.7635C25.5451 22.8807 25.4443 23.0033 25.3476 23.1419C25.2736 23.0101 25.2262 22.8652 25.208 22.7152C25.1421 22.7491 25.08 22.79 25.0227 22.8369C25.1866 22.6065 25.3427 22.3704 25.491 22.1286L25.5391 22.06C25.6364 21.9271 25.7186 21.7849 25.8054 21.6477L25.9334 21.4429C25.976 21.3749 26.0122 21.3038 26.0517 21.2355C26.1073 21.1369 26.166 21.0355 26.2278 20.9314C26.2597 20.8802 26.2867 20.825 26.316 20.7707L26.4048 20.6051C26.435 20.5482 26.4651 20.4936 26.4958 20.4373L26.5419 20.3519C26.5576 20.3235 26.5704 20.295 26.5849 20.2649C26.6406 20.1477 26.6969 20.0298 26.7539 19.9115L26.7962 19.823C26.8105 19.7946 26.8247 19.7639 26.8361 19.7331C26.8606 19.6725 26.8852 19.6123 26.9097 19.5519C26.9584 19.4313 27.0059 19.3112 27.052 19.1929C27.0913 19.072 27.1285 18.9525 27.1632 18.8358C27.18 18.7772 27.1968 18.7198 27.213 18.6629C27.2207 18.6345 27.2292 18.606 27.2358 18.5775C27.2423 18.5491 27.2474 18.5206 27.2534 18.4922C27.2859 18.4134 27.3265 18.3093 27.3692 18.1926C27.3905 18.1357 27.4125 18.0734 27.4338 18.0108C27.4551 17.9482 27.4702 17.8825 27.4873 17.818C27.5203 17.6888 27.5485 17.5619 27.566 17.4481C27.5706 17.4197 27.5743 17.393 27.5774 17.3667C27.5806 17.3406 27.5803 17.3152 27.5806 17.2917C27.5815 17.2502 27.5784 17.2088 27.5715 17.1679C27.5916 17.0826 27.6099 16.9995 27.6267 16.915C27.6346 16.8729 27.6426 16.8297 27.6508 16.7887L27.6619 16.7255L27.6693 16.6618C27.6884 16.4911 27.7029 16.3236 27.7151 16.1574C27.7191 16.1159 27.7194 16.074 27.7197 16.0325L27.7214 15.9084C27.7214 15.8263 27.7222 15.7447 27.7236 15.6635C27.7291 15.5022 27.7194 15.3429 27.7165 15.1879C27.7262 15.0832 27.7348 14.9771 27.7399 14.8698C27.7399 14.7625 27.7399 14.6539 27.7376 14.5444C27.7376 14.4897 27.7354 14.4348 27.7342 14.3794C27.7331 14.3239 27.7325 14.2687 27.7268 14.2132C27.7177 14.1022 27.7082 13.9905 27.6984 13.8778L27.6856 13.7071C27.6816 13.6502 27.6722 13.5933 27.6662 13.5364C27.6526 13.4226 27.6401 13.3088 27.629 13.195C27.6209 13.0812 27.6005 12.9654 27.5894 12.8499C27.5783 12.7344 27.5655 12.6181 27.5575 12.5009C27.5334 12.2912 27.5658 12.1228 27.541 11.9051C27.5126 11.7179 27.4363 11.4983 27.3988 11.2855C27.3649 11.1345 27.3419 10.9817 27.3217 10.8304C27.3163 10.7923 27.3106 10.7541 27.3052 10.7166C27.2998 10.679 27.2904 10.6418 27.2824 10.6044C27.2662 10.5302 27.2486 10.4563 27.2278 10.3834C27.2088 10.3162 27.1792 10.2412 27.1499 10.1667C27.1206 10.0921 27.085 10.0204 27.0645 9.95526C27.0361 9.86994 27.0526 9.80107 27.0306 9.72056C27.0131 9.65582 26.9923 9.59205 26.9683 9.5294L26.8859 9.33908C26.8321 9.22459 26.7895 9.10521 26.7584 8.98256C26.6608 8.81903 26.5681 8.65884 26.4779 8.49726C26.4562 8.45631 26.431 8.41759 26.4065 8.37803L26.3331 8.2597C26.2848 8.18003 26.2358 8.09994 26.1863 8.01928C26.1388 7.9371 26.0824 7.85917 26.0281 7.7781C25.9738 7.69703 25.9169 7.61533 25.8597 7.53112C25.8025 7.44691 25.7391 7.36445 25.6739 7.27968L25.4711 7.01931L25.7035 7.23301ZM25.1729 7.09075C25.2154 7.13059 25.2537 7.17607 25.293 7.21905C25.3323 7.26203 25.3718 7.30891 25.4111 7.35559C25.4503 7.40226 25.4919 7.45319 25.5331 7.50266L25.594 7.57807C25.6139 7.60368 25.6324 7.63068 25.6509 7.65712C25.7268 7.76387 25.8031 7.87368 25.8785 7.98545L25.9354 8.07084C25.953 8.09924 25.9704 8.1291 25.988 8.1584L26.0924 8.33596C26.161 8.45547 26.2347 8.57324 26.2941 8.69924L26.4802 9.07333C26.4961 9.1041 26.5086 9.13591 26.5234 9.16808L26.5644 9.26366C26.5929 9.32742 26.6185 9.39112 26.6455 9.45426L26.726 9.64319C26.7507 9.70689 26.7732 9.77094 26.7965 9.83408C26.8429 9.9607 26.889 10.0853 26.9339 10.2082C26.9143 10.2207 26.885 10.2209 26.9234 10.3086C26.9905 10.5544 27.0597 10.7951 27.1026 11.042C27.1262 11.1646 27.1527 11.2861 27.1732 11.4087C27.1937 11.5313 27.2093 11.6548 27.2275 11.7786C27.2372 11.8397 27.2466 11.9014 27.256 11.9632L27.2764 12.1498C27.2907 12.2744 27.3064 12.3992 27.3237 12.5242C27.3359 12.6502 27.3473 12.7774 27.3627 12.9051C27.3701 12.9689 27.378 13.0331 27.3868 13.0974C27.3957 13.1618 27.3985 13.2271 27.4056 13.2926C27.4184 13.4201 27.4432 13.5426 27.4625 13.6653C27.4798 13.7887 27.4811 13.9139 27.4662 14.0377C27.4816 14.1037 27.4961 14.1745 27.5097 14.2482C27.5234 14.3219 27.5293 14.3992 27.5382 14.4781C27.547 14.5568 27.5541 14.6379 27.5621 14.719C27.5701 14.8001 27.5797 14.882 27.5815 14.9631C27.5646 15.1145 27.553 15.2883 27.5447 15.4723C27.5282 15.6558 27.514 15.8496 27.5066 16.0414C27.5066 16.0891 27.4998 16.1367 27.4963 16.1835C27.4929 16.2305 27.4895 16.2774 27.4862 16.3238C27.4799 16.4166 27.4753 16.5071 27.4728 16.5941C27.4707 16.6373 27.4728 16.6794 27.4691 16.7212C27.4654 16.7631 27.4642 16.8023 27.4625 16.841C27.4596 16.9187 27.4588 16.991 27.4606 17.0564C27.4347 17.1393 27.4139 17.2236 27.3979 17.309C27.3786 17.3918 27.3618 17.474 27.3473 17.5574L27.3043 17.8091C27.2967 17.8518 27.2887 17.8944 27.281 17.938C27.2733 17.9815 27.2588 18.0234 27.2463 18.0672C27.2116 18.1878 27.1762 18.3111 27.1402 18.437C27.1314 18.4683 27.1222 18.4996 27.1117 18.5311C27.1012 18.5627 27.0907 18.5934 27.0802 18.6248C27.0586 18.6874 27.0366 18.7502 27.0145 18.8134L26.9482 19.0049C26.9251 19.0688 26.9052 19.1346 26.8776 19.1974C26.8257 19.3249 26.7731 19.4537 26.72 19.5838C26.6734 19.7069 26.6139 19.8253 26.5573 19.9462C27.2656 18.0505 27.5068 16.0121 27.2606 14.0034C27.0144 11.9948 26.288 10.075 25.1429 8.40642C23.9979 6.73785 22.4677 5.36966 20.6819 4.41757C18.8962 3.46549 16.9075 2.95752 14.8839 2.93665C12.8397 2.93412 10.8269 3.43995 9.02681 4.4086C9.13662 4.33662 9.24839 4.26634 9.36532 4.20005L9.54769 4.0911C9.57811 4.07289 9.60832 4.05384 9.63958 4.03619L9.7346 3.98556L10.1184 3.77817C10.2496 3.71188 10.3841 3.649 10.5186 3.58242C10.6532 3.51586 10.7923 3.45555 10.9323 3.39382C11.0157 3.35712 11.0976 3.31871 11.1789 3.28002L11.4253 3.16936C11.5072 3.1318 11.5889 3.09311 11.6711 3.05555L11.7329 3.02712L11.7957 3.00093L11.922 2.94802C12.0932 2.87263 12.2681 2.80616 12.446 2.74888C12.5371 2.71986 12.6299 2.69208 12.7246 2.66553C12.7721 2.65301 12.8196 2.63708 12.8686 2.62854C12.9175 2.62001 12.9673 2.60919 13.0173 2.60008C13.1345 2.57931 13.2449 2.56226 13.3544 2.54633C13.3829 2.54263 13.4085 2.53807 13.4358 2.53523L13.5172 2.52811L13.6804 2.51389C13.79 2.50422 13.901 2.49284 14.0182 2.47891C14.1362 2.47094 14.26 2.45984 14.3942 2.44334C14.4153 2.46439 14.5342 2.44106 14.4881 2.49227C14.5269 2.48659 14.5655 2.48175 14.6039 2.47805C14.6423 2.47436 14.6804 2.47548 14.7177 2.47548C14.7936 2.47548 14.8682 2.47919 14.9419 2.4846C15.0156 2.49001 15.0879 2.49711 15.1595 2.5048C15.1951 2.50792 15.2309 2.5139 15.2662 2.52016L15.372 2.53751C15.5097 2.56155 15.6486 2.57675 15.7882 2.58302C15.9288 2.59621 16.0707 2.58998 16.2096 2.56452C16.1834 2.59297 16.0764 2.58757 16.1629 2.62143L16.3052 2.64164C16.3527 2.64761 16.4005 2.65414 16.4474 2.66381C16.543 2.68117 16.6389 2.6971 16.7342 2.70962C16.7817 2.71588 16.8292 2.72157 16.8764 2.72583C16.9236 2.7301 16.9709 2.73181 17.0187 2.73778C17.11 2.74738 17.2019 2.75109 17.2938 2.74888C17.3933 2.76993 17.4957 2.78956 17.5996 2.81403L17.9139 2.89937L18.0741 2.94177L18.1549 2.96281C18.1816 2.97021 18.2084 2.9796 18.2351 2.98785C18.3421 3.02161 18.4497 3.05471 18.5577 3.08714L18.7196 3.13437C18.7739 3.14945 18.8263 3.16993 18.8798 3.187C18.9859 3.22228 19.092 3.25612 19.1976 3.28741C19.2502 3.30363 19.3034 3.31587 19.3549 3.33379C19.4064 3.35172 19.4576 3.36792 19.5085 3.38385C19.6106 3.41571 19.7116 3.44474 19.8117 3.46921C19.8431 3.48771 19.8758 3.50476 19.9093 3.52097C19.9429 3.53719 19.9756 3.55597 20.01 3.57247C20.0786 3.60519 20.15 3.63478 20.222 3.66379C20.294 3.69281 20.3668 3.72069 20.4379 3.75114C20.5071 3.78272 20.5745 3.81824 20.6396 3.85754C21.2496 4.2177 21.8669 4.57188 22.4746 4.95366C23.0824 5.33301 23.6669 5.74825 24.2253 6.19717L24.334 6.30811C24.3707 6.34481 24.4031 6.38521 24.4381 6.42361C24.5169 6.49701 24.5977 6.56813 24.6799 6.63926C24.7206 6.6751 24.7636 6.70954 24.8037 6.7468L24.924 6.86059C25.0079 6.93086 25.0901 7.0094 25.1729 7.09075ZM15.8187 2.5119C15.7848 2.455 16.0317 2.46525 15.995 2.52016C15.9363 2.52937 15.8763 2.52656 15.8187 2.5119ZM17.1726 1.96313C17.2516 1.96313 17.337 1.96796 17.436 1.97535C17.4855 1.97905 17.5382 1.9839 17.5953 1.98987C17.6525 1.99584 17.7142 2.00209 17.78 2.01603L18.0912 2.07834L18.2513 2.11077C18.3062 2.12158 18.3623 2.1321 18.4197 2.14746C18.8835 2.28099 19.3394 2.44038 19.7853 2.62484C19.8872 2.66013 20.0015 2.66979 20.1011 2.71019C20.1295 2.72157 20.1599 2.73409 20.1902 2.74775C20.2203 2.7614 20.2499 2.77819 20.28 2.7944C20.3406 2.82769 20.402 2.86353 20.4643 2.89937C20.5266 2.93521 20.5896 2.97107 20.653 3.00492C20.7164 3.03877 20.7807 3.06979 20.8425 3.10194C20.8803 3.121 21.0231 3.15485 21.0632 3.17675C21.1247 3.21187 21.1839 3.25082 21.2404 3.29338L21.3258 3.35514C21.3542 3.37647 21.381 3.39695 21.4086 3.41516C21.5021 3.47623 21.6002 3.53825 21.7028 3.60121L21.8589 3.69566L22.016 3.79978C22.1224 3.86939 22.2317 3.93976 22.344 4.01088C22.4547 4.08427 22.5636 4.16421 22.6762 4.24159L22.847 4.3588C22.8754 4.37786 22.9038 4.39891 22.9306 4.42025L23.0131 4.48369L23.3457 4.73832C23.4544 4.82651 23.5594 4.91924 23.6651 5.00914L23.8227 5.14484C23.8737 5.19149 23.9226 5.24014 23.9718 5.28708C24.1315 5.4427 24.2626 5.59803 24.4159 5.75507C24.4686 5.80656 24.5283 5.85607 24.588 5.90671C24.649 5.95461 24.7052 6.00824 24.7559 6.06687C24.8462 6.18113 24.9303 6.30012 25.0079 6.42333C25.0276 6.45178 25.0489 6.48023 25.0686 6.51153C25.0882 6.54282 25.1083 6.57127 25.1303 6.60086C25.1747 6.66192 25.2243 6.71902 25.2785 6.77155C25.2426 6.78179 25.1906 6.74964 25.1706 6.79999C25.1428 6.74394 25.1083 6.69142 25.0679 6.64353C25.0275 6.59375 24.9818 6.54846 24.9317 6.5084C24.8324 6.42675 24.7277 6.35677 24.6449 6.29503C24.536 6.1774 24.4211 6.06544 24.3007 5.95962L24.1326 5.8077L24.0911 5.77071L24.0478 5.73573L23.9625 5.66631L23.6154 5.38581C23.4933 5.29563 23.3696 5.20146 23.2404 5.09848C23.2168 5.07259 23.196 5.04784 23.1767 5.02366C23.1574 4.99948 23.138 4.97757 23.1198 4.95538C23.0831 4.91072 23.0476 4.86633 23.0032 4.81881C22.9121 4.74826 22.8219 4.67705 22.7323 4.60517L22.4555 4.40603L22.3187 4.30616L22.2507 4.25666C22.2282 4.24045 22.2043 4.22624 22.181 4.21087L21.9039 4.03307C21.8544 4.00177 21.8043 3.97076 21.7537 3.94003C21.7033 3.9093 21.6496 3.88314 21.5972 3.85469L21.2808 3.69338C21.177 3.63648 21.0678 3.59495 20.9637 3.54658C20.8595 3.49822 20.7568 3.45185 20.6581 3.40434C20.5477 3.35285 20.4368 3.30108 20.3286 3.24418L20.1671 3.15884C20.1136 3.13039 20.0604 3.10192 20.0055 3.07945C19.8969 3.03165 19.789 2.98727 19.6823 2.952C19.5797 2.91462 19.4723 2.89193 19.3634 2.88457C19.2496 2.84361 19.1236 2.79525 18.9936 2.74433L18.8954 2.70564C18.8627 2.69255 18.8289 2.68287 18.7953 2.67121L18.5928 2.60465C18.5253 2.58275 18.4582 2.56169 18.3936 2.54178C18.3297 2.52093 18.2648 2.50364 18.199 2.49C18.0833 2.46459 17.9662 2.44634 17.8482 2.43537C17.8001 2.41574 17.7475 2.39668 17.6909 2.37847C17.6343 2.36027 17.5731 2.34774 17.5094 2.33267C17.3819 2.30421 17.2431 2.27777 17.1 2.25102L17.0462 2.24077L16.9916 2.23338L16.8821 2.21888L16.6628 2.18759C16.5902 2.1765 16.5182 2.16483 16.4477 2.15231C16.3772 2.13979 16.3077 2.13326 16.2408 2.12159C16.1097 2.12159 15.9849 2.12642 15.8642 2.13154C15.8039 2.13154 15.7447 2.1415 15.6864 2.14718L15.5157 2.16653C15.4019 2.18018 15.2923 2.19213 15.1834 2.20721C15.0745 2.22229 14.9669 2.24419 14.8582 2.26069L14.6949 2.28431L14.6125 2.29483L14.5294 2.30877C14.4182 2.32755 14.3044 2.34406 14.1857 2.35743C14.1265 2.36426 14.066 2.36966 14.0042 2.37534C13.9425 2.38104 13.8799 2.39156 13.8153 2.39839C13.6862 2.41204 13.5499 2.42144 13.4051 2.42827C13.5101 2.38924 13.6178 2.35813 13.7274 2.33523C13.7843 2.32215 13.8452 2.30991 13.9049 2.29825L13.9948 2.28061L14.085 2.26809C14.2045 2.2513 14.3206 2.23425 14.4247 2.21121C14.4768 2.20039 14.5259 2.18816 14.5709 2.1745C14.6125 2.16294 14.6535 2.14899 14.6935 2.13268C14.8001 2.13239 14.9065 2.12534 15.0122 2.11162C15.1151 2.09882 15.2153 2.07947 15.3115 2.06724C15.504 2.03879 15.6813 2.00096 15.8346 1.98418C15.966 1.97535 16.1159 1.97507 16.2676 1.9745H16.3814H16.4383L16.4952 1.9765C16.5697 1.97934 16.6431 1.98076 16.7131 1.9799C16.7985 1.9799 16.875 1.97536 16.9501 1.97137L17.0625 1.9654C17.0949 1.96113 17.1336 1.96284 17.1726 1.96313ZM18.2166 29.1401L18.152 29.1528L18.0881 29.1628L17.9614 29.1821L17.714 29.22L17.4716 29.2575C17.3907 29.2686 17.3099 29.276 17.2289 29.286L16.7328 29.3429L16.1965 29.3833C16.3497 29.4133 16.5072 29.414 16.6608 29.3856C16.7535 29.3779 16.8471 29.3588 16.9336 29.3491C17.0089 29.3381 17.0852 29.3345 17.1612 29.3383C17.2542 29.3152 17.3131 29.2866 17.4226 29.2661C17.544 29.2771 17.6664 29.2698 17.7856 29.2444C17.8775 29.2317 17.9722 29.216 18.0505 29.1981C18.0852 29.1904 18.1195 29.1809 18.1532 29.1696C18.1756 29.1627 18.197 29.1527 18.2166 29.1401ZM18.3907 29.1944C18.5668 29.158 18.5614 29.109 18.7504 29.0749C18.6713 29.0572 18.8735 28.9926 18.7375 29.018C18.6886 29.0803 18.4513 29.1317 18.3907 29.1944ZM13.7598 0.532716C13.7883 0.527879 13.8168 0.524464 13.8452 0.520197C13.9021 0.511662 13.9552 0.503133 14.0056 0.49403C14.0905 0.480614 14.1739 0.458989 14.2546 0.429454C14.1572 0.45079 14.0523 0.468127 13.9445 0.48349L13.7812 0.505681C13.7266 0.514215 13.6722 0.524752 13.6181 0.53414C13.5101 0.554054 13.4039 0.574812 13.3052 0.598993C13.2557 0.610942 13.2082 0.623751 13.163 0.637975C13.1405 0.644803 13.1186 0.652207 13.0972 0.659888C13.0759 0.66757 13.0557 0.67724 13.0361 0.686629C13.056 0.679232 13.0771 0.671828 13.0993 0.664716L13.1698 0.646796C13.219 0.634848 13.2717 0.623754 13.3269 0.612659C13.4369 0.590469 13.5561 0.569697 13.673 0.548361L13.7598 0.532716Z" fill="#2E374F"/>
<path fill-rule="evenodd" clip-rule="evenodd" d="M21.0939 14.0379L16.8655 20.9339L17.4965 20.2682L16.6792 12.81C16.6337 12.2185 16.6792 11.8373 16.8157 11.6664C16.9112 11.5699 17.0256 11.4942 17.1518 11.4443C17.278 11.3943 17.4132 11.3712 17.5488 11.3762L17.6342 11.0348C17.3615 11.0462 17.0261 11.0576 16.6283 11.069C16.2304 11.0804 15.7871 11.086 15.2986 11.086C14.8212 11.086 14.3409 11.0804 13.8576 11.069C13.3744 11.0576 12.9794 11.0462 12.6727 11.0348L12.5874 11.3762C12.7828 11.4035 12.9662 11.4864 13.1157 11.6152C13.346 11.8408 13.4804 12.1465 13.491 12.4687L14.8377 23.2052H15.9111L21.1966 14.4829L21.0939 14.0379ZM23.4981 20.8144L24.1458 20.1999L23.2765 12.81C23.2082 12.2185 23.2764 11.8373 23.481 11.6664C23.6857 11.4955 24.0664 11.3988 24.6233 11.3762L24.7086 11.0348C24.3902 11.0462 23.9866 11.0576 23.4981 11.069C23.0095 11.0804 22.4753 11.086 21.8953 11.086C21.4521 11.086 21.0032 11.0804 20.5485 11.069C20.0939 11.0576 19.7241 11.0462 19.439 11.0348L19.3537 11.3762C19.5212 11.4044 19.6727 11.4924 19.7804 11.6237C19.9639 11.8689 20.0707 12.1629 20.0871 12.4687L21.5024 23.2052H22.5764L28.0493 13.305C28.2519 12.9125 28.501 12.5457 28.7913 12.2126C28.9874 11.992 29.218 11.8047 29.4741 11.6578C29.6984 11.5373 29.9358 11.4428 30.1816 11.3762L30.267 11.0348C30.0849 11.0462 29.8888 11.0576 29.6786 11.069C29.4685 11.0804 29.2383 11.086 28.9882 11.086C28.7835 11.086 28.5192 11.0832 28.1953 11.0775C27.8714 11.0719 27.5673 11.0661 27.2832 11.0604C26.9987 11.0548 26.7888 11.0462 26.6522 11.0348L26.5668 11.3762C26.9319 11.3909 27.292 11.4659 27.6325 11.5981C27.7514 11.6448 27.8537 11.7256 27.9266 11.8304C27.9995 11.9353 28.0396 12.0593 28.0419 12.187C28.0139 12.6106 27.8758 13.0195 27.6411 13.3733L23.4981 20.8144ZM33.1653 14.5841C33.2687 14.8679 33.3094 15.1707 33.2845 15.4717C33.2822 16.1656 33.2108 16.8574 33.0714 17.5371C32.9331 18.2288 32.7479 18.9103 32.5172 19.5769C32.3118 20.1797 32.064 20.7672 31.7756 21.335C31.559 21.7774 31.2869 22.1904 30.9659 22.564C30.8804 22.6848 30.7714 22.7871 30.6454 22.8649C30.5194 22.9426 30.3791 22.9941 30.2328 23.0164C30.1569 23.0177 30.0825 22.9955 30.0198 22.9526C29.9572 22.9099 29.9094 22.8486 29.8832 22.7774C29.793 22.5141 29.7554 22.2358 29.7722 21.9581C29.7756 21.2873 29.8442 20.6184 29.977 19.9609C30.1119 19.2721 30.2941 18.5934 30.5224 17.9297C30.7306 17.3156 30.9813 16.7167 31.2726 16.1374C31.4953 15.6793 31.7726 15.2499 32.0985 14.8583C32.1852 14.7307 32.2973 14.6224 32.4279 14.5401C32.5585 14.4579 32.7046 14.4035 32.8572 14.3804C32.9224 14.3825 32.9857 14.4025 33.0401 14.4385C33.0946 14.4745 33.1379 14.5249 33.1653 14.5841ZM27.9651 22.6249C28.4649 23.1142 29.181 23.3589 30.1133 23.3589C31.0006 23.3815 31.8777 23.1664 32.6538 22.7359C33.3581 22.3311 33.9684 21.7813 34.4441 21.1228C34.911 20.4837 35.2682 19.7712 35.5009 19.0147C35.7194 18.3272 35.8344 17.6109 35.8424 16.8896C35.8424 15.9679 35.5923 15.2624 35.0921 14.773C34.5921 14.2837 33.876 14.0391 32.9439 14.0391C32.0567 14.0164 31.1796 14.2315 30.4035 14.6621C29.6993 15.0669 29.0891 15.6168 28.6132 16.2751C28.1463 16.9142 27.789 17.6267 27.556 18.3832C27.3377 19.0708 27.2227 19.7869 27.2146 20.5083C27.2148 21.4292 27.465 22.1348 27.9651 22.6249ZM40.923 16.4287C41.0245 16.0711 41.0648 15.6988 41.0422 15.3277C41.03 14.9826 40.8903 14.6543 40.6502 14.406C40.4116 14.1614 40.0024 14.0391 39.4226 14.0391C38.9301 14.0229 38.4456 14.1667 38.0414 14.4487C37.6151 14.7971 37.3057 15.2677 37.155 15.7971L36.6776 17.1115H37.0013L37.3595 16.1556C37.4744 15.8119 37.6442 15.4891 37.8625 15.1997C37.9253 15.1217 38.0043 15.0583 38.0942 15.0141C38.184 14.9698 38.2824 14.9458 38.3825 14.9437C38.4257 14.9383 38.4696 14.944 38.5099 14.9605C38.5502 14.9769 38.5856 15.0035 38.6127 15.0376C38.6556 15.1187 38.6706 15.2116 38.6554 15.3021C38.6365 15.4477 38.6022 15.5907 38.553 15.7289L36.4731 23.1199H39.1839L40.923 16.4287ZM39.269 22.8468C39.5175 21.8844 39.8163 20.9358 40.1643 20.0047C40.5108 19.0773 40.8688 18.2352 41.2382 17.4785C41.5356 16.8431 41.8924 16.2373 42.3039 15.6691C42.6453 15.2197 42.9409 14.9949 43.1907 14.9949C43.2376 14.9896 43.2849 15.0003 43.325 15.025C43.3652 15.0498 43.3959 15.0872 43.4123 15.1315C43.4481 15.2506 43.4539 15.3766 43.4294 15.4985C43.4003 15.6759 43.3546 15.8502 43.2928 16.0191L41.7924 20.5253C41.6325 20.9637 41.5433 21.4246 41.5281 21.8909C41.5208 22.1994 41.607 22.5029 41.7754 22.7615C42.0598 23.1598 42.5429 23.3589 43.2245 23.3589C43.6832 23.3521 44.1335 23.235 44.5375 23.0175C44.9807 22.7899 45.3274 22.3177 45.5776 21.6007L46.0043 20.3547H45.68L45.3559 21.2423C45.2515 21.612 45.065 21.9533 44.8103 22.2409C44.691 22.3601 44.5347 22.4353 44.367 22.4542C44.312 22.4548 44.2579 22.4409 44.2101 22.4139C44.1621 22.387 44.1222 22.3479 44.0942 22.3006C44.0287 22.0913 44.0471 21.8649 44.1454 21.669L45.8333 16.6165C45.9833 16.2035 46.0583 15.7671 46.0549 15.3277C46.0574 15.1528 46.0239 14.9791 45.9564 14.8177C45.889 14.6562 45.7891 14.5102 45.6629 14.3889C45.3172 14.1253 44.8854 14.0005 44.4524 14.0391C44.0211 14.0368 43.5942 14.127 43.2007 14.3036C42.747 14.5312 42.3551 14.865 42.0581 15.2765C41.6091 15.8841 41.229 16.5396 40.9244 17.231C40.4499 18.2845 40.0288 19.3612 39.6627 20.4571L39.269 22.8468ZM57.6145 9.5498C56.9727 9.77027 56.3141 9.93862 55.6453 10.0533C54.876 10.18 54.0978 10.2457 53.3182 10.2496L53.1987 10.6081C53.7554 10.6081 54.102 10.6992 54.2388 10.8812C54.3094 11.0114 54.3493 11.156 54.3551 11.304C54.3611 11.4519 54.333 11.5993 54.273 11.7346L51.937 20.5253C51.8129 20.9299 51.7412 21.3487 51.7239 21.7715C51.7068 22.0722 51.7684 22.3723 51.9029 22.6419C52.1529 23.1199 52.6359 23.3589 53.352 23.3589C53.8107 23.3521 54.261 23.235 54.665 23.0175C55.1082 22.7899 55.4549 22.3177 55.7051 21.6007L56.1141 20.3547H55.7904L55.4664 21.2423C55.3579 21.606 55.175 21.9431 54.9293 22.2323C54.8154 22.3557 54.6613 22.4344 54.4945 22.4542C54.4336 22.4578 54.3731 22.4425 54.3212 22.4104C54.2694 22.3784 54.2287 22.3311 54.2047 22.275C54.1537 22.0714 54.1779 21.8562 54.273 21.669L57.6145 9.5498ZM49.7206 22.1299C49.6413 21.8702 49.6067 21.5989 49.6181 21.3276C49.6172 20.4812 49.7231 19.6382 49.9336 18.8184C50.1244 18.0522 50.3959 17.3084 50.7436 16.5995C51.0153 16.0254 51.3685 15.4936 51.7922 15.0205C52.1614 14.6279 52.4996 14.4316 52.8067 14.4316C52.8971 14.4221 52.9885 14.4359 53.0721 14.4718C53.1557 14.5076 53.2287 14.5643 53.2841 14.6365C53.3916 14.8199 53.4611 15.0231 53.4886 15.2339L53.6249 14.8925C53.6033 14.6575 53.5008 14.4373 53.335 14.2694C53.0891 14.0889 52.7847 14.0068 52.4815 14.0391C51.792 14.0301 51.1104 14.1882 50.4952 14.4999C49.8946 14.8105 49.3549 15.2268 48.902 15.7289C48.4405 16.2343 48.0452 16.7964 47.7257 17.4017C47.4169 17.9806 47.1766 18.5935 47.0097 19.2281C46.8592 19.7791 46.779 20.3469 46.771 20.918C46.771 21.7828 46.9784 22.4059 47.3931 22.7871C47.7973 23.1642 48.3323 23.3693 48.885 23.3589C49.4617 23.3746 50.0255 23.1873 50.4782 22.8298C50.9829 22.3874 51.3844 21.8396 51.6545 21.2252C52.0613 20.3555 52.4116 19.4603 52.7031 18.5453L52.9592 16.7018C52.767 17.5694 52.5222 18.4244 52.2261 19.2622C52.0113 19.8749 51.7461 20.4687 51.4331 21.0374C51.2327 21.4129 50.9833 21.7602 50.6915 22.0701C50.5411 22.252 50.3279 22.3708 50.0941 22.403C50.0101 22.4057 49.9276 22.3801 49.86 22.3304C49.7922 22.2807 49.7431 22.2097 49.7206 22.1287V22.1299ZM59.2853 19.6719C59.817 19.564 60.341 19.4214 60.854 19.2452C61.3876 19.0634 61.9087 18.8467 62.4138 18.5965C62.8974 18.3602 63.3551 18.0742 63.7794 17.7431C64.1575 17.4505 64.4827 17.0955 64.741 16.6933C64.9749 16.3292 65.0994 15.9056 65.0994 15.4729C65.1127 15.258 65.0673 15.0437 64.968 14.8528C64.8688 14.6619 64.7195 14.5015 64.5362 14.3889C64.1183 14.1443 63.6397 14.023 63.1558 14.0391C62.4474 14.0329 61.7453 14.1724 61.093 14.4487C60.4549 14.7228 59.8649 15.0974 59.3453 15.5582C58.8191 16.0223 58.3625 16.5598 57.9897 17.1542C57.6213 17.7375 57.3291 18.3657 57.1204 19.0232C56.9197 19.6466 56.8161 20.2972 56.8134 20.9521C56.7914 21.2972 56.8554 21.6425 56.9997 21.9568C57.144 22.2711 57.3641 22.5446 57.6401 22.7529C58.2188 23.1653 58.9161 23.3781 59.6264 23.3589C60.2337 23.3666 60.8365 23.2535 61.3996 23.026C61.9105 22.8186 62.3831 22.5272 62.7979 22.164C63.1655 21.8458 63.4872 21.4782 63.7538 21.0716L63.4798 20.935C63.1113 21.3688 62.6513 21.7157 62.1328 21.9506C61.7951 22.1095 61.431 22.2049 61.0588 22.2323C60.6952 22.2484 60.339 22.1264 60.0614 21.8909C59.8056 21.6633 59.6776 21.2252 59.6776 20.5765C59.6834 19.866 59.7866 19.1595 59.9846 18.477C60.1781 17.7771 60.4438 17.0993 60.7774 16.4543C61.0501 15.9097 61.391 15.4021 61.792 14.9437C62.1442 14.557 62.4738 14.3635 62.7809 14.3633C62.8209 14.361 62.8609 14.3693 62.8968 14.3873C62.9327 14.4052 62.9633 14.4323 62.9854 14.4658C63.0419 14.5885 63.0654 14.7238 63.0537 14.8583C63.0576 15.4786 62.9111 16.0907 62.6269 16.6421C62.3484 17.1868 61.9795 17.6802 61.536 18.1015C61.2211 18.3887 60.878 18.6432 60.5118 18.8611C60.1227 19.0957 59.7183 19.3039 59.3012 19.4841L59.2853 19.6719ZM69.651 16.4287C69.7415 16.0692 69.7789 15.6982 69.7619 15.3277C69.7567 14.989 69.6329 14.6629 69.412 14.406C69.2669 14.2709 69.0947 14.1683 68.9068 14.105C68.7189 14.0416 68.5197 14.0192 68.3224 14.0391C67.8087 14.0302 67.3029 14.1662 66.863 14.4316C66.3881 14.7594 66.0422 15.2422 65.8844 15.7971L65.4064 17.1115H65.7307L66.0892 16.1556C66.1979 15.814 66.3644 15.4936 66.5813 15.2083C66.6451 15.1284 66.7254 15.0635 66.8168 15.0178C66.9081 14.9721 67.0084 14.9468 67.1105 14.9437C67.1667 14.9368 67.2236 14.9513 67.2695 14.9846C67.3154 15.0179 67.347 15.0673 67.358 15.1229C67.3777 15.3281 67.3515 15.5351 67.2812 15.7289L65.2015 23.1199H67.9128L69.651 16.4287ZM72.3962 14.4145C72.4304 14.4259 72.4645 14.4376 72.4987 14.4487C72.0494 14.5428 71.6441 14.7829 71.3462 15.1315C71.0364 15.4657 70.8634 15.9045 70.8627 16.3604C70.8515 16.5156 70.8724 16.6713 70.9234 16.8181C70.975 16.9649 71.0559 17.0996 71.1613 17.2139C71.2785 17.3168 71.4145 17.3954 71.5617 17.4452C71.709 17.4951 71.8652 17.5151 72.0208 17.5041C72.2622 17.5091 72.5022 17.4595 72.7227 17.359C72.9424 17.2585 73.1371 17.1097 73.292 16.9237C73.622 16.5462 73.8006 16.0597 73.7929 15.5582C73.8062 15.1604 73.6666 14.7725 73.4029 14.4743C73.2578 14.3245 73.082 14.2079 72.8873 14.1328C72.6934 14.0575 72.4848 14.0256 72.2769 14.0391C71.8652 14.0307 71.4592 14.1339 71.1013 14.3377C70.7022 14.5987 70.3764 14.9571 70.1545 15.3789C69.8017 16.0156 69.5102 16.6843 69.284 17.376C68.9938 18.2125 68.6733 19.2736 68.3224 20.5595L67.9469 22.9151C68.2996 21.3788 68.6401 20.0958 68.9682 19.0659C69.227 18.2202 69.5435 17.3933 69.9152 16.5909C70.1441 16.088 70.4336 15.615 70.7776 15.1827C70.9855 14.9144 71.2534 14.6982 71.5597 14.5511C71.7864 14.4537 72.0299 14.4015 72.2769 14.3975C72.3166 14.3965 72.3571 14.4019 72.3962 14.4134V14.4145ZM75.5678 19.6719C76.0994 19.564 76.6227 19.4215 77.1355 19.2452C77.6699 19.0634 78.1917 18.8468 78.6976 18.5965C79.1797 18.3598 79.6366 18.0739 80.0601 17.7431C80.4397 17.4514 80.7662 17.0962 81.0243 16.6933C81.2566 16.3285 81.3801 15.9051 81.3801 15.4729C81.3941 15.2583 81.3494 15.0441 81.2504 14.8531C81.1513 14.6622 81.0027 14.5017 80.8199 14.3889C80.4013 14.1444 79.922 14.0232 79.4371 14.0391C78.729 14.0329 78.0271 14.1724 77.3748 14.4487C76.7364 14.7228 76.1469 15.0974 75.6278 15.5582C75.101 16.0221 74.6441 16.5597 74.2708 17.1542C73.9024 17.7375 73.6108 18.3657 73.4029 19.0232C73.202 19.6466 73.0987 20.2972 73.0959 20.9521C73.0743 21.297 73.1378 21.642 73.2815 21.9563C73.4259 22.2705 73.645 22.5442 73.9206 22.7529C74.5004 23.1654 75.198 23.3781 75.9097 23.3589C76.5166 23.3663 77.1187 23.2532 77.6817 23.026C78.1924 22.8187 78.6641 22.5272 79.0785 22.164C79.4469 21.8462 79.7685 21.4785 80.0343 21.0716L79.7615 20.935C79.3924 21.3682 78.9334 21.7149 78.4157 21.9506C78.0773 22.1095 77.7131 22.205 77.3406 22.2323C76.9764 22.2484 76.6199 22.1265 76.3415 21.8909C76.089 21.6633 75.9606 21.2252 75.9606 20.5765C75.9669 19.8662 76.0687 19.1599 76.2648 18.477C76.4587 17.7771 76.7245 17.0993 77.0587 16.4543C77.3315 15.9097 77.6734 15.4021 78.0745 14.9437C78.4269 14.5571 78.7541 14.3633 79.0617 14.3633C79.1015 14.361 79.142 14.3693 79.1776 14.3872C79.2138 14.4052 79.2438 14.4323 79.2662 14.4658C79.3227 14.5884 79.3464 14.7238 79.3345 14.8583C79.3387 15.4787 79.1922 16.0908 78.9083 16.6421C78.6313 17.1874 78.2622 17.6811 77.8185 18.1015C77.5038 18.3889 77.1606 18.6433 76.7943 18.8611C76.4057 19.0959 76.0017 19.304 75.5852 19.4841L75.5678 19.6719ZM85.9345 16.4287C86.0231 16.0687 86.0594 15.6981 86.0427 15.3277C86.0371 14.9896 85.915 14.6638 85.6959 14.406C85.5501 14.2707 85.3778 14.1679 85.1894 14.1046C85.001 14.0414 84.8008 14.019 84.6034 14.0391C84.0906 14.0298 83.5855 14.1659 83.1466 14.4316C82.6708 14.7591 82.3241 15.2419 82.165 15.7971L81.6871 17.1115H82.0115L82.3701 16.1556C82.4797 15.8138 82.6471 15.4933 82.8655 15.2083C82.929 15.1284 83.0092 15.0635 83.1006 15.0178C83.192 14.9721 83.2924 14.9468 83.3943 14.9437C83.4501 14.9368 83.5066 14.9514 83.552 14.9848C83.598 15.018 83.6287 15.0675 83.6392 15.1229C83.6587 15.3281 83.6322 15.5351 83.5624 15.7289L81.4827 23.1199H84.1938L85.9345 16.4287ZM88.6771 14.4145C88.7113 14.4259 88.7455 14.4376 88.7797 14.4487C88.3317 14.5436 87.9278 14.7836 87.6306 15.1315C87.318 15.4647 87.1443 15.9039 87.1436 16.3604C87.1324 16.5156 87.1534 16.6713 87.205 16.8181C87.2559 16.9649 87.3369 17.0996 87.4429 17.2139C87.5601 17.3166 87.6969 17.3951 87.8448 17.4449C87.9927 17.4947 88.149 17.5148 88.3045 17.5041C88.5459 17.5087 88.7852 17.459 89.005 17.3585C89.2248 17.2581 89.4187 17.1095 89.5736 16.9237C89.9057 16.5471 90.085 16.0602 90.0766 15.5582C90.0892 15.16 89.949 14.7721 89.6845 14.4743C89.5394 14.3245 89.3636 14.2079 89.169 14.1328C88.9743 14.0575 88.7657 14.0256 88.5578 14.0391C88.1462 14.0315 87.7408 14.1346 87.3829 14.3377C86.9838 14.5987 86.6573 14.9571 86.4355 15.3789C86.0838 16.0158 85.7936 16.6844 85.5676 17.376C85.2773 18.2125 84.9564 19.2736 84.6034 20.5595L84.228 22.9151C84.5804 21.3788 84.9222 20.0958 85.2522 19.0659C85.5111 18.2208 85.8271 17.3939 86.1969 16.5909C86.425 16.088 86.7145 15.615 87.0585 15.1827C87.2678 14.9142 87.5364 14.698 87.8441 14.5511C88.0694 14.454 88.3122 14.4018 88.5578 14.3975C88.5983 14.3965 88.6387 14.4019 88.6771 14.4134V14.4145Z" fill="#2E374F"/>
</g>
<defs>
<clipPath id="clip0_30_32">
<rect width="90.6977" height="30" fill="white" transform="translate(0.0629883)"/>
</clipPath>
</defs>
</svg>
