<svg width="121" height="30" viewBox="0 0 121 30" fill="none" xmlns="http://www.w3.org/2000/svg">
<g clip-path="url(#clip0_30_57)">
<path d="M19.5322 15.0198C20.518 14.1944 21.1448 12.9545 21.1448 11.5682C21.1448 10.182 20.518 8.94208 19.5322 8.11663C19.6453 8.06192 19.754 8.00255 19.8575 7.9382C20.5114 7.53166 21.2831 7.29688 22.1097 7.29688C24.4686 7.29688 26.381 9.20926 26.381 11.5682C26.381 13.9272 24.4686 15.8395 22.1097 15.8395C21.2831 15.8395 20.5114 15.6047 19.8575 15.1982C19.754 15.1339 19.6453 15.0745 19.5322 15.0198Z" fill="#2E374F"/>
<path d="M18.3443 12.2379C18.7852 11.0301 18.7081 9.643 18.015 8.44244C17.3218 7.24191 16.159 6.48158 14.8926 6.25957C14.9631 6.15573 15.0275 6.04995 15.085 5.94244C15.448 5.26345 15.999 4.67425 16.7147 4.26096C18.7577 3.08145 21.3701 3.78142 22.5496 5.82438C23.7291 7.86735 23.0291 10.4796 20.9861 11.6592C20.2703 12.0725 19.4845 12.2549 18.715 12.2299C18.5933 12.2258 18.4694 12.2288 18.3443 12.2379Z" fill="#2E374F"/>
<path d="M15.9286 10.4252C15.7066 9.15886 14.9463 7.99605 13.7457 7.30293C12.5452 6.60979 11.158 6.53274 9.9502 6.97366C9.95937 6.8485 9.96228 6.72466 9.95831 6.60283C9.93317 5.8333 10.1157 5.04756 10.529 4.33171C11.7085 2.28875 14.3208 1.58878 16.3638 2.76828C18.4068 3.94779 19.1068 6.56012 17.9272 8.60308C17.5139 9.31883 16.9248 9.86986 16.2457 10.2329C16.1383 10.2903 16.0325 10.3547 15.9286 10.4252Z" fill="#2E374F"/>
<path d="M12.9271 10.0646C12.1017 9.07894 10.8618 8.45203 9.47545 8.45203C8.08915 8.45203 6.84932 9.07894 6.02385 10.0646C5.96917 9.95168 5.90979 9.84297 5.84542 9.73938C5.43889 9.08556 5.2041 8.31379 5.2041 7.48719C5.2041 5.12818 7.11646 3.21582 9.47545 3.21582C11.8345 3.21582 13.7468 5.12818 13.7468 7.48719C13.7468 8.31379 13.512 9.08556 13.1055 9.73938C13.0411 9.84297 12.9817 9.95168 12.9271 10.0646Z" fill="#2E374F"/>
<path d="M10.1496 11.251C8.94184 10.8101 7.55466 10.8872 6.3541 11.5802C5.15354 12.2734 4.39321 13.4362 4.17121 14.7026C4.06736 14.6321 3.96158 14.5677 3.85406 14.5102C3.17508 14.1472 2.58587 13.5962 2.17258 12.8804C0.99307 10.8374 1.69304 8.22515 3.73601 7.04563C5.77898 5.86611 8.3913 6.56609 9.57087 8.60907C9.98417 9.32492 10.1666 10.1107 10.1415 10.8802C10.1375 11.002 10.1404 11.1258 10.1496 11.251Z" fill="#2E374F"/>
<path d="M8.33305 13.6663C7.06663 13.8883 5.90382 14.6487 5.21068 15.8492C4.51754 17.0498 4.44048 18.4369 4.88142 19.6447C4.75624 19.6355 4.63238 19.6326 4.51053 19.6366C3.74101 19.6617 2.95527 19.4792 2.23943 19.066C0.196461 17.8864 -0.503511 15.2741 0.675996 13.2311C1.8555 11.1882 4.46783 10.4882 6.5108 11.6677C7.22664 12.081 7.77759 12.6702 8.14058 13.3491C8.19805 13.4567 8.26255 13.5625 8.33305 13.6663Z" fill="#2E374F"/>
<path d="M7.96889 16.6675C6.98315 17.493 6.35629 18.7329 6.35629 20.119C6.35629 21.5054 6.98315 22.7453 7.96889 23.5707C7.85592 23.6253 7.7472 23.6848 7.64366 23.7491C6.98981 24.1556 6.21807 24.3904 5.39149 24.3904C3.03248 24.3904 1.12012 22.4781 1.12012 20.119C1.12012 17.7601 3.03248 15.8477 5.39149 15.8477C6.21807 15.8477 6.98981 16.0825 7.64366 16.489C7.7472 16.5534 7.85592 16.6127 7.96889 16.6675Z" fill="#2E374F"/>
<path d="M9.15539 19.4463C8.71435 20.654 8.7914 22.0412 9.4846 23.2417C10.1777 24.4423 11.3405 25.2026 12.6069 25.4246C12.5364 25.5285 12.472 25.6343 12.4145 25.7418C12.0515 26.4208 11.5006 27.01 10.7847 27.4233C8.74174 28.6028 6.12943 27.9028 4.94993 25.8598C3.77041 23.8168 4.47039 21.2046 6.51335 20.025C7.2292 19.6117 8.01495 19.4292 8.78445 19.4544C8.9063 19.4583 9.0301 19.4554 9.15539 19.4463Z" fill="#2E374F"/>
<path d="M11.5745 21.2627C11.7965 22.5291 12.5569 23.692 13.7574 24.385C14.9579 25.0782 16.3452 25.1552 17.5529 24.7143C17.5438 24.8395 17.5408 24.9633 17.5448 25.0852C17.57 25.8547 17.3875 26.6405 16.9742 27.3563C15.7946 29.3993 13.1824 30.0992 11.1394 28.9197C9.09635 27.7402 8.39639 25.1279 9.57591 23.0849C9.9892 22.3691 10.5784 21.8181 11.2573 21.4551C11.3649 21.3977 11.4707 21.3332 11.5745 21.2627Z" fill="#2E374F"/>
<path d="M14.5751 21.6245C15.4006 22.6103 16.6405 23.2371 18.0268 23.2371C19.4131 23.2371 20.653 22.6103 21.4784 21.6245C21.533 21.7375 21.5924 21.8462 21.6568 21.9497C22.0633 22.6036 22.2981 23.3754 22.2981 24.202C22.2981 26.561 20.3858 28.4733 18.0268 28.4733C15.6678 28.4733 13.7554 26.561 13.7554 24.202C13.7554 23.3754 13.9902 22.6036 14.3967 21.9497C14.4611 21.8462 14.5205 21.7375 14.5751 21.6245Z" fill="#2E374F"/>
<path d="M17.3535 20.4404C18.5612 20.8813 19.9484 20.8042 21.149 20.1112C22.3495 19.418 23.1099 18.2552 23.3319 16.9888C23.4357 17.0592 23.5415 17.1237 23.649 17.1812C24.328 17.5442 24.9172 18.0952 25.3305 18.811C26.51 20.854 25.81 23.4663 23.7671 24.6458C21.7241 25.8253 19.1118 25.1253 17.9323 23.0823C17.519 22.3665 17.3364 21.5808 17.3615 20.8113C17.3656 20.6894 17.3626 20.5656 17.3535 20.4404Z" fill="#2E374F"/>
<path d="M22.2918 15.8331L22.2893 15.8376C21.5962 17.0382 20.4333 17.7985 19.167 18.0205C19.2374 18.1243 19.3019 18.2302 19.3593 18.3377C19.7223 19.0168 20.2733 19.6058 20.9891 20.0191C23.0321 21.1986 25.6444 20.4988 26.824 18.4558C27.8351 16.7043 27.465 14.5343 26.0514 13.2075C25.4304 14.6978 23.9894 15.7608 22.2918 15.8331Z" fill="#2E374F"/>
<path d="M37.4152 7.76904V20.5262H34.5879V7.76904H37.4152ZM35.0361 20.5262L35.0878 18.0265H42.4145V20.5262H35.0361ZM42.857 16.1991C42.857 15.2912 43.0467 14.4981 43.4259 13.8201C43.8052 13.1305 44.3396 12.5961 45.0292 12.2168C45.7187 11.8375 46.5232 11.6479 47.4427 11.6479C48.3621 11.6479 49.1608 11.8375 49.8389 12.2168C50.5285 12.5961 51.0629 13.1305 51.4422 13.8201C51.8214 14.4981 52.011 15.2912 52.011 16.1991C52.011 17.107 51.8214 17.9001 51.4422 18.5781C51.0629 19.2562 50.5285 19.7849 49.8389 20.1641C49.1608 20.5434 48.3621 20.733 47.4427 20.733C46.5232 20.733 45.7187 20.5434 45.0292 20.1641C44.3396 19.7849 43.8052 19.2562 43.4259 18.5781C43.0467 17.9001 42.857 17.107 42.857 16.1991ZM45.5291 16.1819C45.5291 16.6186 45.6095 17.0036 45.7704 17.3369C45.9313 17.6587 46.1554 17.9115 46.4427 18.0955C46.7301 18.2678 47.0634 18.354 47.4427 18.354C47.822 18.354 48.1552 18.2678 48.4425 18.0955C48.7298 17.9115 48.9482 17.6587 49.0977 17.3369C49.2585 17.0036 49.339 16.6186 49.339 16.1819C49.339 15.7451 49.2585 15.3659 49.0977 15.0441C48.9482 14.7223 48.7298 14.4752 48.4425 14.3027C48.1552 14.1189 47.822 14.0269 47.4427 14.0269C47.0634 14.0269 46.7301 14.1189 46.4427 14.3027C46.1554 14.4752 45.9313 14.7223 45.7704 15.0441C45.6095 15.3659 45.5291 15.7451 45.5291 16.1819ZM52.6106 16.0612C52.6106 15.1762 52.7886 14.4005 53.1449 13.7339C53.5012 13.0673 53.9897 12.5501 54.6103 12.1823C55.2309 11.803 55.9435 11.6134 56.7479 11.6134C57.426 11.6134 58.0237 11.7513 58.5409 12.0272C59.0696 12.303 59.4258 12.6651 59.6097 13.1132L59.3511 13.2857L59.558 11.9065H61.9542V19.9745C61.9542 20.9859 61.7588 21.8594 61.3681 22.5949C60.9773 23.3419 60.4199 23.9166 59.6959 24.3188C58.9834 24.721 58.1329 24.9222 57.1444 24.9222C56.317 24.9222 55.57 24.7555 54.9034 24.4222C54.2482 24.1004 53.7139 23.6407 53.3001 23.0431C52.8979 22.4455 52.6565 21.7559 52.5761 20.9744H55.2654C55.2884 21.4686 55.4838 21.8478 55.8515 22.1122C56.2308 22.3765 56.7134 22.5087 57.2997 22.5087C57.9547 22.5087 58.4604 22.3248 58.8167 21.957C59.173 21.6007 59.3511 21.1238 59.3511 20.5262V18.6988L59.5924 18.9229C59.4086 19.3712 59.0523 19.7331 58.5237 20.009C57.9949 20.2848 57.3859 20.4227 56.6962 20.4227C55.9032 20.4227 55.1964 20.2389 54.5758 19.8711C53.9667 19.5033 53.4839 18.9919 53.1277 18.3368C52.7829 17.6817 52.6106 16.9232 52.6106 16.0612ZM55.2998 15.9922C55.2998 16.406 55.386 16.7737 55.5584 17.0955C55.7309 17.4174 55.9607 17.6702 56.2481 17.854C56.5354 18.0265 56.8514 18.1127 57.1962 18.1127C57.6099 18.1127 57.9719 18.0265 58.2823 17.854C58.6041 17.6702 58.8512 17.4174 59.0235 17.0955C59.2074 16.7737 59.2994 16.406 59.2994 15.9922C59.2994 15.567 59.2074 15.205 59.0235 14.9061C58.8397 14.5959 58.5868 14.3545 58.265 14.1821C57.9547 14.0097 57.5927 13.9235 57.1789 13.9235C56.8342 13.9235 56.5182 14.0097 56.2308 14.1821C55.9435 14.3545 55.7136 14.5959 55.5412 14.9061C55.3803 15.2165 55.2998 15.5785 55.2998 15.9922ZM62.9004 16.1991C62.9004 15.2912 63.09 14.4981 63.4693 13.8201C63.8486 13.1305 64.3829 12.5961 65.0726 12.2168C65.7621 11.8375 66.5667 11.6479 67.4861 11.6479C68.4055 11.6479 69.2042 11.8375 69.8824 12.2168C70.5719 12.5961 71.1063 13.1305 71.4855 13.8201C71.8648 14.4981 72.0544 15.2912 72.0544 16.1991C72.0544 17.107 71.8648 17.9001 71.4855 18.5781C71.1063 19.2562 70.5719 19.7849 69.8824 20.1641C69.2042 20.5434 68.4055 20.733 67.4861 20.733C66.5667 20.733 65.7621 20.5434 65.0726 20.1641C64.3829 19.7849 63.8486 19.2562 63.4693 18.5781C63.09 17.9001 62.9004 17.107 62.9004 16.1991ZM65.5724 16.1819C65.5724 16.6186 65.6529 17.0036 65.8138 17.3369C65.9747 17.6587 66.1988 17.9115 66.4862 18.0955C66.7735 18.2678 67.1068 18.354 67.4861 18.354C67.8653 18.354 68.1987 18.2678 68.4859 18.0955C68.7732 17.9115 68.9916 17.6587 69.141 17.3369C69.3019 17.0036 69.3824 16.6186 69.3824 16.1819C69.3824 15.7451 69.3019 15.3659 69.141 15.0441C68.9916 14.7223 68.7732 14.4752 68.4859 14.3027C68.1987 14.1189 67.8653 14.0269 67.4861 14.0269C67.1068 14.0269 66.7735 14.1189 66.4862 14.3027C66.1988 14.4752 65.9747 14.7223 65.8138 15.0441C65.6529 15.3659 65.5724 15.7451 65.5724 16.1819ZM73.1712 20.5262V11.9065H75.8432V20.5262H73.1712ZM74.5158 10.5618C74.0906 10.5618 73.7285 10.4181 73.4297 10.1309C73.1424 9.832 72.9987 9.46997 72.9987 9.04476C72.9987 8.61953 73.1424 8.26324 73.4297 7.97587C73.7285 7.68858 74.0906 7.54492 74.5158 7.54492C74.9295 7.54492 75.2801 7.68858 75.5674 7.97587C75.8662 8.26324 76.0156 8.61953 76.0156 9.04476C76.0156 9.46997 75.8662 9.832 75.5674 10.1309C75.2801 10.4181 74.9295 10.5618 74.5158 10.5618ZM77.571 24.6636V11.9065H80.0022L80.1395 12.9581C80.3811 12.5559 80.7664 12.2341 81.2945 11.9927C81.8234 11.7513 82.3926 11.6307 83.0014 11.6307C83.8058 11.6307 84.5069 11.8088 85.1045 12.1651C85.7022 12.5214 86.1734 13.0328 86.5184 13.6994C86.8627 14.3545 87.0466 15.1475 87.0703 16.0784C87.0932 16.9863 86.9432 17.7966 86.6219 18.5091C86.2998 19.2102 85.8348 19.7619 85.2253 20.1641C84.6158 20.5664 83.8808 20.7675 83.0187 20.7675C82.4211 20.7675 81.8637 20.6641 81.3466 20.4572C80.8295 20.2503 80.4442 19.986 80.1916 19.6642V24.6636H77.571ZM80.2429 16.2164C80.2429 16.6416 80.329 17.0208 80.5019 17.3541C80.6858 17.6759 80.9329 17.9288 81.2432 18.1127C81.5645 18.2851 81.9324 18.3712 82.3461 18.3712C82.7716 18.3712 83.134 18.2793 83.4324 18.0955C83.7427 17.9115 83.9787 17.6587 84.139 17.3369C84.3119 17.0151 84.3979 16.6416 84.3979 16.2164C84.3979 15.7911 84.3119 15.4176 84.139 15.0958C83.9787 14.774 83.7427 14.5211 83.4324 14.3372C83.134 14.1534 82.7716 14.0614 82.3461 14.0614C81.9324 14.0614 81.5645 14.1534 81.2432 14.3372C80.9329 14.5097 80.6858 14.7568 80.5019 15.0786C80.329 15.4004 80.2429 15.7796 80.2429 16.2164ZM87.525 17.8023H89.9223C89.9223 18.1011 90.0193 18.3368 90.2152 18.5091C90.4217 18.6816 90.7199 18.7678 91.1108 18.7678C91.3402 18.7678 91.5308 18.739 91.6799 18.6816C91.8414 18.6241 91.9623 18.5436 92.0417 18.4402C92.1343 18.3253 92.1802 18.1989 92.1802 18.061C92.1802 17.9115 92.1282 17.7851 92.0249 17.6817C91.9323 17.5783 91.7717 17.4978 91.5423 17.4404L90.0255 17.0438C89.174 16.814 88.5714 16.4749 88.215 16.0267C87.8582 15.5785 87.6806 15.067 87.6806 14.4924C87.6806 13.9177 87.8242 13.4178 88.1116 12.9926C88.4099 12.5559 88.8123 12.2226 89.3179 11.9927C89.8243 11.7513 90.3926 11.6307 91.0252 11.6307C91.9782 11.6307 92.7599 11.895 93.3696 12.4237C93.9899 12.9408 94.3173 13.6476 94.3526 14.5441H91.9552C91.9676 14.2453 91.8811 14.0097 91.6976 13.8373C91.5132 13.6534 91.2723 13.5615 90.9732 13.5615C90.7093 13.5615 90.4905 13.6304 90.3184 13.7684C90.157 13.8947 90.0767 14.0729 90.0767 14.3027C90.0767 14.5211 90.157 14.682 90.3184 14.7855C90.479 14.8774 90.697 14.9579 90.9732 15.0269L92.5076 15.4061C93.2205 15.5785 93.7605 15.8716 94.1284 16.2853C94.4964 16.699 94.679 17.2277 94.679 17.8713C94.679 18.7562 94.3526 19.4573 93.697 19.9745C93.0423 20.4917 92.1917 20.7503 91.1452 20.7503C90.0652 20.7503 89.197 20.4802 88.5423 19.9401C87.8984 19.3884 87.5598 18.6758 87.525 17.8023ZM98.9152 20.7503C97.904 20.7503 97.1223 20.4342 96.5708 19.8021C96.0202 19.17 95.7431 18.3425 95.7431 17.3196V11.9065H98.3982V16.3543C98.3982 17.1587 98.542 17.6989 98.8296 17.9747C99.1173 18.2506 99.4958 18.3885 99.967 18.3885C100.577 18.3885 100.996 18.2161 101.225 17.8713C101.455 17.5266 101.57 17.0324 101.57 16.3887V11.9065H104.225V20.5262H101.726L101.553 19.5608C101.289 19.917 100.916 20.2044 100.433 20.4227C99.9502 20.6411 99.4446 20.7503 98.9152 20.7503ZM108.608 20.5262H105.935V11.9065H108.418L108.608 13.3891L108.315 13.0787C108.545 12.642 108.89 12.2915 109.349 12.0272C109.82 11.7513 110.326 11.6134 110.867 11.6134C111.717 11.6134 112.383 11.803 112.866 12.1823C113.36 12.5616 113.717 13.0615 113.935 13.6821H113.521C113.659 13.0615 113.992 12.5616 114.521 12.1823C115.05 11.803 115.682 11.6134 116.418 11.6134C117.532 11.6134 118.354 11.9122 118.883 12.5099C119.411 13.1075 119.675 13.9005 119.675 14.8889V20.5262H117.09V15.544C117.09 15.0038 116.958 14.6016 116.693 14.3372C116.44 14.0729 116.102 13.9408 115.676 13.9408C115.423 13.9408 115.182 13.9982 114.952 14.1131C114.723 14.2165 114.532 14.4062 114.383 14.682C114.234 14.9464 114.159 15.3257 114.159 15.8198V20.5262H111.538V15.544C111.538 15.0038 111.412 14.6073 111.16 14.3545C110.906 14.0901 110.568 13.958 110.142 13.958C109.889 13.958 109.642 14.0155 109.4 14.1304C109.171 14.2338 108.981 14.4235 108.832 14.6993C108.683 14.9636 108.608 15.3371 108.608 15.8198V20.5262Z" fill="#2E374F"/>
</g>
<defs>
<clipPath id="clip0_30_57">
<rect width="120.882" height="30" fill="white" transform="translate(0.0546875)"/>
</clipPath>
</defs>
</svg>
