<svg width="127" height="30" viewBox="0 0 127 30" fill="none" xmlns="http://www.w3.org/2000/svg">
<g clip-path="url(#clip0_30_50)">
<path fill-rule="evenodd" clip-rule="evenodd" d="M26.7255 30.0001C26.1943 30.0014 25.668 29.8966 25.1777 29.6919C24.6874 29.4873 24.2429 29.1868 23.8702 28.8081C23.1128 28.0436 22.6881 27.011 22.6881 25.935C22.6881 24.8589 23.1128 23.8264 23.8702 23.0618C24.2436 22.6845 24.6881 22.3849 25.178 22.1803C25.6679 21.9757 26.1935 21.8703 26.7243 21.8698C27.2552 21.8695 27.7809 21.9743 28.2711 22.1782C28.7613 22.382 29.2062 22.6811 29.5802 23.0578C30.3367 23.8243 30.7608 24.858 30.7608 25.935C30.7608 27.012 30.3367 28.0456 29.5802 28.8122C29.207 29.1896 28.7624 29.4891 28.2723 29.693C27.7822 29.897 27.2564 30.0013 26.7255 30.0001ZM4.79496 8.31953C4.26353 8.32074 3.73721 8.21593 3.24678 8.01127C2.75634 7.8066 2.31164 7.50616 1.93872 7.12754C1.18156 6.36297 0.756836 5.33043 0.756836 4.25439C0.756836 3.17835 1.18156 2.14586 1.93872 1.38128C2.31216 1.00399 2.75663 0.704396 3.24648 0.499817C3.73633 0.295237 4.26187 0.189723 4.79272 0.189349C5.32358 0.188974 5.84925 0.293717 6.33939 0.497605C6.82953 0.701493 7.27441 1.00048 7.64839 1.37725C8.40652 2.14294 8.83181 3.17687 8.83181 4.25439C8.83181 5.33191 8.40652 6.36589 7.64839 7.13157C7.27531 7.50892 6.83092 7.80831 6.34103 8.01225C5.85116 8.2162 5.32559 8.32065 4.79496 8.31953ZM26.5455 8.1987C26.0145 8.19985 25.4887 8.09541 24.9983 7.89147C24.5081 7.68754 24.0632 7.3882 23.6897 7.0108C22.9339 6.24473 22.5101 5.21181 22.5101 4.13562C22.5101 3.05944 22.9339 2.02653 23.6897 1.26045C24.0632 0.882856 24.5079 0.583087 24.9981 0.3785C25.4882 0.173913 26.014 0.0685723 26.5452 0.0685723C27.0763 0.0685723 27.6022 0.173913 28.0923 0.3785C28.5824 0.583087 29.0271 0.882856 29.4006 1.26045C30.1567 2.02643 30.5805 3.05937 30.5805 4.13562C30.5805 5.21188 30.1567 6.24483 29.4006 7.0108C29.0273 7.38827 28.5826 7.68768 28.0924 7.89162C27.6023 8.09557 27.0765 8.19994 26.5455 8.1987ZM4.90006 30.0001C4.36818 30.0015 3.84137 29.8968 3.35045 29.6921C2.85952 29.4874 2.41437 29.187 2.04101 28.8081C1.28393 28.0426 0.859512 27.0092 0.859965 25.9325C0.860417 24.8558 1.28569 23.8227 2.04342 23.0578C2.21671 22.8845 2.40722 22.7293 2.612 22.5947C2.68086 22.5464 2.7445 22.5062 2.81054 22.4659C2.95994 22.3813 3.10851 22.3008 3.24744 22.2364C3.32315 22.2041 3.40088 22.1679 3.48262 22.1357C3.64383 22.0782 3.80811 22.0298 3.9747 21.9907C4.01174 21.9786 4.04437 21.9706 4.07738 21.9626C4.09833 21.9544 4.11765 21.9504 4.13939 21.9424L5.03819 21.8819C5.15174 21.886 5.27377 21.9021 5.40383 21.9183L5.45537 21.9262C5.49288 21.9313 5.53068 21.9341 5.56852 21.9343L5.60475 21.9383L5.64504 21.9464H5.68087C5.74651 21.9464 5.81215 21.9504 5.87698 21.9504C7.46253 21.9225 8.97218 21.2665 10.0745 20.1264C11.1767 18.9864 11.7816 17.4555 11.7562 15.8699V15.8256L11.7477 15.7773C11.7406 15.7346 11.736 15.6916 11.7337 15.6484C11.73 15.596 11.7255 15.5437 11.7191 15.4914L11.709 15.3987C11.7006 15.3222 11.6918 15.2457 11.6865 15.1652L11.7554 14.2592C11.7604 14.2373 11.7668 14.2158 11.7743 14.1947L11.7904 14.1383C11.8288 13.9646 11.8789 13.7937 11.9406 13.6269C11.9691 13.5458 12.0023 13.4666 12.0401 13.3894C12.1094 13.2347 12.1875 13.0841 12.274 12.9384C12.3123 12.8739 12.3489 12.8095 12.3928 12.7451C12.5295 12.5389 12.6854 12.3461 12.8583 12.1692C13.232 11.7919 13.6767 11.4923 14.1668 11.2878C14.6567 11.0831 15.1825 10.9776 15.7135 10.9773C16.2446 10.9769 16.7704 11.0816 17.2607 11.2856C17.7511 11.4894 18.1962 11.7884 18.5704 12.1652C19.326 12.9324 19.7492 13.9662 19.7486 15.0431C19.7479 16.12 19.3234 17.1533 18.5668 17.9195C18.3926 18.092 18.202 18.2471 17.9978 18.3827C17.9305 18.4309 17.8669 18.4672 17.8028 18.5074C17.6617 18.5932 17.5158 18.6712 17.366 18.741C17.2854 18.7733 17.2081 18.8135 17.132 18.8417C16.9716 18.8998 16.8078 18.9483 16.6416 18.9866L16.5449 19.0148C16.5232 19.0189 16.5015 19.027 16.4797 19.0309L15.5724 19.0954C15.4661 19.0914 15.3546 19.0793 15.2366 19.0631L15.156 19.0511C15.129 19.0471 15.0863 19.0471 15.0441 19.043L15.0119 19.0391L14.9655 19.0309H14.9293C14.8633 19.027 14.7981 19.027 14.7324 19.027C13.9468 19.035 13.1708 19.2006 12.4504 19.5139C11.7299 19.8273 11.0797 20.2819 10.5381 20.8511C9.98978 21.4138 9.55866 22.0798 9.26984 22.8105C8.98102 23.5412 8.84023 24.3219 8.85562 25.1074V25.1517L8.86409 25.2001C8.87116 25.2427 8.87588 25.2858 8.87819 25.3289C8.88181 25.3813 8.88625 25.4336 8.89269 25.486C8.89269 25.5182 8.90074 25.5746 8.90759 25.627C8.91579 25.6884 8.92076 25.7501 8.92248 25.8122V25.8364L8.85764 26.7061C8.85321 26.7222 8.82423 26.8229 8.81738 26.8551C8.77871 27.0259 8.72922 27.1939 8.6692 27.3584C8.64097 27.4365 8.60885 27.5132 8.57295 27.588C8.50289 27.741 8.42678 27.89 8.34021 28.043C8.29994 28.1035 8.25725 28.1759 8.21134 28.2444C8.07562 28.4456 7.92227 28.6342 7.75309 28.8081C7.38092 29.1867 6.93688 29.4872 6.44702 29.6919C5.95717 29.8966 5.43096 30.0013 4.90006 30.0001ZM15.8019 30.0001C15.27 30.0016 14.7432 29.897 14.2523 29.6923C13.7613 29.4876 13.3162 29.1871 12.9429 28.8081C12.5181 28.3886 12.1915 27.88 11.9868 27.3191C11.782 26.7581 11.7042 26.1589 11.7589 25.5642C11.8136 24.9696 11.9994 24.3946 12.303 23.8804C12.6067 23.3662 13.0204 22.9257 13.5147 22.5907C13.5747 22.5504 13.6391 22.5101 13.7063 22.4699C13.8486 22.3843 13.9952 22.3063 14.1457 22.2364C14.2262 22.2041 14.3016 22.1679 14.3797 22.1357C14.538 22.0763 14.7006 22.0292 14.8661 21.9947C14.8661 21.9947 15.0083 21.9544 15.0272 21.9464L15.9401 21.8819C16.0476 21.886 16.164 21.9021 16.2855 21.9183L16.3528 21.9262C16.398 21.9303 16.4354 21.9343 16.4737 21.9343C16.4885 21.9336 16.5034 21.9349 16.518 21.9383L16.5465 21.9424L16.5868 21.9464C16.6537 21.9464 16.7213 21.9504 16.7881 21.9504C17.5722 21.9411 18.3465 21.7753 19.0657 21.4628C19.7849 21.1503 20.4343 20.6972 20.976 20.1303C21.5238 19.5664 21.9545 18.8996 22.2431 18.1684C22.5318 17.4371 22.6726 16.6559 22.6576 15.8699L22.652 15.6806L22.6355 15.6605C22.6355 15.6565 22.6355 15.6484 22.6355 15.6403C22.6331 15.596 22.6306 15.5517 22.6262 15.5074L22.6113 15.3786C22.6029 15.3061 22.5937 15.2336 22.5912 15.1612L22.6536 14.2833C22.6589 14.2631 22.6903 14.1505 22.6975 14.1183C22.7366 13.9489 22.7859 13.7822 22.8453 13.6189C22.8739 13.5383 22.9089 13.4618 22.9443 13.3813C23.0143 13.2297 23.092 13.0819 23.1771 12.9384L23.1948 12.9101C23.2245 12.8561 23.2571 12.8036 23.2927 12.7531C23.4295 12.544 23.586 12.3484 23.7602 12.1692C24.1336 11.7916 24.5783 11.4918 25.0684 11.2871C25.5585 11.0825 26.0843 10.9772 26.6154 10.9772C27.1465 10.9772 27.6724 11.0825 28.1625 11.2871C28.6526 11.4918 29.0972 11.7916 29.4706 12.1692C29.8969 12.5881 30.2246 13.0965 30.4302 13.6576C30.6358 14.2187 30.714 14.8185 30.6593 15.4136C30.6045 16.0086 30.4182 16.5841 30.1138 17.0982C29.8093 17.6125 29.3943 18.0526 28.8989 18.3866C28.8533 18.4189 28.8095 18.443 28.7655 18.4713L28.6951 18.5155C28.5598 18.596 28.4132 18.6726 28.2698 18.741C28.1894 18.7773 28.1129 18.8135 28.0327 18.8417C27.8717 18.9012 27.7069 18.9497 27.5394 18.9866C27.4991 18.9987 27.4681 19.0068 27.4367 19.0148C27.4161 19.0234 27.3948 19.0301 27.3731 19.035L26.4755 19.0954C26.3442 19.0914 26.202 19.0712 26.0648 19.0551C26.0176 19.047 25.9814 19.0471 25.944 19.043H25.9037L25.8271 19.035C25.7603 19.0309 25.6943 19.0309 25.6259 19.0309C24.8415 19.0387 24.0668 19.2038 23.3474 19.5165C22.628 19.8291 21.9787 20.283 21.438 20.8511C20.89 21.414 20.4594 22.0801 20.1712 22.8108C19.8829 23.5414 19.7427 24.3221 19.7588 25.1074V25.1517L19.7676 25.196C19.7747 25.2427 19.7793 25.2898 19.7813 25.337C19.7841 25.3853 19.7881 25.4296 19.793 25.4779C19.7962 25.5142 19.8018 25.5665 19.8067 25.6149C19.8151 25.6833 19.8232 25.7517 19.8248 25.8202L19.7588 26.7101C19.7539 26.7303 19.7184 26.8511 19.7184 26.8511C19.6798 27.0245 19.6303 27.1953 19.5703 27.3625C19.5433 27.435 19.5115 27.5074 19.4789 27.58L19.4676 27.6041C19.3998 27.7516 19.3244 27.8953 19.2417 28.035C19.2014 28.1035 19.1611 28.1719 19.1168 28.2364C18.9788 28.4418 18.8226 28.6346 18.6502 28.8122C18.2783 29.1896 17.8349 29.489 17.346 29.693C16.857 29.8969 16.3317 30.0014 15.8019 30.0001ZM4.90126 19.0229C4.37001 19.0241 3.84384 18.9194 3.35359 18.7147C2.86334 18.5101 2.41889 18.2096 2.04624 17.8309C1.28847 17.0669 0.863002 16.0346 0.862398 14.9584C0.861795 13.8823 1.28611 12.8495 2.04302 12.0846C2.21863 11.9099 2.41035 11.7521 2.61564 11.6135C2.67644 11.5732 2.74529 11.5289 2.81415 11.4887C2.95388 11.4041 3.09604 11.3316 3.24825 11.2591C3.32588 11.2214 3.40544 11.1878 3.48663 11.1585C3.64438 11.0996 3.8058 11.0512 3.96986 11.0135L4.07215 10.9853C4.09108 10.9813 4.10919 10.9732 4.12812 10.9692L5.0418 10.9047C5.16957 10.911 5.29689 10.9245 5.42315 10.9451L5.45134 10.949C5.49805 10.9531 5.53469 10.9531 5.57214 10.9571C5.58569 10.9564 5.59929 10.9578 5.61242 10.9611L5.65268 10.9652L5.68933 10.9692H5.89067C6.67502 10.9616 7.44986 10.7966 8.16924 10.4839C8.88862 10.1712 9.5379 9.71735 10.0786 9.14903C10.626 8.58585 11.0564 7.91969 11.3447 7.18909C11.633 6.45848 11.7735 5.67796 11.7582 4.89267V4.84839L11.7497 4.80409C11.7419 4.75479 11.7371 4.70502 11.7356 4.65511C11.7332 4.61484 11.7308 4.57052 11.7263 4.53025L11.7127 4.40539C11.7034 4.32889 11.6938 4.2524 11.6921 4.17992L11.753 3.32622L11.7582 3.30607V3.29C11.7634 3.26987 11.7984 3.15709 11.7984 3.15709C11.8371 2.98103 11.8866 2.80758 11.9467 2.63765C11.9756 2.56114 12.0111 2.4846 12.0473 2.40809C12.1152 2.25447 12.1926 2.1052 12.2789 1.96112L12.2925 1.93699C12.3276 1.88061 12.3622 1.82019 12.4013 1.76381C12.5368 1.55926 12.6912 1.36781 12.8624 1.19198C13.236 0.814331 13.6808 0.514535 14.1711 0.309927C14.6614 0.105319 15.1874 0 15.7186 0C16.2498 0 16.7758 0.105319 17.2661 0.309927C17.7563 0.514535 18.2012 0.814331 18.5748 1.19198C19.331 1.9579 19.755 2.99087 19.755 4.06715C19.755 5.14344 19.331 6.1764 18.5748 6.94233C18.401 7.11503 18.2106 7.27015 18.0062 7.40542C17.9442 7.44971 17.8911 7.48194 17.8359 7.51415L17.8061 7.53023C17.6671 7.61541 17.5231 7.69209 17.3748 7.75979C17.2943 7.80005 17.217 7.83228 17.1397 7.86449C16.9786 7.92421 16.8137 7.97264 16.646 8.00945C16.6057 8.0175 16.5735 8.02956 16.5392 8.03762C16.5183 8.04567 16.499 8.04971 16.476 8.05777L15.5809 8.11819C15.4677 8.11415 15.3465 8.09801 15.2184 8.0819L15.1637 8.07389C15.1234 8.06987 15.0832 8.06986 15.0473 8.06584C15.0323 8.06649 15.0173 8.06513 15.0026 8.0618L14.9724 8.05777L14.9321 8.05374H14.7308C13.9469 8.06153 13.1724 8.22626 12.4531 8.53817C11.7338 8.85009 11.0843 9.30291 10.5428 9.86991C9.99508 10.4337 9.56439 11.1005 9.27576 11.8318C8.98713 12.563 8.84626 13.3443 8.86128 14.1303V14.1746L8.86932 14.2189C8.87733 14.2655 8.88217 14.3126 8.88381 14.3599C8.88664 14.4081 8.89066 14.4524 8.8955 14.5008C8.89952 14.537 8.90517 14.5894 8.91081 14.6336C8.91805 14.7021 8.9269 14.7705 8.92811 14.839L8.86369 15.7249C8.85885 15.7451 8.85122 15.7692 8.84437 15.7933L8.82181 15.874C8.78406 16.046 8.73524 16.2155 8.67564 16.3813C8.64665 16.4619 8.61 16.5384 8.57295 16.6189C8.50587 16.7698 8.42933 16.9165 8.34382 17.0578C8.30354 17.1303 8.26328 17.1947 8.22302 17.2592C8.0875 17.4645 7.93214 17.6561 7.75913 17.8309C7.38706 18.2095 6.94314 18.5098 6.45344 18.7145C5.96372 18.9192 5.43807 19.0241 4.90731 19.0229H4.90126Z" fill="#2E374F"/>
<path fill-rule="evenodd" clip-rule="evenodd" d="M39.6658 22.3197H42.4392L44.0241 17.3948C44.6068 15.5103 44.8166 14.7009 44.933 14.1653C45.1382 15.2417 45.4107 16.3041 45.7489 17.3465L47.3334 22.3197H49.9911L53.9777 10.8432H50.9712L49.433 15.768C49.2232 16.4888 48.8503 17.8579 48.6639 18.7197C48.5241 17.9505 48.0598 16.2311 47.9181 15.768L46.3798 10.8432H43.4882L41.9032 15.768C41.5662 16.7377 41.3015 17.731 41.1111 18.7398C40.9013 17.6727 40.6681 16.674 40.4116 15.768L38.8968 10.8432H35.937L39.6658 22.3197ZM58.5679 22.6217C60.3622 22.6217 61.9238 21.8083 62.4135 20.6243L62.6229 22.3197H65.1168V15.3492C65.1168 12.168 63.2056 10.4929 60.1062 10.4929C56.9829 10.4929 54.932 12.1197 54.932 14.6042H57.3558C57.3558 13.3962 58.288 12.6996 59.9664 12.6996C61.4112 12.6996 62.3422 13.3277 62.3422 14.8861V15.1398L58.8928 15.3975C56.1663 15.6069 54.628 16.9277 54.628 19.0418C54.6292 21.2043 56.1208 22.6217 58.5679 22.6217ZM59.5001 20.4834C58.2184 20.4834 57.5193 19.972 57.5193 18.925C57.5193 17.9989 58.195 17.419 59.9664 17.2539L62.3668 17.0687V17.6727C62.3668 19.4365 61.2482 20.4834 59.5001 20.4834ZM66.5854 27.6391C67.2788 27.8126 67.9914 27.8978 68.7063 27.8928C70.5941 27.8928 71.807 27.011 72.6683 24.8727L78.3083 10.8432H75.3719L72.2487 19.2069L69.289 10.8432H66.2825L70.9202 22.8069L70.5941 23.6646C70.1048 25.0137 69.4054 25.2673 68.2867 25.2673H66.5854V27.6391ZM78.7746 10.8432V13.211H80.4292V22.3197H83.248V13.211H85.9984V10.8432H83.248V9.44985C83.248 8.31023 83.5979 7.56529 85.0428 7.56529H86.0479V5.14918C85.5627 5.06739 85.0712 5.02964 84.5793 5.03642C82.0858 5.03642 80.4317 6.33708 80.4317 9.44985V10.8432H78.777H78.7746ZM91.2665 22.5975C93.1777 22.5975 94.7157 21.7599 95.4145 20.3425L95.6245 22.3197H96.9754V15.0471C96.9754 12.0754 95.0651 10.7747 92.4542 10.7747C89.6809 10.7747 87.8165 12.2365 87.8165 14.5116H89.2848C89.2848 13.0016 90.4504 12.1197 92.4083 12.1197C94.0627 12.1197 95.3907 12.8164 95.3907 15.0231V15.3975L91.6618 15.6996C89.0289 15.9089 87.4436 17.2096 87.4436 19.2754C87.4444 21.2485 88.8667 22.5975 91.2665 22.5975ZM91.6398 21.2969C90.101 21.2969 89.0757 20.6002 89.0757 19.227C89.0757 17.9747 89.9386 17.0445 92.0589 16.8592L95.3915 16.6056V17.2096C95.3898 19.6459 94.0168 21.2969 91.6398 21.2969ZM106.089 10.9358C105.747 10.8539 105.395 10.8146 105.043 10.819C103.456 10.819 102.268 11.6083 101.825 12.8163L101.708 11.0767H100.194V22.3197H101.801V15.9089C101.801 13.7706 103.13 12.3774 105.203 12.3774H106.089V10.9358ZM112.521 22.5975C115.178 22.5975 116.925 21.321 117.534 18.9493H115.995C115.577 20.4351 114.385 21.2284 112.544 21.2284C110.121 21.2284 108.674 19.6459 108.558 16.9076H117.534V16.1144C117.534 12.9331 115.46 10.7747 112.403 10.7747C109.19 10.7747 107 13.1908 107 16.6982C107 20.2297 109.21 22.5975 112.521 22.5975ZM112.403 12.1439C114.525 12.1439 115.923 13.5854 115.923 15.7439H108.607C108.884 13.5371 110.286 12.1439 112.403 12.1439ZM125.994 10.9358C125.65 10.8539 125.297 10.8146 124.943 10.819C123.36 10.819 122.173 11.6083 121.73 12.8163L121.613 11.0767H120.095V22.3197H121.706V15.9089C121.706 13.7706 123.035 12.3774 125.108 12.3774H125.994V10.9358Z" fill="#2E374F"/>
</g>
<defs>
<clipPath id="clip0_30_50">
<rect width="125.294" height="30" fill="white" transform="translate(0.760742)"/>
</clipPath>
</defs>
</svg>
