<svg width="145" height="30" viewBox="0 0 145 30" fill="none" xmlns="http://www.w3.org/2000/svg">
<g clip-path="url(#clip0_28_26)">
<path d="M58.7718 24.4773C58.3732 24.1358 58.1445 23.7777 58.1234 23.4016L58.7718 24.4773ZM58.7718 24.4773L58.7738 24.479C59.2071 24.8336 59.8176 25.0028 60.5892 25.0028H62.2777H62.3905V24.8899V24.6686V24.5557H62.2777H61.4298L61.1354 24.5022L61.13 24.5011L61.1244 24.5007C60.9488 24.4861 60.7536 24.3672 60.5413 24.1029C60.3578 23.8336 60.2589 23.4456 60.2589 22.9245V14.26C60.2589 13.3362 60.0229 12.571 59.5419 11.9746L59.5406 11.9728C59.2258 11.599 58.7323 11.3226 58.0752 11.1347C57.4326 10.927 56.5987 10.8253 55.5787 10.8253C54.5352 10.8253 53.5784 11.1865 52.7114 11.9026C52.0182 12.4604 51.4968 13.058 51.1518 13.6964V11.0489V10.936H51.0386H49.101H48.9882V11.0489V24.8899V25.0028H49.101H51.0386H51.1518V24.8899V15.0628C51.1518 14.3715 51.5946 13.569 52.5295 12.652L52.5306 12.6513C53.4535 11.7283 54.4866 11.2725 55.6339 11.2725C56.1934 11.2725 56.6546 11.3627 57.0223 11.5372C57.7202 11.9132 58.0956 12.7874 58.0956 14.2323V22.9245V22.9278V22.9311L58.1234 23.4016L58.7718 24.4773ZM47.243 6.78052L47.3472 6.8205L47.3883 6.71706L47.4992 6.44025L47.5437 6.32907L47.4302 6.29122C45.5371 5.66023 43.6705 5.34424 41.8303 5.34424C40.0062 5.34424 38.6174 5.77209 37.6842 6.64777C36.7545 7.50175 36.2917 8.62185 36.2917 9.99701C36.2917 11.7321 37.0113 13.0779 38.4457 14.0218C39.0786 14.4498 39.7758 14.8401 40.537 15.1929L40.5393 15.1939C41.2962 15.5263 42.044 15.8494 42.7827 16.1632C43.5349 16.4752 44.2234 16.8148 44.8456 17.181C46.2183 17.9936 46.894 19.1122 46.894 20.5437C46.894 21.8552 46.376 22.8428 45.3396 23.5219C44.3095 24.1906 43.0584 24.5278 41.5812 24.5278C40.5778 24.5278 39.5926 24.3822 38.6254 24.0902C37.6754 23.7794 36.9042 23.3883 36.3084 22.9188L36.2096 22.8411L36.1426 22.9479L36.0043 23.1693L35.9478 23.26L36.0351 23.3216C37.6627 24.4626 39.6241 25.0305 41.9133 25.0305C43.1394 25.0305 44.2123 24.8912 45.1299 24.6103L45.1312 24.6099C46.0766 24.3075 46.8794 23.7399 47.5381 22.9117C48.2014 22.0779 48.5317 21.0742 48.5317 19.9072C48.5317 18.7333 48.3361 17.7633 47.9376 17.0038C47.5424 16.2327 47.023 15.6271 46.378 15.1908C45.7444 14.7621 45.0465 14.3806 44.284 14.046C43.5252 13.7127 42.7659 13.4166 42.0068 13.1572C41.2728 12.882 40.5946 12.5886 39.9717 12.2772C38.599 11.5544 37.9292 10.5463 37.9292 9.24958C37.9292 8.17507 38.3301 7.34212 39.1302 6.73756C39.9342 6.12994 41.0604 5.81917 42.5226 5.81917C44.0007 5.81917 45.5743 6.13858 47.243 6.78052ZM62.982 12.7684C61.7006 14.0685 61.0666 15.8911 61.0666 18.2186C61.0666 20.5441 61.6809 22.2872 62.9307 23.4235C64.1731 24.5527 65.7795 25.1136 67.7403 25.1136C69.7231 25.1136 71.3587 24.4669 72.6369 23.1703C73.937 21.8702 74.58 20.0481 74.58 17.7204C74.58 15.3948 73.9658 13.6518 72.716 12.5156C71.4732 11.3859 69.8574 10.8253 67.8786 10.8253C65.9134 10.8253 64.2782 11.4721 62.982 12.7684ZM64.5364 13.1096C65.4405 11.8799 66.5715 11.2725 67.9339 11.2725C69.3032 11.2725 70.3959 11.7928 71.2227 12.8354C72.0486 13.8766 72.4714 15.4978 72.4714 17.7204C72.4714 19.9203 72.013 21.6285 71.1099 22.8572C70.206 24.0685 69.0754 24.6666 67.7125 24.6666C66.3435 24.6666 65.2504 24.1461 64.4235 23.1037C63.5978 22.0621 63.1748 20.45 63.1748 18.2463C63.1748 16.027 63.6336 14.3196 64.5364 13.1096ZM93.4406 11.1352L93.3582 11.2176L93.4432 11.2974C93.7092 11.5466 93.8505 11.9185 93.8505 12.433C93.8505 12.9525 93.743 13.3938 93.533 13.7611L93.5307 13.7654L93.5287 13.7698L89.6289 22.2148L85.4877 11.0098L85.4606 10.936H85.382H83.4444H83.2826L83.3382 11.0878L84.3465 13.8399L80.4937 22.2145L76.3528 11.0098L76.3254 10.936H76.2466H74.309H74.1466L74.2032 11.0883L79.352 24.9294L79.3795 25.0028H79.4578H79.7348H79.8075L79.8376 24.9368L84.5964 14.4727L88.4874 24.9294L88.5145 25.0028H88.5932H88.8698H88.9424L88.9725 24.9368L94.0108 13.8639L94.0119 13.8616C94.2386 13.3327 94.3532 12.8101 94.3532 12.2946C94.3532 12.1567 94.3338 12.0111 94.2958 11.8584C94.2732 11.6885 94.1898 11.5084 94.0581 11.3196C94.0018 11.2261 93.9483 11.1481 93.8977 11.0874C93.8481 11.0277 93.7946 10.9767 93.737 10.9479L93.6643 10.9115L93.6067 10.9691L93.4406 11.1352Z" fill="#2E374F"/>
<path d="M98.6398 5.71261C99.1592 4.91629 100.002 4.2994 101.171 4.24485L100.927 23.117V23.1183C100.927 23.2892 100.98 23.4727 101.077 23.6672C101.532 24.5765 102.616 25.0028 104.251 25.0028H105.109H105.222V24.8899V24.6686V24.5557H105.109H104.261L103.967 24.5022L103.961 24.5011L103.956 24.5007C103.78 24.4861 103.585 24.3672 103.373 24.1029C103.189 23.8337 103.091 23.4456 103.091 22.9245V4.1561V4.04502L102.979 4.04322L101.288 4.01552L101.175 4.01367L101.174 4.01702C99.2801 4.05115 97.8792 4.49658 96.9988 5.37688C96.0994 6.25747 95.664 7.72526 95.664 9.74788V10.9361H95.1958H95.083V11.0489V11.4962V11.6091H95.1958H95.664V24.8899V25.0028H95.7772H97.7148H97.8276V24.8899V11.6091H99.9016H100.015V11.4962V11.0489V10.9361H99.9016H97.8276V9.74788C97.8276 7.85228 98.105 6.51512 98.6391 5.71358L98.6398 5.71261ZM113.38 18.1233C113.003 18.0931 112.588 18.0781 112.137 18.0781C111.635 18.0781 111.087 18.1058 110.495 18.1614C109.301 18.2355 108.313 18.3746 107.534 18.5801C106.755 18.7851 106.174 19.059 105.803 19.4101C105.446 19.7479 105.217 20.0699 105.135 20.3765C105.059 20.661 105.02 20.9293 105.02 21.1807C105.02 21.4081 105.039 21.6355 105.077 21.8625C105.237 22.9345 105.656 23.7523 106.343 24.3002C107.029 24.8471 107.968 25.1136 109.147 25.1136C110.159 25.1136 111.04 24.905 111.784 24.483C112.42 24.1227 112.952 23.6096 113.38 22.9466V23.1183C113.38 23.4633 113.624 23.8421 114.05 24.2503C114.546 24.764 115.445 25.0028 116.704 25.0028H117.562H117.675V24.8899V24.6686V24.5557H117.562H116.714L116.42 24.5022L116.415 24.5011L116.409 24.5007C116.234 24.4861 116.039 24.3672 115.826 24.1029C115.642 23.8337 115.544 23.4456 115.544 22.9245V13.6511C115.544 13.0271 115.29 12.4385 114.796 11.8873C114.471 11.5241 113.983 11.2595 113.343 11.0853C112.703 10.9111 111.903 10.8253 110.946 10.8253C109.231 10.8253 107.545 11.2076 105.889 11.9706L105.777 12.0222L105.838 12.1292L105.949 12.323L106.005 12.4206L106.102 12.3653C106.514 12.1326 107.167 11.8956 108.069 11.6564L108.07 11.656C108.987 11.3993 109.779 11.2726 110.448 11.2726C111.122 11.2726 111.659 11.3639 112.064 11.54L112.068 11.5417C112.482 11.7038 112.754 11.896 112.902 12.1098C113.063 12.3421 113.187 12.5825 113.276 12.8309L113.278 12.8357L113.28 12.8402C113.385 13.0686 113.412 13.2444 113.383 13.3761C113.364 13.4521 113.353 13.5199 113.353 13.575C113.353 13.6026 113.356 13.6339 113.366 13.6637C113.37 13.6734 113.374 13.6833 113.38 13.6933V18.1233ZM107.239 21.8354L107.239 21.8337C107.221 21.6519 107.212 21.4898 107.212 21.3469C107.212 20.5545 107.418 19.9481 107.818 19.5131C108.013 19.3017 108.328 19.1159 108.775 18.9621C109.222 18.8088 109.792 18.6901 110.489 18.6077C110.983 18.5527 111.477 18.5253 111.971 18.5253C112.449 18.5253 112.919 18.5412 113.38 18.5729V21.8124C113.327 22.3947 112.929 23.0233 112.146 23.6971C111.391 24.3447 110.54 24.6666 109.59 24.6666C108.88 24.6666 108.339 24.4325 107.953 23.973C107.564 23.5092 107.321 22.8019 107.239 21.8354ZM120.029 4.1284V4.01552H119.916H117.978H117.865V4.1284V24.8899V25.0028H117.978H119.916H120.029V24.8899V18.2609L120.652 17.5451L125.691 24.9535L125.725 25.0028H125.785H127.723H127.935L127.815 24.8267L121.914 16.1516L126.368 11.1238L126.534 10.9361H126.283H126.006H125.955L125.922 10.974L120.029 17.6167V4.1284ZM138.58 23.9043L138.537 23.8046L138.436 23.8434C137.012 24.3913 135.384 24.6666 133.549 24.6666C132.276 24.6666 131.247 24.1488 130.456 23.106C129.684 22.0645 129.289 20.415 129.289 18.1356C129.289 17.6402 129.312 17.1611 129.36 16.6983H139.141H139.254V16.5854V16.5837V16.5822V16.5805V16.5788V16.5773V16.5757V16.574V16.5725V16.5708V16.5692V16.5675V16.5659V16.5643V16.5626V16.5611V16.5594V16.5578V16.5561V16.5546V16.5529V16.5513V16.5497V16.5481V16.5464V16.5449V16.5432V16.5416V16.5399V16.5384V16.5367V16.5351V16.5335V16.5319V16.5302V16.5287V16.527V16.5254V16.5237V16.5221V16.5205V16.5188V16.5173V16.5157V16.514V16.5125V16.5108V16.5091V16.5075V16.5059V16.5043V16.5026V16.5011V16.4994V16.4978V16.4961V16.4946V16.4929V16.4913V16.4897V16.4881V16.4864V16.4849V16.4832V16.4815V16.4799V16.4784V16.4772V16.4756V16.4739V16.4724V16.4707V16.4691V16.4676V16.4659V16.4642V16.4627V16.461V16.4594V16.4577V16.4562V16.4545V16.4529V16.4513V16.4497V16.448V16.4465V16.4448V16.4432V16.4415V16.44V16.4383V16.4367V16.4351V16.4334V16.4318V16.4303V16.4291V16.4275V16.4258V16.4243V16.4227V16.4215V16.4199V16.4183V16.4167V16.4151V16.4139V16.4124V16.4107V16.4091V16.4075V16.4059V16.4042V16.4027V16.401V16.3994V16.3977V16.3962V16.3945V16.3929V16.3913V16.3897V16.388V16.3865V16.3848V16.3832V16.3815V16.38V16.3783V16.3766V16.3751V16.3734V16.3718V16.3703V16.3686V16.367V16.3658V16.3643V16.3627V16.361V16.3593V16.3578V16.3561V16.3545V16.3529V16.3513V16.3496V16.3481V16.3464V16.3448V16.3431V16.3416V16.3399V16.3383V16.3367V16.3351V16.3334V16.3317V16.3302V16.3285V16.3269V16.3254V16.3237V16.3221V16.3205V16.3188V16.3172V16.3155V16.314V16.3123V16.3107V16.3091C139.254 14.5149 138.729 13.1413 137.665 12.2097C136.609 11.2855 135.308 10.8253 133.771 10.8253C131.859 10.8253 130.279 11.473 129.038 12.7703C127.795 14.0705 127.18 15.8919 127.18 18.2186C127.18 20.5428 127.766 22.2852 128.959 23.4215C130.146 24.552 131.679 25.1136 133.549 25.1136C135.424 25.1136 137.109 24.8259 138.601 24.2479L138.709 24.2058L138.663 24.0983L138.58 23.9043ZM136.146 12.5027C136.773 13.3051 137.112 14.5482 137.144 16.251H129.416C129.644 14.7037 130.149 13.496 130.921 12.6188C131.733 11.7155 132.646 11.2726 133.66 11.2726C134.676 11.2726 135.501 11.6803 136.146 12.5027Z" fill="#2E374F"/>
<path d="M141.696 3.83789V4.56921H140.865V6.79421H140.076V4.56921H139.244V3.83789H141.696Z" fill="#2E374F"/>
<path d="M144.937 3.79346V6.80741H144.147V5.34477L143.569 6.03179H143.332L142.754 5.34477V6.80741H141.964V3.79346H142.244L143.45 5.07884L144.657 3.79346H144.937Z" fill="#2E374F"/>
<path fill-rule="evenodd" clip-rule="evenodd" d="M14.4935 20.0747L14.4815 29.5796L16.4908 29.5823L16.5029 20.033L20.1683 28.8509L22.0237 28.0797L18.3835 19.3222L25.0808 26.0369L26.5034 24.6177L19.7774 17.8744L28.5743 21.5253L29.3443 19.6694L20.5465 16.0181H30.0719V14.0088H20.5693L29.3525 10.3814L28.5854 8.52423L19.8398 12.1363L26.5647 5.47997L25.1514 4.05189L18.3428 10.7907L22.0119 1.94159L20.1557 1.17202L16.5157 9.9513L16.5278 0.447369L14.5185 0.444824L14.5064 9.99501L10.8406 1.17634L8.98521 1.94758L12.6251 10.7041L5.92822 3.99014L4.50563 5.40914L11.2319 12.1526L2.43485 8.50158L1.66465 10.3574L10.463 14.0088H0.937012V16.0181H10.4404L1.65678 19.6459L2.42376 21.5028L11.1691 17.8912L4.44422 24.5472L5.8577 25.9753L12.6658 19.2368L8.9971 28.0853L10.8532 28.8549L14.4935 20.0747Z" fill="#2E374F"/>
</g>
<defs>
<clipPath id="clip0_28_26">
<rect width="144" height="30" fill="white" transform="translate(0.937012)"/>
</clipPath>
</defs>
</svg>
