<svg width="176" height="52" viewBox="0 0 176 52" fill="none" xmlns="http://www.w3.org/2000/svg">
<path d="M0 4.97778C0 2.22863 2.22863 0 4.97778 0H171.022C173.771 0 176 2.22863 176 4.97778V35.6472C176 38.3964 173.771 40.625 171.022 40.625H136.444L126.232 51.516C125.986 51.7781 125.57 51.7781 125.324 51.516L115.111 40.625H4.97778C2.22863 40.625 0 38.3964 0 35.6472V4.97778Z" fill="#F64360"/>
<path d="M15.495 26.5V24.925L19.545 21.1C19.865 20.81 20.1 20.55 20.25 20.32C20.4 20.09 20.5 19.88 20.55 19.69C20.61 19.5 20.64 19.325 20.64 19.165C20.64 18.745 20.495 18.425 20.205 18.205C19.925 17.975 19.51 17.86 18.96 17.86C18.52 17.86 18.11 17.945 17.73 18.115C17.36 18.285 17.045 18.55 16.785 18.91L15.015 17.77C15.415 17.17 15.975 16.695 16.695 16.345C17.415 15.995 18.245 15.82 19.185 15.82C19.965 15.82 20.645 15.95 21.225 16.21C21.815 16.46 22.27 16.815 22.59 17.275C22.92 17.735 23.085 18.285 23.085 18.925C23.085 19.265 23.04 19.605 22.95 19.945C22.87 20.275 22.7 20.625 22.44 20.995C22.19 21.365 21.82 21.78 21.33 22.24L17.97 25.405L17.505 24.52H23.43V26.5H15.495ZM28.7827 26.68C27.9027 26.68 27.1327 26.55 26.4727 26.29C25.8127 26.02 25.2977 25.645 24.9277 25.165C24.5577 24.675 24.3727 24.105 24.3727 23.455C24.3727 22.805 24.5527 22.255 24.9127 21.805C25.2827 21.345 25.7977 21 26.4577 20.77C27.1177 20.53 27.8927 20.41 28.7827 20.41C29.6827 20.41 30.4627 20.53 31.1227 20.77C31.7927 21 32.3077 21.345 32.6677 21.805C33.0377 22.255 33.2227 22.805 33.2227 23.455C33.2227 24.105 33.0377 24.675 32.6677 25.165C32.2977 25.645 31.7777 26.02 31.1077 26.29C30.4477 26.55 29.6727 26.68 28.7827 26.68ZM28.7827 24.895C29.3927 24.895 29.8727 24.76 30.2227 24.49C30.5827 24.22 30.7627 23.85 30.7627 23.38C30.7627 22.91 30.5827 22.545 30.2227 22.285C29.8727 22.015 29.3927 21.88 28.7827 21.88C28.1827 21.88 27.7077 22.015 27.3577 22.285C27.0077 22.545 26.8327 22.91 26.8327 23.38C26.8327 23.85 27.0077 24.22 27.3577 24.49C27.7077 24.76 28.1827 24.895 28.7827 24.895ZM28.7827 21.64C27.9727 21.64 27.2627 21.53 26.6527 21.31C26.0527 21.09 25.5827 20.77 25.2427 20.35C24.9127 19.92 24.7477 19.41 24.7477 18.82C24.7477 18.2 24.9177 17.67 25.2577 17.23C25.5977 16.78 26.0727 16.435 26.6827 16.195C27.2927 15.945 27.9927 15.82 28.7827 15.82C29.5927 15.82 30.2977 15.945 30.8977 16.195C31.5077 16.435 31.9827 16.78 32.3227 17.23C32.6727 17.67 32.8477 18.2 32.8477 18.82C32.8477 19.41 32.6777 19.92 32.3377 20.35C32.0077 20.77 31.5377 21.09 30.9277 21.31C30.3177 21.53 29.6027 21.64 28.7827 21.64ZM28.7827 20.215C29.2927 20.215 29.6927 20.1 29.9827 19.87C30.2827 19.64 30.4327 19.325 30.4327 18.925C30.4327 18.505 30.2777 18.18 29.9677 17.95C29.6677 17.72 29.2727 17.605 28.7827 17.605C28.3027 17.605 27.9127 17.72 27.6127 17.95C27.3127 18.18 27.1627 18.505 27.1627 18.925C27.1627 19.325 27.3077 19.64 27.5977 19.87C27.8877 20.1 28.2827 20.215 28.7827 20.215ZM37.74 26.68C37.01 26.68 36.285 26.585 35.565 26.395C34.845 26.195 34.235 25.915 33.735 25.555L34.68 23.695C35.08 23.985 35.545 24.215 36.075 24.385C36.605 24.555 37.14 24.64 37.68 24.64C38.29 24.64 38.77 24.52 39.12 24.28C39.47 24.04 39.645 23.71 39.645 23.29C39.645 22.89 39.49 22.575 39.18 22.345C38.87 22.115 38.37 22 37.68 22H36.57V20.395L39.495 17.08L39.765 17.95H34.26V16H41.61V17.575L38.7 20.89L37.47 20.185H38.175C39.465 20.185 40.44 20.475 41.1 21.055C41.76 21.635 42.09 22.38 42.09 23.29C42.09 23.88 41.935 24.435 41.625 24.955C41.315 25.465 40.84 25.88 40.2 26.2C39.56 26.52 38.74 26.68 37.74 26.68Z" fill="white"/>
<g clip-path="url(#clip0_188_259)">
<path d="M56.0001 29.6491C55.8989 29.6491 55.7978 29.6229 55.7072 29.5706C55.6087 29.5138 53.27 28.1559 50.8977 26.1099C49.4917 24.8972 48.3693 23.6945 47.5619 22.5351C46.5171 21.0349 45.9916 19.5918 46.0001 18.246C46.01 16.68 46.5709 15.2072 47.5796 14.099C48.6053 12.9721 49.9742 12.3516 51.434 12.3516C53.305 12.3516 55.0156 13.3996 56.0001 15.0599C56.9846 13.3997 58.6952 12.3516 60.5662 12.3516C61.9454 12.3516 63.2613 12.9115 64.2717 13.9282C65.3804 15.044 66.0104 16.6205 66.0001 18.2534C65.9916 19.5969 65.4563 21.0378 64.4091 22.5359C63.5992 23.6947 62.4784 24.8969 61.0779 26.1092C58.7143 28.155 56.3924 29.5129 56.2947 29.5697C56.2036 29.6226 56.1018 29.6491 56.0001 29.6491Z" fill="white"/>
</g>
<path d="M80.275 15.82C81.245 15.82 82.08 16.02 82.78 16.42C83.48 16.82 84.02 17.405 84.4 18.175C84.78 18.935 84.97 19.885 84.97 21.025C84.97 22.235 84.74 23.26 84.28 24.1C83.83 24.94 83.205 25.58 82.405 26.02C81.605 26.46 80.675 26.68 79.615 26.68C79.065 26.68 78.535 26.62 78.025 26.5C77.515 26.38 77.075 26.2 76.705 25.96L77.605 24.175C77.895 24.375 78.205 24.515 78.535 24.595C78.865 24.665 79.21 24.7 79.57 24.7C80.47 24.7 81.185 24.425 81.715 23.875C82.255 23.325 82.525 22.51 82.525 21.43C82.525 21.25 82.52 21.05 82.51 20.83C82.5 20.61 82.475 20.39 82.435 20.17L83.095 20.8C82.925 21.19 82.685 21.52 82.375 21.79C82.065 22.05 81.705 22.25 81.295 22.39C80.885 22.52 80.425 22.585 79.915 22.585C79.245 22.585 78.635 22.45 78.085 22.18C77.545 21.91 77.11 21.53 76.78 21.04C76.46 20.55 76.3 19.975 76.3 19.315C76.3 18.595 76.475 17.975 76.825 17.455C77.185 16.935 77.665 16.535 78.265 16.255C78.875 15.965 79.545 15.82 80.275 15.82ZM80.425 17.635C80.075 17.635 79.77 17.7 79.51 17.83C79.25 17.95 79.045 18.13 78.895 18.37C78.745 18.6 78.67 18.875 78.67 19.195C78.67 19.675 78.83 20.06 79.15 20.35C79.48 20.63 79.915 20.77 80.455 20.77C80.805 20.77 81.115 20.705 81.385 20.575C81.665 20.435 81.88 20.245 82.03 20.005C82.18 19.765 82.255 19.495 82.255 19.195C82.255 18.895 82.18 18.63 82.03 18.4C81.89 18.16 81.685 17.975 81.415 17.845C81.145 17.705 80.815 17.635 80.425 17.635ZM89.8258 15.82C90.7958 15.82 91.6308 16.02 92.3308 16.42C93.0308 16.82 93.5708 17.405 93.9508 18.175C94.3308 18.935 94.5208 19.885 94.5208 21.025C94.5208 22.235 94.2908 23.26 93.8308 24.1C93.3808 24.94 92.7558 25.58 91.9558 26.02C91.1558 26.46 90.2258 26.68 89.1658 26.68C88.6158 26.68 88.0858 26.62 87.5758 26.5C87.0658 26.38 86.6258 26.2 86.2558 25.96L87.1558 24.175C87.4458 24.375 87.7558 24.515 88.0858 24.595C88.4158 24.665 88.7608 24.7 89.1208 24.7C90.0208 24.7 90.7358 24.425 91.2658 23.875C91.8058 23.325 92.0758 22.51 92.0758 21.43C92.0758 21.25 92.0708 21.05 92.0608 20.83C92.0508 20.61 92.0258 20.39 91.9858 20.17L92.6458 20.8C92.4758 21.19 92.2358 21.52 91.9258 21.79C91.6158 22.05 91.2558 22.25 90.8458 22.39C90.4358 22.52 89.9758 22.585 89.4658 22.585C88.7958 22.585 88.1858 22.45 87.6358 22.18C87.0958 21.91 86.6608 21.53 86.3308 21.04C86.0108 20.55 85.8508 19.975 85.8508 19.315C85.8508 18.595 86.0258 17.975 86.3758 17.455C86.7358 16.935 87.2158 16.535 87.8158 16.255C88.4258 15.965 89.0958 15.82 89.8258 15.82ZM89.9758 17.635C89.6258 17.635 89.3208 17.7 89.0608 17.83C88.8008 17.95 88.5958 18.13 88.4458 18.37C88.2958 18.6 88.2208 18.875 88.2208 19.195C88.2208 19.675 88.3808 20.06 88.7008 20.35C89.0308 20.63 89.4658 20.77 90.0058 20.77C90.3558 20.77 90.6658 20.705 90.9358 20.575C91.2158 20.435 91.4308 20.245 91.5808 20.005C91.7308 19.765 91.8058 19.495 91.8058 19.195C91.8058 18.895 91.7308 18.63 91.5808 18.4C91.4408 18.16 91.2358 17.975 90.9658 17.845C90.6958 17.705 90.3658 17.635 89.9758 17.635Z" fill="white"/>
<g clip-path="url(#clip1_188_259)">
<path d="M101.912 29.8045H100.495L101.497 28.8025C102.037 28.2622 102.375 27.5595 102.465 26.7971C100.152 25.2788 99 23.0791 99 20.7731C99 16.5187 102.91 12.1953 109.034 12.1953C115.521 12.1953 119 16.1737 119 20.4003C119 24.6549 115.485 28.6306 109.034 28.6306C107.904 28.6306 106.725 28.4797 105.672 28.203C104.675 29.2251 103.325 29.8045 101.912 29.8045Z" fill="white"/>
</g>
<path d="M132.99 26.68C132.26 26.68 131.535 26.585 130.815 26.395C130.095 26.195 129.485 25.915 128.985 25.555L129.93 23.695C130.33 23.985 130.795 24.215 131.325 24.385C131.855 24.555 132.39 24.64 132.93 24.64C133.54 24.64 134.02 24.52 134.37 24.28C134.72 24.04 134.895 23.71 134.895 23.29C134.895 22.89 134.74 22.575 134.43 22.345C134.12 22.115 133.62 22 132.93 22H131.82V20.395L134.745 17.08L135.015 17.95H129.51V16H136.86V17.575L133.95 20.89L132.72 20.185H133.425C134.715 20.185 135.69 20.475 136.35 21.055C137.01 21.635 137.34 22.38 137.34 23.29C137.34 23.88 137.185 24.435 136.875 24.955C136.565 25.465 136.09 25.88 135.45 26.2C134.81 26.52 133.99 26.68 132.99 26.68Z" fill="white"/>
<path d="M151 11C148.092 11 145.727 13.3657 145.727 16.2734C145.727 19.1812 148.092 21.5469 151 21.5469C153.908 21.5469 156.273 19.1812 156.273 16.2734C156.273 13.3657 153.908 11 151 11Z" fill="white"/>
<path d="M157.561 24.992C156.117 23.5261 154.203 22.7188 152.172 22.7188H149.828C147.797 22.7188 145.883 23.5261 144.439 24.992C143.002 26.4507 142.211 28.3763 142.211 30.4141C142.211 30.7377 142.473 31 142.797 31H159.203C159.527 31 159.789 30.7377 159.789 30.4141C159.789 28.3763 158.998 26.4507 157.561 24.992Z" fill="white"/>
<defs>
<clipPath id="clip0_188_259">
<rect width="20.0002" height="20.0002" fill="white" transform="translate(46 11)"/>
</clipPath>
<clipPath id="clip1_188_259">
<rect width="20" height="20" fill="white" transform="translate(99 11)"/>
</clipPath>
</defs>
</svg>
