<svg width="26" height="20" viewBox="0 0 26 20" fill="none" xmlns="http://www.w3.org/2000/svg">
<path d="M25.0796 7.61219C24.5951 6.95255 23.8478 6.57311 23.0306 6.57311H22.4118V4.9094C22.4118 3.50838 21.2735 2.37005 19.8666 2.37005H12.4412C12.015 2.37005 11.6064 2.20076 11.3028 1.90305L10.1353 0.741372C9.65663 0.262691 9.02033 0 8.34317 0H2.54059C1.13957 0 0.00123258 1.13833 0.00123258 2.54518V17.3551C-0.0162802 17.9213 0.15301 18.4817 0.497429 18.9488C0.987788 19.6142 1.74084 19.9995 2.56978 19.9995H20.427C21.542 19.9995 22.5169 19.2815 22.8555 18.2132L25.4649 9.87133C25.7042 9.09494 25.5641 8.27184 25.0796 7.61219ZM0.929412 2.54518C0.929412 1.65787 1.65327 0.934011 2.53475 0.934011H8.34317C8.76931 0.934011 9.17211 1.1033 9.4815 1.40102L10.649 2.56269C11.1277 3.04137 11.764 3.30407 12.4412 3.30407H19.8724C20.7598 3.30407 21.4836 4.02792 21.4836 4.9094V6.57311H5.13833C4.02334 6.57311 3.04846 7.29113 2.70988 8.35356L0.923574 14.051V2.54518H0.929412ZM24.5659 9.59697L21.9565 17.9389C21.7463 18.616 21.1275 19.0655 20.4212 19.0655H2.56394C2.03856 19.0655 1.55987 18.8203 1.24464 18.4C0.935249 17.9739 0.841848 17.4427 0.999463 16.9406L3.5972 8.63377C3.80735 7.95661 4.42614 7.50712 5.13249 7.50712H23.0247C23.5443 7.50712 24.0171 7.74646 24.3207 8.16092C24.6359 8.58123 24.7235 9.10077 24.5659 9.59697Z" fill="#5956E9"/>
</svg>
