<svg width="20" height="20" viewBox="0 0 20 20" fill="none" xmlns="http://www.w3.org/2000/svg">
<path d="M17.8588 1.3923H15.295V1.02814C15.295 0.834971 15.2183 0.649717 15.0817 0.513128C14.9451 0.376539 14.7599 0.299805 14.5667 0.299805C14.3735 0.299805 14.1883 0.376539 14.0517 0.513128C13.9151 0.649717 13.8383 0.834971 13.8383 1.02814V1.3923H6.16154V1.02814C6.16154 0.834971 6.0848 0.649717 5.94821 0.513128C5.81162 0.376539 5.62636 0.299805 5.43319 0.299805C5.24002 0.299805 5.05476 0.376539 4.91817 0.513128C4.78158 0.649717 4.70484 0.834971 4.70484 1.02814V1.3923H2.14105C1.3284 1.39423 0.54958 1.7179 -0.0250557 2.29252C-0.599691 2.86714 -0.92337 3.64594 -0.925293 4.45858V17.2335C-0.92337 18.0462 -0.599691 18.825 -0.0250557 19.3996C0.54958 19.9742 1.3284 20.2979 2.14105 20.2998H17.8588C18.6715 20.2979 19.4503 19.9742 20.0249 19.3996C20.5996 18.825 20.9232 18.0462 20.9252 17.2335V4.45858C20.9232 3.64594 20.5996 2.86714 20.0249 2.29252C19.4503 1.7179 18.6715 1.39423 17.8588 1.3923ZM2.14105 2.84897H4.70484V3.21313C4.70484 3.4063 4.78158 3.59155 4.91817 3.72814C5.05476 3.86473 5.24002 3.94147 5.43319 3.94147C5.62636 3.94147 5.81162 3.86473 5.94821 3.72814C6.0848 3.59155 6.16154 3.4063 6.16154 3.21313V2.84897H13.8383V3.21313C13.8383 3.4063 13.9151 3.59155 14.0517 3.72814C14.1883 3.86473 14.3735 3.94147 14.5667 3.94147C14.7599 3.94147 14.9451 3.86473 15.0817 3.72814C15.2183 3.59155 15.295 3.4063 15.295 3.21313V2.84897H17.8588C18.2857 2.84897 18.6951 3.01855 18.997 3.32041C19.2989 3.62227 19.4685 4.03169 19.4685 4.45858V6.18473H0.531404V4.45858C0.531404 4.03169 0.700992 3.62227 1.00286 3.32041C1.30473 3.01855 1.71415 2.84897 2.14105 2.84897ZM17.8588 18.8723H2.14105C1.9272 18.8723 1.71548 18.8297 1.51826 18.747C1.32105 18.6643 1.14229 18.5431 0.992435 18.3906C0.842578 18.238 0.724625 18.0571 0.645467 17.8585C0.56631 17.6598 0.527534 17.4473 0.531404 17.2335V7.64139H19.4685V17.2335C19.4723 17.4473 19.4336 17.6598 19.3544 17.8585C19.2752 18.0571 19.1573 18.238 19.0074 18.3906C18.8576 18.5431 18.6788 18.6643 18.4816 18.747C18.2844 18.8297 18.0727 18.8723 17.8588 18.8723Z" fill="#5956E9"/>
</svg>
